<svg width="18" height="18" viewBox="0 0 18 18" fill="none" xmlns="http://www.w3.org/2000/svg">
<mask id="mask0_54_691" style="mask-type:alpha" maskUnits="userSpaceOnUse" x="0" y="0" width="18" height="18">
<rect width="18" height="18" fill="#D9D9D9"/>
</mask>
<g mask="url(#mask0_54_691)">
<path d="M3 5.25C2.7875 5.25 2.60938 5.17813 2.46562 5.03437C2.32187 4.89062 2.25 4.7125 2.25 4.5C2.25 4.2875 2.32187 4.10938 2.46562 3.96562C2.60938 3.82187 2.7875 3.75 3 3.75H15C15.2125 3.75 15.3906 3.82187 15.5344 3.96562C15.6781 4.10938 15.75 4.2875 15.75 4.5C15.75 4.7125 15.6781 4.89062 15.5344 5.03437C15.3906 5.17813 15.2125 5.25 15 5.25H3ZM3 14.25C2.7875 14.25 2.60938 14.1781 2.46562 14.0344C2.32187 13.8906 2.25 13.7125 2.25 13.5C2.25 13.2875 2.32187 13.1094 2.46562 12.9656C2.60938 12.8219 2.7875 12.75 3 12.75H15C15.2125 12.75 15.3906 12.8219 15.5344 12.9656C15.6781 13.1094 15.75 13.2875 15.75 13.5C15.75 13.7125 15.6781 13.8906 15.5344 14.0344C15.3906 14.1781 15.2125 14.25 15 14.25H3ZM3 9.75C2.7875 9.75 2.60938 9.67812 2.46562 9.53438C2.32187 9.39062 2.25 9.2125 2.25 9C2.25 8.7875 2.32187 8.60938 2.46562 8.46562C2.60938 8.32188 2.7875 8.25 3 8.25H15C15.2125 8.25 15.3906 8.32188 15.5344 8.46562C15.6781 8.60938 15.75 8.7875 15.75 9C15.75 9.2125 15.6781 9.39062 15.5344 9.53438C15.3906 9.67812 15.2125 9.75 15 9.75H3Z" fill="white"/>
</g>
</svg>
