<svg width="183" height="71" viewBox="0 0 183 71" fill="none" xmlns="http://www.w3.org/2000/svg">
<g clip-path="url(#clip0_53_397)">
<path d="M37.675 45.6885C34.3435 45.6929 31.601 48.3161 31.601 51.5985C31.601 54.8809 34.3435 57.4776 37.675 57.4864C41.0373 57.4731 43.7579 54.8499 43.7579 51.5985C43.7579 48.3471 41.0373 45.6929 37.675 45.6885ZM37.5915 54.7924C35.851 54.7924 34.5325 53.3591 34.5325 51.6029C34.5325 49.8467 35.9389 48.3825 37.6706 48.3825C39.4023 48.3825 40.7604 49.8113 40.7604 51.6029C40.7604 53.3945 39.3364 54.7924 37.5871 54.7924H37.5915Z" fill="white"/>
<path d="M9.79235 41.6181C10.7241 42.5426 11.7877 43.3477 12.8294 43.8697L12.9393 43.9272L14.7325 41.7906L14.5611 41.6933C12.8558 40.7643 11.5196 39.592 10.6494 38.1101C9.78356 36.6547 9.33965 34.956 9.33965 32.9344V31.0322H6.1312V32.7309C6.1312 34.9251 5.63455 36.6503 4.71158 38.1632C3.67433 39.8353 2.14043 41.1846 0.175805 42.432L0.00439453 42.5382L1.95583 44.5687L2.06131 44.5067C3.21723 43.8697 4.44787 42.8921 5.52028 41.8039C6.44765 40.8528 7.25196 39.8265 7.73543 38.8577C8.20571 39.8044 8.9309 40.7732 9.79674 41.6048L9.79235 41.6181Z" fill="white"/>
<path d="M6.32458 56.0926H19.7649V46.8516H6.32458V56.0926ZM9.33964 49.4615H16.7366V53.4871H9.33964V49.4615Z" fill="white"/>
<path d="M19.8133 30.4883H16.829V45.7942H19.8133V39.0216H23.3162V36.301H19.8133V30.4883Z" fill="white"/>
<path d="M96.0336 42.4012C97.0137 43.2594 98.1389 43.9804 99.1937 44.4449L99.3036 44.498L100.917 42.2994L100.745 42.2154C99.2069 41.4191 97.8312 40.4371 96.8467 39.2427C95.8402 38.0173 95.2425 36.5442 95.2425 34.7659V34.2439H99.6859V31.6074H87.6125V34.2439H92.056V34.8765C92.056 36.4912 91.5198 37.9996 90.6408 39.3046C89.6035 40.8706 88.0872 42.1358 86.6192 42.9497L86.4258 43.0559L88.408 45.1218L88.5179 45.0687C89.5903 44.4582 90.7682 43.5337 91.7791 42.4985C92.5878 41.6447 93.313 40.7423 93.7569 39.8443C94.2931 40.7158 95.115 41.5917 96.0336 42.4056V42.4012Z" fill="white"/>
<path d="M117.649 49.5236H128.514V56.0927H131.533V46.9092H117.649V49.5236Z" fill="white"/>
<path d="M125.147 38.9996C125.147 37.553 124.505 36.2215 123.547 35.2041H126.531V32.5985H120.835V29.7275H117.6V32.5985H111.768V35.2041H114.814C113.887 36.2215 113.236 37.5398 113.236 38.9996C113.236 42.2244 115.878 44.8477 119.183 44.8565C122.488 44.8477 125.147 42.2244 125.151 38.9996H125.147ZM116.115 38.8801C116.115 37.093 117.614 35.5801 119.178 35.5801C120.743 35.5801 122.237 37.1018 122.242 38.8801C122.242 40.6363 120.743 42.1536 119.178 42.1581C117.609 42.1536 116.115 40.6363 116.115 38.8801Z" fill="white"/>
<path d="M131.533 30.4883H128.549V45.8473H131.533V39.9859H135.04V37.2698H131.533V30.4883Z" fill="white"/>
<path d="M106.217 30.4883H103.228V45.8473H106.217V39.0216H109.72V36.301H106.217V30.4883Z" fill="white"/>
<path d="M174.135 42.0699H164.035V34.3285H171.731V31.6035H161.011V44.7153H174.135V42.0699Z" fill="white"/>
<path d="M41.3274 35.0447H36.629V37.7387H41.3274V46.3295H44.3161V30.4883H41.3274V35.0447Z" fill="white"/>
<path d="M33.7326 42.0167C34.6644 42.9412 35.75 43.7463 36.796 44.2904L36.9103 44.3568L38.7079 42.2202L38.5321 42.1184C36.8268 41.2248 35.517 40.0526 34.6424 38.5927C33.7502 37.1462 33.3063 35.3856 33.3063 33.3595V31.0371H30.089V33.1693C30.089 35.3635 29.6012 37.0843 28.6958 38.5706C27.6585 40.2737 26.1026 41.6274 24.1336 42.8704L23.9666 42.9766L25.9224 45.0159L26.0191 44.954C27.1795 44.317 28.3793 43.3924 29.4473 42.3352C30.4099 41.3664 31.2186 40.318 31.702 39.3005C32.1635 40.2207 32.8711 41.1673 33.7238 42.0167H33.7326Z" fill="white"/>
<path d="M99.8046 45.6885C96.4731 45.6929 93.7305 48.3161 93.7261 51.5985C93.7305 54.8499 96.4731 57.4776 99.8046 57.4864C103.162 57.4731 105.887 54.8499 105.887 51.5985C105.887 48.3471 103.162 45.6929 99.8046 45.6885ZM99.7167 54.7924C97.9806 54.7924 96.6577 53.3591 96.6577 51.6029C96.6577 49.8467 98.0597 48.3825 99.8046 48.3825C101.549 48.3825 102.89 49.8113 102.894 51.6029C102.89 53.3591 101.466 54.7924 99.7167 54.7924Z" fill="white"/>
<path d="M168.426 47.9355H165.402V56.0928H179.537V53.4032H168.426V47.9355Z" fill="white"/>
<path d="M179.466 37.5839V30.4883H176.482V49.373H179.466V40.2956H183V37.5839H179.466Z" fill="white"/>
<path d="M154.186 37.4069H151.672V30.9218H148.85V55.4334H151.672V40.3575H154.186V56.0925H157.117V30.4883H154.186V37.4069Z" fill="white"/>
<path d="M144.701 40.8042C144.028 39.3223 143.751 37.6723 143.751 35.6374V34.6686H147.14V31.9082H137.286V34.6686H140.785V35.686C140.785 37.6103 140.534 39.1807 139.928 40.6405C139.229 42.3127 138.051 43.8256 136.174 45.4358L136.042 45.5597L137.897 47.4088L138.011 47.3203C138.943 46.6258 139.919 45.6216 140.736 44.5865C141.422 43.7106 142.002 42.8081 142.371 42.0119C142.745 42.786 143.33 43.6752 144.011 44.5068C144.806 45.48 145.699 46.4046 146.556 46.9531L146.674 47.0328L148.235 45.1527L148.111 45.0377C146.433 43.5646 145.391 42.2508 144.705 40.7998L144.701 40.8042Z" fill="white"/>
<path d="M8.4914 64.9267C7.05858 64.4135 6.79048 64.0685 6.79048 63.4757C6.79048 62.8829 7.20362 62.414 8.18374 62.414C8.90014 62.414 9.38361 62.6485 9.90223 63.082L10.4121 62.4494C9.80993 61.9672 9.19462 61.6797 8.23648 61.6797C6.89596 61.6797 5.99057 62.3654 5.99057 63.5244C5.99057 64.5639 6.51798 65.0638 8.06067 65.6256C9.37042 66.0989 9.77038 66.4838 9.77038 67.1474C9.77038 67.9126 9.17704 68.3816 8.22329 68.3816C7.48491 68.3816 6.8608 68.0409 6.3202 67.5189L5.78839 68.1161C6.35097 68.6868 7.2256 69.1115 8.19692 69.1115C9.69127 69.1115 10.5703 68.2356 10.5703 67.1075C10.5703 65.9795 10.0824 65.4973 8.49579 64.9178L8.4914 64.9267Z" fill="white"/>
<path d="M13.8183 63.4893C13.1195 63.4893 12.4822 63.6618 12.0119 63.9184L12.302 64.5465C12.7415 64.2899 13.203 64.1307 13.7656 64.1307C14.5479 64.1307 14.9347 64.52 14.9347 65.3295V65.9709C14.6182 65.794 14.1348 65.6569 13.5898 65.6569C12.5261 65.6569 11.5328 66.1744 11.5328 67.3909C11.5328 68.6959 12.4163 69.1162 13.2513 69.1162C14.0205 69.1162 14.5479 68.7579 14.9303 68.3465V69.0056H15.695V65.2366C15.695 63.9803 14.9698 63.4893 13.8183 63.4893ZM14.9303 67.6785C14.605 68.1297 14.0776 68.4924 13.3832 68.4924C12.7283 68.4924 12.2844 68.1385 12.2844 67.3334C12.2844 66.6566 12.7591 66.2673 13.5458 66.2673C14.2007 66.2673 14.5787 66.3868 14.9259 66.5814V67.6741L14.9303 67.6785Z" fill="white"/>
<path d="M23.4084 65.8426V69.0056H24.1776V65.7099C24.1776 64.1307 23.4963 63.4893 22.3976 63.4893C21.5273 63.4893 21.0878 63.8962 20.7714 64.4138C20.5164 63.8962 20.055 63.4893 19.299 63.4893C18.6617 63.4893 18.209 63.7945 17.9365 64.2634V63.6043H17.163V69.01H17.9365V65.8471C17.9365 64.6483 18.398 64.1572 19.1364 64.1572C19.8748 64.1572 20.2923 64.6084 20.2923 65.8471V69.01H21.0614V65.8471C21.0614 64.6483 21.5273 64.1572 22.2569 64.1572C23.0349 64.1572 23.4128 64.6084 23.4128 65.8471L23.4084 65.8426Z" fill="white"/>
<path d="M27.2542 65.8692C26.3444 65.4534 26.0719 65.272 26.0719 64.8164C26.0719 64.4271 26.3971 64.144 26.9641 64.144C27.5311 64.144 27.8827 64.2988 28.3002 64.6306L28.731 64.0599C28.3222 63.7193 27.7508 63.4893 27.0081 63.4893C26.0367 63.4893 25.3335 64.0422 25.3335 64.865C25.3335 65.7321 25.7818 66.0594 26.8586 66.5239C27.808 66.9353 28.1288 67.183 28.1288 67.6254C28.1288 68.1518 27.7816 68.4615 27.0432 68.4615C26.5114 68.4615 26.0104 68.2403 25.5797 67.8643L25.127 68.4305C25.6412 68.8463 26.2829 69.1206 27.0213 69.1206C27.953 69.1206 28.8628 68.6605 28.8628 67.5988C28.8628 66.6301 28.2695 66.3337 27.2542 65.8736V65.8692Z" fill="white"/>
<path d="M33.3502 66.7577C33.3502 67.9432 32.7613 68.4431 32.0229 68.4431C31.1571 68.4431 30.7483 67.9211 30.7483 66.7577V63.5992H29.9836V66.8904C29.9836 68.4431 30.7264 69.1111 31.8603 69.1111C32.5415 69.1111 33.0382 68.7926 33.3459 68.3413V69.0005H34.115V63.5947H33.3459V66.7532L33.3502 66.7577Z" fill="white"/>
<path d="M39.543 69.0056V65.7099C39.543 64.1528 38.7958 63.4893 37.6575 63.4893C36.985 63.4893 36.484 63.8033 36.1807 64.2634V63.6043H35.4072V69.01H36.1807V65.8471C36.1807 64.666 36.7565 64.1572 37.508 64.1572C38.3651 64.1572 38.7782 64.6837 38.7782 65.8471V69.01H39.5474L39.543 69.0056Z" fill="white"/>
<path d="M41.9603 70.4079L42.2065 70.9962C44.2018 70.9299 44.927 70.1513 44.927 68.5234V63.5998H44.1623V64.2059C43.7843 63.7724 43.3272 63.4893 42.6504 63.4893C41.5208 63.4893 40.6198 64.4713 40.6198 66.3912C40.6198 68.3111 41.4725 69.1162 42.5493 69.1162C43.2745 69.1162 43.7887 68.7579 44.1667 68.3465V68.6251C44.1667 69.8815 43.7579 70.3548 41.9647 70.4079H41.9603ZM42.7383 68.4482C41.89 68.4482 41.3758 67.7404 41.3758 66.3823C41.3758 64.9269 41.8153 64.1572 42.7075 64.1572C43.3448 64.1572 43.8634 64.52 44.1579 64.9668V67.6696C43.7799 68.1474 43.3096 68.4482 42.7339 68.4482H42.7383Z" fill="white"/>
<path d="M53.3965 65.3516C53.3965 62.8787 52.012 61.7949 50.1309 61.7949H48.2366V69.0055H49.9858C51.9021 69.0055 53.3965 67.9659 53.3965 65.3471V65.3516ZM49.0365 62.5248H50.0693C51.7175 62.5248 52.5965 63.5378 52.5965 65.3781C52.5965 67.4528 51.634 68.2756 50.0869 68.2756H49.0321V62.5248H49.0365Z" fill="white"/>
<path d="M55.4446 64.2722V63.6042H54.6754V69.01H55.4446V65.8382C55.4446 64.803 55.8621 64.2058 56.6137 64.2058C56.9697 64.2058 57.207 64.2855 57.418 64.4093L57.6114 63.6308C57.4312 63.5467 57.1718 63.498 56.7763 63.498C56.2005 63.498 55.6863 63.8431 55.449 64.281L55.4446 64.2722Z" fill="white"/>
<path d="M62.2043 68.4924L61.8483 67.9351C61.356 68.2668 60.9868 68.4482 60.3583 68.4482C59.4837 68.4482 58.9387 67.7183 58.864 66.5681H62.446C62.4724 66.4398 62.4812 66.3293 62.4812 66.1435C62.4812 64.5996 61.7208 63.4893 60.3188 63.4893C59.0398 63.4893 58.0992 64.5554 58.0992 66.2717C58.0992 68.3995 59.2947 69.1162 60.2792 69.1162C61.0879 69.1162 61.5626 68.8994 62.2087 68.4924H62.2043ZM60.31 64.1528C61.2506 64.1528 61.7032 64.8827 61.7648 65.9356H58.864C58.9519 64.7279 59.5101 64.1528 60.31 64.1528Z" fill="white"/>
<path d="M65.0347 69.1162C65.8039 69.1162 66.3357 68.7579 66.7137 68.3465V69.0056H67.4828V65.2366C67.4828 63.9803 66.7576 63.4893 65.5973 63.4893C64.8985 63.4893 64.2656 63.6618 63.7953 63.9184L64.0854 64.5465C64.5249 64.2899 64.9864 64.1307 65.5489 64.1307C66.3357 64.1307 66.7137 64.52 66.7137 65.3295V65.9709C66.4016 65.794 65.9181 65.6569 65.3819 65.6569C64.3139 65.6569 63.3162 66.1744 63.3162 67.3909C63.3162 68.6959 64.1996 69.1162 65.0347 69.1162ZM65.3336 66.2717C65.9841 66.2717 66.3664 66.3912 66.7137 66.5858V67.6785C66.3884 68.1297 65.8654 68.4924 65.1754 68.4924C64.4853 68.4924 64.0766 68.1385 64.0766 67.3334C64.0766 66.6566 64.5513 66.2673 65.338 66.2673L65.3336 66.2717Z" fill="white"/>
<path d="M75.1919 65.8426V69.0056H75.9566V65.7099C75.9566 64.1307 75.2754 63.4893 74.1766 63.4893C73.3064 63.4893 72.8669 63.8962 72.5504 64.4138C72.2955 63.8962 71.8384 63.4893 71.078 63.4893C70.4408 63.4893 69.9924 63.7945 69.7156 64.2634V63.6043H68.9508V69.01H69.7156V65.8471C69.7156 64.6483 70.177 64.1572 70.9154 64.1572C71.6538 64.1572 72.0713 64.6084 72.0713 65.8471V69.01H72.8361V65.8471C72.8361 64.6483 73.3064 64.1572 74.036 64.1572C74.8095 64.1572 75.1919 64.6084 75.1919 65.8471V65.8426Z" fill="white"/>
<path d="M81.701 64.9271C80.2682 64.414 80.0045 64.0734 80.0045 63.4762C80.0045 62.879 80.4133 62.4145 81.3934 62.4145C82.1142 62.4145 82.5933 62.6489 83.1119 63.0825L83.6217 62.4543C83.0196 61.9721 82.4043 61.6846 81.4461 61.6846C80.1056 61.6846 79.2046 62.3658 79.2046 63.5248C79.2046 64.5644 79.7232 65.0687 81.2747 65.6216C82.5845 66.0994 82.9844 66.4798 82.9844 67.1478C82.9844 67.9087 82.3911 68.382 81.4373 68.382C80.699 68.382 80.0748 68.037 79.5299 67.515L78.998 68.1077C79.5606 68.6873 80.4353 69.1075 81.4022 69.1075C82.8921 69.1075 83.7756 68.2316 83.7756 67.1036C83.7756 65.9755 83.2877 65.4934 81.701 64.9139V64.9271Z" fill="white"/>
<path d="M87.0367 64.1572C87.5773 64.1572 87.9377 64.3519 88.3245 64.7058L88.786 64.1263C88.3641 63.7547 87.8103 63.4893 87.0851 63.4893C85.9599 63.4893 84.7733 64.3298 84.7733 66.3337C84.7733 68.2182 85.8501 69.1206 87.0367 69.1206C87.7883 69.1206 88.3113 68.8331 88.764 68.3686L88.3025 67.8775C87.9377 68.2359 87.5861 68.4526 87.0675 68.4526C86.1138 68.4526 85.5512 67.5989 85.5512 66.2673C85.5512 64.9358 86.2017 64.1572 87.0411 64.1572H87.0367Z" fill="white"/>
<path d="M92.0736 63.4892C91.4011 63.4892 90.8957 63.8033 90.588 64.2633V61.7197H89.8232V69.0099H90.588V65.847C90.588 64.6615 91.1769 64.1572 91.9197 64.1572C92.7812 64.1572 93.1855 64.6792 93.1855 65.847V69.0099H93.9547V65.7099C93.9547 64.1572 93.2075 63.4892 92.0692 63.4892H92.0736Z" fill="white"/>
<path d="M97.3829 63.4893C96.0775 63.4893 95.0315 64.4713 95.0315 66.3116C95.0315 68.1518 96.0336 69.1206 97.3433 69.1206C98.6531 69.1206 99.6991 68.1032 99.6991 66.2673C99.6991 64.4315 98.6882 63.4893 97.3829 63.4893ZM97.3697 68.4526C96.4379 68.4526 95.8094 67.7139 95.8094 66.2894C95.8094 64.865 96.4379 64.1572 97.3697 64.1572C98.3015 64.1572 98.93 64.8694 98.93 66.2894C98.93 67.7094 98.2971 68.4526 97.3697 68.4526Z" fill="white"/>
<path d="M101.629 61.7197H100.859V69.0099H101.629V61.7197Z" fill="white"/>
<path d="M105.136 63.4893C104.441 63.4893 103.804 63.6662 103.338 63.9228L103.624 64.5554C104.063 64.2944 104.525 64.1395 105.088 64.1395C105.874 64.1395 106.252 64.5332 106.252 65.3295V65.9754C105.936 65.794 105.452 65.6613 104.916 65.6613C103.848 65.6613 102.855 66.1789 102.855 67.3954C102.855 68.7048 103.734 69.1206 104.573 69.1206C105.342 69.1206 105.874 68.7667 106.252 68.3509V69.01H107.021V65.241C107.021 63.9803 106.296 63.4893 105.136 63.4893ZM106.252 67.6785C105.927 68.1297 105.4 68.4924 104.71 68.4924C104.059 68.4924 103.615 68.1385 103.615 67.3379C103.615 66.6566 104.09 66.2762 104.877 66.2762C105.531 66.2762 105.909 66.3912 106.257 66.5858V67.6785H106.252Z" fill="white"/>
<path d="M109.254 64.2722V63.5998H108.485V69.01H109.254V65.8382C109.254 64.8075 109.672 64.2015 110.419 64.2015C110.779 64.2015 111.012 64.2811 111.228 64.405L111.421 63.622C111.241 63.5423 110.981 63.4893 110.586 63.4893C110.01 63.4893 109.496 63.8343 109.254 64.2722Z" fill="white"/>
<path d="M114.37 65.8687C113.456 65.4529 113.183 65.2671 113.183 64.8115C113.183 64.4222 113.513 64.1391 114.076 64.1391C114.638 64.1391 114.999 64.2983 115.416 64.6257L115.847 64.0595C115.434 63.7188 114.867 63.4844 114.128 63.4844C113.153 63.4844 112.449 64.0373 112.449 64.8646C112.449 65.7316 112.902 66.059 113.979 66.519C114.928 66.9304 115.249 67.1781 115.249 67.6205C115.249 68.1514 114.897 68.4566 114.168 68.4566C113.632 68.4566 113.131 68.2354 112.7 67.8594L112.252 68.4256C112.761 68.8414 113.408 69.1157 114.146 69.1157C115.073 69.1157 115.987 68.6557 115.987 67.594C115.987 66.6208 115.394 66.3288 114.379 65.8643L114.37 65.8687Z" fill="white"/>
<path d="M119.482 63.4892C118.805 63.4892 118.304 63.8033 117.996 64.2633V61.7197H117.231V69.0099H117.996V65.847C117.996 64.6615 118.581 64.1572 119.328 64.1572C120.185 64.1572 120.594 64.6792 120.594 65.847V69.0099H121.363V65.7099C121.363 64.1572 120.616 63.4892 119.482 63.4892Z" fill="white"/>
<path d="M123.644 63.5996H122.879V69.0098H123.644V63.5996Z" fill="white"/>
<path d="M123.279 61.5293C122.963 61.5293 122.716 61.777 122.716 62.0911C122.716 62.3875 122.963 62.6352 123.279 62.6352C123.56 62.6352 123.811 62.3875 123.811 62.0911C123.811 61.777 123.56 61.5293 123.279 61.5293Z" fill="white"/>
<path d="M127.577 63.4893C126.852 63.4893 126.338 63.8476 125.96 64.2634V63.6043H125.195V71.0007H125.96V68.404C126.338 68.8331 126.799 69.1206 127.476 69.1206C128.601 69.1206 129.502 68.1297 129.502 66.2187C129.502 64.3076 128.65 63.4893 127.577 63.4893ZM127.415 68.4526C126.782 68.4526 126.259 68.0899 125.96 67.6387V64.9402C126.338 64.4713 126.813 64.1572 127.384 64.1572C128.237 64.1572 128.751 64.8694 128.751 66.2275C128.751 67.6785 128.311 68.4526 127.415 68.4526Z" fill="white"/>
<path d="M133.568 62.5287H136.979V61.7988H132.768V69.0094H133.568V65.6474H135.533V64.9219H133.568V62.5287Z" fill="white"/>
<path d="M139.312 63.4893C138.007 63.4893 136.957 64.4713 136.957 66.3116C136.957 68.1518 137.963 69.1206 139.268 69.1206C140.574 69.1206 141.624 68.1032 141.624 66.2673C141.624 64.4315 140.622 63.4893 139.312 63.4893ZM139.29 68.4526C138.359 68.4526 137.735 67.7139 137.735 66.2894C137.735 64.865 138.359 64.1572 139.29 64.1572C140.222 64.1572 140.859 64.8694 140.859 66.2894C140.859 67.7094 140.227 68.4526 139.29 68.4526Z" fill="white"/>
<path d="M145.866 66.7581C145.866 67.9437 145.285 68.448 144.538 68.448C143.677 68.448 143.268 67.926 143.268 66.7581V63.5996H142.499V66.8952C142.499 68.4524 143.246 69.1204 144.384 69.1204C145.052 69.1204 145.554 68.8063 145.861 68.3506V69.0098H146.63V63.5996H145.861V66.7581H145.866Z" fill="white"/>
<path d="M150.173 63.4893C149.5 63.4893 148.999 63.8033 148.687 64.2634V63.6043H147.918V69.0144H148.687V65.8515C148.687 64.666 149.272 64.1617 150.019 64.1617C150.88 64.1617 151.289 64.6836 151.289 65.8515V69.0144H152.054V65.7144C152.054 64.1617 151.307 63.4937 150.168 63.4937L150.173 63.4893Z" fill="white"/>
<path d="M156.678 64.2103C156.3 63.7767 155.838 63.4892 155.161 63.4892C154.036 63.4892 153.135 64.4712 153.135 66.3955C153.135 68.3198 153.983 69.1205 155.06 69.1205C155.785 69.1205 156.295 68.7666 156.678 68.3508V69.0099H157.447V61.7197H156.678V64.2147V64.2103ZM156.678 67.6696C156.3 68.1429 155.825 68.4526 155.254 68.4526C154.405 68.4526 153.891 67.7448 153.891 66.3823C153.891 64.9269 154.331 64.1572 155.223 64.1572C155.86 64.1572 156.374 64.5155 156.678 64.9711V67.6696Z" fill="white"/>
<path d="M160.704 63.4893C160.005 63.4893 159.372 63.6662 158.901 63.9228L159.187 64.5554C159.631 64.2944 160.093 64.1395 160.651 64.1395C161.437 64.1395 161.815 64.5332 161.815 65.3295V65.9754C161.499 65.794 161.016 65.6613 160.475 65.6613C159.416 65.6613 158.418 66.1789 158.418 67.3954C158.418 68.7048 159.301 69.1206 160.141 69.1206C160.91 69.1206 161.437 68.7667 161.815 68.3509V69.01H162.585V65.241C162.585 63.9803 161.859 63.4893 160.704 63.4893ZM161.815 67.6785C161.49 68.1297 160.967 68.4924 160.268 68.4924C159.618 68.4924 159.178 68.1385 159.178 67.3379C159.178 66.6566 159.649 66.2762 160.435 66.2762C161.09 66.2762 161.468 66.3912 161.815 66.5858V67.6785Z" fill="white"/>
<path d="M165.033 61.7197H164.264V63.6042H163.6V64.2545H164.264V67.904C164.264 68.7976 164.624 69.125 165.292 69.125C165.696 69.125 165.982 69.0674 166.281 68.9392L166.334 68.2712C166.088 68.3729 165.885 68.426 165.573 68.426C165.165 68.426 165.033 68.2623 165.033 67.7757V64.2545H166.364V63.6042H165.033V61.7197Z" fill="white"/>
<path d="M168.105 61.5293C167.788 61.5293 167.538 61.777 167.538 62.0911C167.538 62.3875 167.788 62.6352 168.105 62.6352C168.395 62.6352 168.641 62.3875 168.641 62.0911C168.641 61.777 168.395 61.5293 168.105 61.5293Z" fill="white"/>
<path d="M168.47 63.5996H167.705V69.0098H168.47V63.5996Z" fill="white"/>
<path d="M171.986 63.4893C170.68 63.4893 169.634 64.4713 169.634 66.3116C169.634 68.1518 170.636 69.1206 171.946 69.1206C173.256 69.1206 174.298 68.1032 174.298 66.2673C174.298 64.4315 173.296 63.4893 171.986 63.4893ZM171.959 68.4526C171.032 68.4526 170.408 67.7139 170.408 66.2894C170.408 64.865 171.032 64.1572 171.959 64.1572C172.887 64.1572 173.528 64.8694 173.528 66.2894C173.528 67.7094 172.896 68.4526 171.959 68.4526Z" fill="white"/>
<path d="M177.656 63.4893C176.979 63.4893 176.478 63.8033 176.17 64.2634V63.6043H175.401V69.0144H176.17V65.8515C176.17 64.666 176.755 64.1617 177.502 64.1617C178.368 64.1617 178.772 64.6836 178.772 65.8515V69.0144H179.537V65.7144C179.537 64.1617 178.789 63.4937 177.656 63.4937V63.4893Z" fill="white"/>
<path d="M98.3499 12.0014L92.4472 9.54187L98.3499 7.08231L97.2994 4.53427L91.3968 6.99383L93.8449 1.05283L91.3133 0L88.8696 5.941L86.4215 0L83.8943 1.05283L86.338 6.99383L80.4353 4.53427L79.3893 7.08231L85.2875 9.54187L79.3893 12.0014L80.4353 14.5495L86.338 12.0855L83.8943 18.0265L86.4259 19.0837L88.8696 13.1427L91.3133 19.0837L93.8449 18.0265L91.3968 12.0855L97.2994 14.5495L98.3499 12.0014Z" fill="white"/>
<path d="M60.143 28.5857H64.0722V18.0264H50.6451V21.583H60.143V28.5857Z" fill="white"/>
<path d="M75.4644 28.5857H79.3893V18.0264H65.9622V21.583H75.4644V28.5857Z" fill="white"/>
<path d="M50.0122 34.0449H75.4644V39.4816H79.3893V30.4883H50.0122V34.0449Z" fill="white"/>
<path d="M59.5101 56.092H79.3848V41.3125H59.5101V56.092ZM63.4393 44.8691H75.4644V52.5354H63.4393V44.8691Z" fill="white"/>
</g>
<defs>
<clipPath id="clip0_53_397">
<rect width="183" height="71" fill="white"/>
</clipPath>
</defs>
</svg>
