<svg width="103" height="39" viewBox="0 0 103 39" fill="none" xmlns="http://www.w3.org/2000/svg">
<g clip-path="url(#clip0_225_2)">
<path d="M21.2051 25.0967C19.33 25.0991 17.7864 26.54 17.7864 28.343C17.7864 30.146 19.33 31.5724 21.2051 31.5772C23.0975 31.57 24.6288 30.129 24.6288 28.343C24.6288 26.5571 23.0975 25.0991 21.2051 25.0967ZM21.1581 30.0974C20.1785 30.0974 19.4364 29.3101 19.4364 28.3455C19.4364 27.3808 20.228 26.5765 21.2026 26.5765C22.1773 26.5765 22.9417 27.3614 22.9417 28.3455C22.9417 29.3296 22.1402 30.0974 21.1556 30.0974H21.1581Z" fill="#004289"/>
<path d="M5.51151 22.8607C6.03595 23.3685 6.6346 23.8108 7.22088 24.0975L7.28272 24.1291L8.29202 22.9554L8.19554 22.902C7.23572 22.3917 6.4837 21.7478 5.99389 20.9337C5.50656 20.1343 5.25671 19.2012 5.25671 18.0908V17.0459H3.45086V17.979C3.45086 19.1842 3.17133 20.1319 2.65184 20.9629C2.06803 21.8814 1.20469 22.6225 0.0989181 23.3078L0.00244141 23.3661L1.10079 24.4814L1.16016 24.4474C1.81076 24.0975 2.50341 23.5605 3.10701 22.9627C3.62898 22.4403 4.08167 21.8766 4.35379 21.3444C4.61848 21.8644 5.02665 22.3966 5.51398 22.8534L5.51151 22.8607Z" fill="#004289"/>
<path d="M3.55957 30.8114H11.1243V25.7354H3.55957V30.8114ZM5.25657 27.169H9.41991V29.3802H5.25657V27.169Z" fill="#004289"/>
<path d="M11.1516 16.7471H9.47192V25.1545H11.1516V21.4344H13.1232V19.94H11.1516V16.7471Z" fill="#004289"/>
<path d="M54.0517 23.2903C54.6033 23.7617 55.2366 24.1578 55.8303 24.4129L55.8922 24.4421L56.8 23.2344L56.7036 23.1882C55.8377 22.7509 55.0635 22.2114 54.5093 21.5553C53.9428 20.8823 53.6064 20.0731 53.6064 19.0963V18.8096H56.1074V17.3613H49.312V18.8096H51.8129V19.157C51.8129 20.0439 51.5111 20.8725 51.0164 21.5894C50.4326 22.4496 49.5791 23.1445 48.7529 23.5916L48.644 23.6499L49.7597 24.7847L49.8216 24.7555C50.4251 24.4202 51.0881 23.9124 51.6571 23.3438C52.1123 22.8748 52.5204 22.3791 52.7703 21.8858C53.0721 22.3645 53.5347 22.8456 54.0517 23.2927V23.2903Z" fill="#004289"/>
<path d="M66.2175 27.2027H72.3327V30.8111H74.0321V25.7666H66.2175V27.2027Z" fill="#004289"/>
<path d="M70.4378 21.4222C70.4378 20.6276 70.0767 19.8962 69.5374 19.3373H71.2171V17.9061H68.0111V16.3291H66.1904V17.9061H62.9077V19.3373H64.622C64.1001 19.8962 63.734 20.6203 63.734 21.4222C63.734 23.1936 65.2207 24.6345 67.081 24.6394C68.9412 24.6345 70.4378 23.1936 70.4403 21.4222H70.4378ZM65.3543 21.3566C65.3543 20.3749 66.1978 19.5439 67.0785 19.5439C67.9591 19.5439 68.8002 20.3798 68.8027 21.3566C68.8027 22.3213 67.9591 23.1547 67.0785 23.1571C66.1953 23.1547 65.3543 22.3213 65.3543 21.3566Z" fill="#004289"/>
<path d="M74.0322 16.7471H72.3525V25.1837H74.0322V21.9641H76.0063V20.4721H74.0322V16.7471Z" fill="#004289"/>
<path d="M59.7832 16.7471H58.1011V25.1837H59.7832V21.4344H61.7548V19.94H59.7832V16.7471Z" fill="#004289"/>
<path d="M98.0104 23.1085H92.3257V18.8562H96.6573V17.3594H90.6238V24.5616H98.0104V23.1085Z" fill="#004289"/>
<path d="M23.2607 19.2499H20.6162V20.7297H23.2607V25.4486H24.9428V16.7471H23.2607V19.2499Z" fill="#004289"/>
<path d="M18.986 23.0799C19.5104 23.5877 20.1214 24.0299 20.7102 24.3288L20.7745 24.3653L21.7863 23.1916L21.6873 23.1357C20.7275 22.6449 19.9903 22.001 19.498 21.1991C18.9959 20.4045 18.746 19.4374 18.746 18.3245V17.0488H16.9352V18.22C16.9352 19.4253 16.6606 20.3705 16.151 21.187C15.5672 22.1225 14.6915 22.866 13.5833 23.5488L13.4893 23.6071L14.5901 24.7273L14.6445 24.6933C15.2976 24.3434 15.9729 23.8356 16.574 23.2548C17.1158 22.7227 17.571 22.1468 17.8431 21.5879C18.1028 22.0933 18.5011 22.6133 18.981 23.0799H18.986Z" fill="#004289"/>
<path d="M56.1741 25.0967C54.299 25.0991 52.7554 26.54 52.7529 28.343C52.7554 30.129 54.299 31.5724 56.1741 31.5772C58.0641 31.57 59.5978 30.129 59.5978 28.343C59.5978 26.5571 58.0641 25.0991 56.1741 25.0967ZM56.1247 30.0974C55.1475 30.0974 54.4029 29.3101 54.4029 28.3455C54.4029 27.3808 55.1921 26.5765 56.1741 26.5765C57.1562 26.5765 57.9107 27.3614 57.9132 28.3455C57.9107 29.3101 57.1092 30.0974 56.1247 30.0974Z" fill="#004289"/>
<path d="M94.7969 26.3311H93.095V30.8118H101.051V29.3344H94.7969V26.3311Z" fill="#004289"/>
<path d="M101.011 20.6446V16.7471H99.3313V27.1203H101.011V22.1342H103V20.6446H101.011Z" fill="#004289"/>
<path d="M86.782 20.5474H85.367V16.9852H83.7788V30.4493H85.367V22.1682H86.782V30.8114H88.432V16.7471H86.782V20.5474Z" fill="#004289"/>
<path d="M81.4436 22.4139C81.0651 21.5999 80.9093 20.6935 80.9093 19.5758V19.0436H82.8166V17.5273H77.2704V19.0436H79.2395V19.6025C79.2395 20.6595 79.0985 21.5221 78.7571 22.324C78.3638 23.2425 77.7008 24.0735 76.6445 24.958L76.5703 25.026L77.6142 26.0417L77.6786 25.9931C78.203 25.6116 78.7522 25.0601 79.2123 24.4915C79.5982 24.0103 79.9247 23.5146 80.1325 23.0773C80.3428 23.5025 80.6718 23.9909 81.0552 24.4477C81.503 24.9823 82.0052 25.4901 82.4876 25.7915L82.5543 25.8352L83.4325 24.8025L83.3633 24.7393C82.4183 23.9301 81.832 23.2085 81.4461 22.4115L81.4436 22.4139Z" fill="#004289"/>
<path d="M4.77942 35.6644C3.97297 35.3825 3.82207 35.193 3.82207 34.8674C3.82207 34.5418 4.05461 34.2842 4.60626 34.2842C5.00948 34.2842 5.28159 34.413 5.5735 34.6511L5.86045 34.3037C5.52155 34.0388 5.17522 33.8809 4.63594 33.8809C3.88144 33.8809 3.37185 34.2575 3.37185 34.8941C3.37185 35.4652 3.6687 35.7397 4.53699 36.0483C5.27417 36.3083 5.49928 36.5197 5.49928 36.8842C5.49928 37.3046 5.16533 37.5622 4.62852 37.5622C4.21293 37.5622 3.86165 37.3751 3.55738 37.0883L3.25806 37.4164C3.5747 37.7298 4.06698 37.9631 4.61368 37.9631C5.45476 37.9631 5.94951 37.482 5.94951 36.8624C5.94951 36.2427 5.67492 35.9779 4.78189 35.6596L4.77942 35.6644Z" fill="#004289"/>
<path d="M7.77757 34.874C7.38424 34.874 7.02554 34.9688 6.76085 35.1097L6.92412 35.4548C7.1715 35.3138 7.43124 35.2264 7.74788 35.2264C8.18821 35.2264 8.4059 35.4402 8.4059 35.8849V36.2372C8.22779 36.14 7.95568 36.0647 7.64893 36.0647C7.05028 36.0647 6.49121 36.349 6.49121 37.0172C6.49121 37.734 6.98844 37.9649 7.45845 37.9649C7.89136 37.9649 8.18821 37.768 8.40343 37.5421V37.9041H8.83386V35.8338C8.83386 35.1437 8.42569 34.874 7.77757 34.874ZM8.40343 37.1751C8.22037 37.423 7.92352 37.6222 7.53266 37.6222C7.16407 37.6222 6.91422 37.4279 6.91422 36.9856C6.91422 36.6138 7.18139 36.4 7.62419 36.4C7.99278 36.4 8.20553 36.4656 8.40095 36.5725V37.1727L8.40343 37.1751Z" fill="#004289"/>
<path d="M13.1754 36.1667V37.9041H13.6083V36.0938C13.6083 35.2264 13.2248 34.874 12.6064 34.874C12.1166 34.874 11.8692 35.0976 11.6911 35.3819C11.5476 35.0976 11.2879 34.874 10.8624 34.874C10.5037 34.874 10.2489 35.0417 10.0955 35.2993V34.9372H9.66016V37.9065H10.0955V36.1692C10.0955 35.5107 10.3553 35.2409 10.7709 35.2409C11.1865 35.2409 11.4215 35.4888 11.4215 36.1692V37.9065H11.8544V36.1692C11.8544 35.5107 12.1166 35.2409 12.5272 35.2409C12.9651 35.2409 13.1778 35.4888 13.1778 36.1692L13.1754 36.1667Z" fill="#004289"/>
<path d="M15.3399 36.1813C14.8278 35.9529 14.6744 35.8533 14.6744 35.603C14.6744 35.3892 14.8575 35.2336 15.1766 35.2336C15.4957 35.2336 15.6936 35.3187 15.9286 35.5009L16.1711 35.1875C15.941 35.0004 15.6194 34.874 15.2013 34.874C14.6546 34.874 14.2588 35.1778 14.2588 35.6297C14.2588 36.106 14.5112 36.2858 15.1172 36.5409C15.6516 36.7669 15.8322 36.903 15.8322 37.146C15.8322 37.4351 15.6367 37.6052 15.2211 37.6052C14.9218 37.6052 14.6398 37.4837 14.3974 37.2772L14.1426 37.5882C14.432 37.8166 14.7932 37.9673 15.2088 37.9673C15.7332 37.9673 16.2453 37.7146 16.2453 37.1314C16.2453 36.5993 15.9113 36.4365 15.3399 36.1837V36.1813Z" fill="#004289"/>
<path d="M18.7711 36.67C18.7711 37.3212 18.4396 37.5958 18.024 37.5958C17.5367 37.5958 17.3067 37.3091 17.3067 36.67V34.935H16.8762V36.7429C16.8762 37.5958 17.2943 37.9627 17.9325 37.9627C18.3159 37.9627 18.5955 37.7878 18.7686 37.5399V37.902H19.2016V34.9326H18.7686V36.6676L18.7711 36.67Z" fill="#004289"/>
<path d="M22.2565 37.9041V36.0938C22.2565 35.2385 21.836 34.874 21.1953 34.874C20.8168 34.874 20.5348 35.0465 20.3641 35.2993V34.9372H19.9287V37.9065H20.3641V36.1692C20.3641 35.5204 20.6882 35.2409 21.1112 35.2409C21.5936 35.2409 21.8261 35.5301 21.8261 36.1692V37.9065H22.259L22.2565 37.9041Z" fill="#004289"/>
<path d="M23.617 38.6744L23.7556 38.9976C24.8787 38.9611 25.2868 38.5335 25.2868 37.6393V34.9348H24.8564V35.2677C24.6437 35.0295 24.3864 34.874 24.0054 34.874C23.3697 34.874 22.8625 35.4135 22.8625 36.468C22.8625 37.5226 23.3425 37.9649 23.9485 37.9649C24.3567 37.9649 24.6461 37.768 24.8589 37.5421V37.6951C24.8589 38.3852 24.6288 38.6452 23.6195 38.6744H23.617ZM24.0549 37.5979C23.5775 37.5979 23.288 37.2092 23.288 36.4632C23.288 35.6637 23.5354 35.2409 24.0376 35.2409C24.3963 35.2409 24.6882 35.4402 24.8539 35.6856V37.1703C24.6412 37.4327 24.3765 37.5979 24.0524 37.5979H24.0549Z" fill="#004289"/>
<path d="M30.0539 35.897C30.0539 34.5387 29.2746 33.9434 28.2158 33.9434H27.1497V37.9041H28.1342C29.2128 37.9041 30.0539 37.3331 30.0539 35.8946V35.897ZM27.5999 34.3443H28.1812C29.1089 34.3443 29.6036 34.9007 29.6036 35.9116C29.6036 37.0512 29.0619 37.5032 28.1911 37.5032H27.5974V34.3443H27.5999Z" fill="#004289"/>
<path d="M31.2066 35.3041V34.9372H30.7737V37.9066H31.2066V36.1643C31.2066 35.5957 31.4416 35.2677 31.8646 35.2677C32.065 35.2677 32.1986 35.3114 32.3173 35.3795L32.4262 34.9518C32.3247 34.9056 32.1788 34.8789 31.9561 34.8789C31.6321 34.8789 31.3426 35.0684 31.2091 35.309L31.2066 35.3041Z" fill="#004289"/>
<path d="M35.0112 37.6222L34.8108 37.3161C34.5337 37.4983 34.3259 37.5979 33.9722 37.5979C33.4799 37.5979 33.1732 37.197 33.1311 36.5652H35.1472C35.1621 36.4948 35.167 36.434 35.167 36.332C35.167 35.4839 34.7391 34.874 33.9499 34.874C33.2301 34.874 32.7007 35.4596 32.7007 36.4024C32.7007 37.5712 33.3735 37.9649 33.9277 37.9649C34.3828 37.9649 34.65 37.8458 35.0136 37.6222H35.0112ZM33.945 35.2385C34.4744 35.2385 34.7292 35.6394 34.7638 36.2178H33.1311C33.1806 35.5544 33.4948 35.2385 33.945 35.2385Z" fill="#004289"/>
<path d="M36.6044 37.9649C37.0374 37.9649 37.3367 37.768 37.5494 37.5421V37.9041H37.9823V35.8338C37.9823 35.1437 37.5742 34.874 36.9211 34.874C36.5278 34.874 36.1715 34.9688 35.9068 35.1097L36.0701 35.4548C36.3175 35.3138 36.5772 35.2264 36.8939 35.2264C37.3367 35.2264 37.5494 35.4402 37.5494 35.8849V36.2372C37.3738 36.14 37.1017 36.0647 36.7999 36.0647C36.1988 36.0647 35.6372 36.349 35.6372 37.0172C35.6372 37.734 36.1344 37.9649 36.6044 37.9649ZM36.7727 36.4024C37.1388 36.4024 37.354 36.468 37.5494 36.575V37.1751C37.3664 37.423 37.072 37.6222 36.6836 37.6222C36.2952 37.6222 36.0652 37.4279 36.0652 36.9856C36.0652 36.6138 36.3323 36.4 36.7751 36.4L36.7727 36.4024Z" fill="#004289"/>
<path d="M42.3213 36.1667V37.9041H42.7518V36.0938C42.7518 35.2264 42.3683 34.874 41.7499 34.874C41.2601 34.874 41.0127 35.0976 40.8346 35.3819C40.6911 35.0976 40.4339 34.874 40.0059 34.874C39.6472 34.874 39.3949 35.0417 39.239 35.2993V34.9372H38.8086V37.9065H39.239V36.1692C39.239 35.5107 39.4988 35.2409 39.9144 35.2409C40.33 35.2409 40.565 35.4888 40.565 36.1692V37.9065H40.9954V36.1692C40.9954 35.5107 41.2601 35.2409 41.6707 35.2409C42.1061 35.2409 42.3213 35.4888 42.3213 36.1692V36.1667Z" fill="#004289"/>
<path d="M45.985 35.6639C45.1785 35.3821 45.0301 35.195 45.0301 34.8669C45.0301 34.5389 45.2602 34.2837 45.8118 34.2837C46.2175 34.2837 46.4872 34.4125 46.7791 34.6507L47.066 34.3056C46.7271 34.0408 46.3808 33.8828 45.8415 33.8828C45.087 33.8828 44.5799 34.257 44.5799 34.8937C44.5799 35.4647 44.8718 35.7417 45.745 36.0454C46.4822 36.3079 46.7073 36.5168 46.7073 36.8837C46.7073 37.3017 46.3734 37.5617 45.8366 37.5617C45.421 37.5617 45.0697 37.3722 44.7629 37.0854L44.4636 37.411C44.7803 37.7294 45.2725 37.9602 45.8168 37.9602C46.6554 37.9602 47.1526 37.4791 47.1526 36.8594C47.1526 36.2398 46.878 35.975 45.985 35.6566V35.6639Z" fill="#004289"/>
<path d="M48.9881 35.2409C49.2924 35.2409 49.4952 35.3479 49.7129 35.5422L49.9727 35.2239C49.7352 35.0198 49.4235 34.874 49.0153 34.874C48.382 34.874 47.7141 35.3357 47.7141 36.4365C47.7141 37.4716 48.3202 37.9673 48.9881 37.9673C49.4111 37.9673 49.7055 37.8094 49.9603 37.5542L49.7005 37.2845C49.4952 37.4813 49.2973 37.6004 49.0054 37.6004C48.4686 37.6004 48.152 37.1314 48.152 36.4C48.152 35.6686 48.5181 35.2409 48.9906 35.2409H48.9881Z" fill="#004289"/>
<path d="M51.823 34.8743C51.4445 34.8743 51.16 35.0468 50.9868 35.2995V33.9023H50.5564V37.9068H50.9868V36.1694C50.9868 35.5182 51.3183 35.2412 51.7364 35.2412C52.2212 35.2412 52.4488 35.528 52.4488 36.1694V37.9068H52.8817V36.0941C52.8817 35.2412 52.4612 34.8743 51.8205 34.8743H51.823Z" fill="#004289"/>
<path d="M54.8113 34.874C54.0765 34.874 53.4878 35.4135 53.4878 36.4243C53.4878 37.4351 54.0518 37.9673 54.789 37.9673C55.5262 37.9673 56.1149 37.4084 56.1149 36.4C56.1149 35.3916 55.546 34.874 54.8113 34.874ZM54.8038 37.6004C54.2794 37.6004 53.9256 37.1946 53.9256 36.4122C53.9256 35.6297 54.2794 35.2409 54.8038 35.2409C55.3283 35.2409 55.682 35.6322 55.682 36.4122C55.682 37.1922 55.3258 37.6004 54.8038 37.6004Z" fill="#004289"/>
<path d="M57.201 33.9023H56.7681V37.9068H57.201V33.9023Z" fill="#004289"/>
<path d="M59.175 34.874C58.7841 34.874 58.4254 34.9712 58.1632 35.1122L58.324 35.4596C58.5714 35.3163 58.8311 35.2312 59.1478 35.2312C59.5906 35.2312 59.8033 35.4475 59.8033 35.8849V36.2396C59.6252 36.14 59.3531 36.0671 59.0513 36.0671C58.4502 36.0671 57.8911 36.3514 57.8911 37.0196C57.8911 37.7389 58.3859 37.9673 58.8584 37.9673C59.2913 37.9673 59.5906 37.7729 59.8033 37.5445V37.9065H60.2362V35.8363C60.2362 35.1437 59.8281 34.874 59.175 34.874ZM59.8033 37.1751C59.6203 37.423 59.3234 37.6222 58.935 37.6222C58.5689 37.6222 58.3191 37.4279 58.3191 36.988C58.3191 36.6138 58.5862 36.4049 59.029 36.4049C59.3976 36.4049 59.6104 36.468 59.8058 36.575V37.1751H59.8033Z" fill="#004289"/>
<path d="M61.493 35.3041V34.9348H61.0601V37.9065H61.493V36.1643C61.493 35.5981 61.728 35.2652 62.1485 35.2652C62.3514 35.2652 62.4825 35.309 62.6037 35.377L62.7125 34.9469C62.6111 34.9032 62.4652 34.874 62.2425 34.874C61.9185 34.874 61.629 35.0636 61.493 35.3041Z" fill="#004289"/>
<path d="M64.3723 36.1818C63.8577 35.9534 63.7044 35.8513 63.7044 35.601C63.7044 35.3872 63.8899 35.2317 64.2065 35.2317C64.5232 35.2317 64.726 35.3192 64.961 35.499L65.2035 35.188C64.9709 35.0009 64.6518 34.8721 64.2362 34.8721C63.6871 34.8721 63.2913 35.1758 63.2913 35.6302C63.2913 36.1065 63.546 36.2863 64.1521 36.539C64.6865 36.765 64.867 36.901 64.867 37.144C64.867 37.4356 64.6691 37.6033 64.2585 37.6033C63.9567 37.6033 63.6747 37.4818 63.4323 37.2752L63.1799 37.5863C63.4669 37.8147 63.8305 37.9653 64.2461 37.9653C64.7681 37.9653 65.2826 37.7126 65.2826 37.1295C65.2826 36.5949 64.9487 36.4345 64.3772 36.1794L64.3723 36.1818Z" fill="#004289"/>
<path d="M67.2492 34.8743C66.8683 34.8743 66.5863 35.0468 66.4131 35.2995V33.9023H65.9827V37.9068H66.4131V36.1694C66.4131 35.5182 66.7421 35.2412 67.1626 35.2412C67.645 35.2412 67.8751 35.528 67.8751 36.1694V37.9068H68.308V36.0941C68.308 35.2412 67.8875 34.8743 67.2492 34.8743Z" fill="#004289"/>
<path d="M69.5921 34.9346H69.1616V37.9063H69.5921V34.9346Z" fill="#004289"/>
<path d="M69.3867 33.7979C69.2086 33.7979 69.0701 33.9339 69.0701 34.1065C69.0701 34.2693 69.2086 34.4053 69.3867 34.4053C69.545 34.4053 69.686 34.2693 69.686 34.1065C69.686 33.9339 69.545 33.7979 69.3867 33.7979Z" fill="#004289"/>
<path d="M71.8061 34.874C71.3979 34.874 71.1085 35.0708 70.8958 35.2993V34.9372H70.4653V39H70.8958V37.5736C71.1085 37.8094 71.3683 37.9673 71.7492 37.9673C72.3825 37.9673 72.8896 37.423 72.8896 36.3733C72.8896 35.3236 72.4097 34.874 71.8061 34.874ZM71.7146 37.6004C71.3584 37.6004 71.064 37.4011 70.8958 37.1533V35.671C71.1085 35.4135 71.3757 35.2409 71.6973 35.2409C72.1772 35.2409 72.4666 35.6322 72.4666 36.3781C72.4666 37.1751 72.2192 37.6004 71.7146 37.6004Z" fill="#004289"/>
<path d="M75.1778 34.3472H77.0974V33.9463H74.7275V37.907H75.1778V36.0603H76.2835V35.6618H75.1778V34.3472Z" fill="#004289"/>
<path d="M78.4109 34.874C77.6762 34.874 77.085 35.4135 77.085 36.4243C77.085 37.4351 77.6515 37.9673 78.3862 37.9673C79.1209 37.9673 79.7121 37.4084 79.7121 36.4C79.7121 35.3916 79.1481 34.874 78.4109 34.874ZM78.3985 37.6004C77.8741 37.6004 77.5228 37.1946 77.5228 36.4122C77.5228 35.6297 77.8741 35.2409 78.3985 35.2409C78.923 35.2409 79.2817 35.6322 79.2817 36.4122C79.2817 37.1922 78.9254 37.6004 78.3985 37.6004Z" fill="#004289"/>
<path d="M82.0992 36.6695C82.0992 37.3207 81.7727 37.5977 81.3522 37.5977C80.8673 37.5977 80.6373 37.311 80.6373 36.6695V34.9346H80.2043V36.7448C80.2043 37.6002 80.6249 37.9671 81.2656 37.9671C81.6416 37.9671 81.9236 37.7946 82.0968 37.5443V37.9063H82.5297V34.9346H82.0968V36.6695H82.0992Z" fill="#004289"/>
<path d="M84.5237 34.874C84.1452 34.874 83.8632 35.0465 83.6875 35.2993V34.9372H83.2546V37.909H83.6875V36.1716C83.6875 35.5204 84.0166 35.2434 84.4371 35.2434C84.922 35.2434 85.152 35.5301 85.152 36.1716V37.909H85.5824V36.0963C85.5824 35.2434 85.1619 34.8765 84.5212 34.8765L84.5237 34.874Z" fill="#004289"/>
<path d="M88.1848 35.2704C87.972 35.0322 87.7123 34.8743 87.3313 34.8743C86.698 34.8743 86.1909 35.4137 86.1909 36.4708C86.1909 37.5278 86.6683 37.9676 87.2744 37.9676C87.6826 37.9676 87.9696 37.7732 88.1848 37.5448V37.9068H88.6177V33.9023H88.1848V35.2728V35.2704ZM88.1848 37.1706C87.972 37.4306 87.7049 37.6007 87.3833 37.6007C86.9058 37.6007 86.6164 37.2119 86.6164 36.4635C86.6164 35.664 86.8638 35.2412 87.366 35.2412C87.7247 35.2412 88.0141 35.438 88.1848 35.6883V37.1706Z" fill="#004289"/>
<path d="M90.4507 34.874C90.0573 34.874 89.7011 34.9712 89.4364 35.1122L89.5972 35.4596C89.8471 35.3163 90.1068 35.2312 90.421 35.2312C90.8638 35.2312 91.0765 35.4475 91.0765 35.8849V36.2396C90.8984 36.14 90.6263 36.0671 90.322 36.0671C89.7258 36.0671 89.1643 36.3514 89.1643 37.0196C89.1643 37.7389 89.6615 37.9673 90.134 37.9673C90.5669 37.9673 90.8638 37.7729 91.0765 37.5445V37.9065H91.5094V35.8363C91.5094 35.1437 91.1013 34.874 90.4507 34.874ZM91.0765 37.1751C90.8935 37.423 90.5991 37.6222 90.2058 37.6222C89.8396 37.6222 89.5923 37.4279 89.5923 36.988C89.5923 36.6138 89.857 36.4049 90.2998 36.4049C90.6684 36.4049 90.8811 36.468 91.0765 36.575V37.1751Z" fill="#004289"/>
<path d="M92.8873 33.9023H92.4543V34.9375H92.0808V35.2947H92.4543V37.2994C92.4543 37.7902 92.6572 37.97 93.0332 37.97C93.2608 37.97 93.4216 37.9384 93.5898 37.8679L93.6195 37.501C93.481 37.5569 93.3672 37.5861 93.1915 37.5861C92.9615 37.5861 92.8873 37.4962 92.8873 37.2289V35.2947H93.6368V34.9375H92.8873V33.9023Z" fill="#004289"/>
<path d="M94.6165 33.7979C94.4384 33.7979 94.2974 33.9339 94.2974 34.1065C94.2974 34.2693 94.4384 34.4053 94.6165 34.4053C94.7797 34.4053 94.9183 34.2693 94.9183 34.1065C94.9183 33.9339 94.7797 33.7979 94.6165 33.7979Z" fill="#004289"/>
<path d="M94.8218 34.9346H94.3914V37.9063H94.8218V34.9346Z" fill="#004289"/>
<path d="M96.8008 34.874C96.0661 34.874 95.4773 35.4135 95.4773 36.4243C95.4773 37.4351 96.0413 37.9673 96.7785 37.9673C97.5157 37.9673 98.102 37.4084 98.102 36.4C98.102 35.3916 97.5379 34.874 96.8008 34.874ZM96.7859 37.6004C96.264 37.6004 95.9127 37.1946 95.9127 36.4122C95.9127 35.6297 96.264 35.2409 96.7859 35.2409C97.3079 35.2409 97.6691 35.6322 97.6691 36.4122C97.6691 37.1922 97.3128 37.6004 96.7859 37.6004Z" fill="#004289"/>
<path d="M99.9919 34.874C99.611 34.874 99.329 35.0465 99.1558 35.2993V34.9372H98.7229V37.909H99.1558V36.1716C99.1558 35.5204 99.4848 35.2434 99.9054 35.2434C100.393 35.2434 100.62 35.5301 100.62 36.1716V37.909H101.051V36.0963C101.051 35.2434 100.63 34.8765 99.9919 34.8765V34.874Z" fill="#004289"/>
<path d="M55.3554 6.59234L52.0331 5.24131L55.3554 3.89028L54.7642 2.49065L51.4419 3.84168L52.8198 0.578318L51.3949 0L50.0195 3.26336L48.6416 0L47.2192 0.578318L48.5946 3.84168L45.2723 2.49065L44.6836 3.89028L48.0034 5.24131L44.6836 6.59234L45.2723 7.99196L48.5946 6.6385L47.2192 9.90187L48.6441 10.4826L50.0195 7.21925L51.3949 10.4826L52.8198 9.90187L51.4419 6.6385L54.7642 7.99196L55.3554 6.59234Z" fill="#009FE3"/>
<path d="M33.8509 15.7025H36.0625V9.90234H28.5051V11.856H33.8509V15.7025Z" fill="#009FE3"/>
<path d="M42.4745 15.7025H44.6836V9.90234H37.1262V11.856H42.4745V15.7025Z" fill="#009FE3"/>
<path d="M28.1489 18.7007H42.4745V21.6871H44.6835V16.7471H28.1489V18.7007Z" fill="#009FE3"/>
<path d="M33.4946 30.8117H44.681V22.6934H33.4946V30.8117ZM35.7062 24.647H42.4744V28.858H35.7062V24.647Z" fill="#009FE3"/>
</g>
<defs>
<clipPath id="clip0_225_2">
<rect width="103" height="39" fill="white"/>
</clipPath>
</defs>
</svg>
