<svg width="24" height="24" viewBox="0 0 24 24" fill="none" xmlns="http://www.w3.org/2000/svg">
<mask id="mask0_54_717" style="mask-type:alpha" maskUnits="userSpaceOnUse" x="0" y="0" width="24" height="24">
<rect x="0.387207" y="0.386719" width="23.2258" height="23.2258" fill="#D9D9D9"/>
</mask>
<g mask="url(#mask0_54_717)">
<path d="M15.871 18.774C15.3388 18.774 14.8831 18.5845 14.5041 18.2054C14.1251 17.8264 13.9355 17.3707 13.9355 16.8385V7.16107C13.9355 6.62881 14.1251 6.17317 14.5041 5.79413C14.8831 5.4151 15.3388 5.22559 15.871 5.22559C16.4033 5.22559 16.8589 5.4151 17.238 5.79413C17.617 6.17317 17.8065 6.62881 17.8065 7.16107V16.8385C17.8065 17.3707 17.617 17.8264 17.238 18.2054C16.8589 18.5845 16.4033 18.774 15.871 18.774ZM8.12909 18.774C7.59683 18.774 7.14118 18.5845 6.76215 18.2054C6.38312 17.8264 6.1936 17.3707 6.1936 16.8385V7.16107C6.1936 6.62881 6.38312 6.17317 6.76215 5.79413C7.14118 5.4151 7.59683 5.22559 8.12909 5.22559C8.66135 5.22559 9.11699 5.4151 9.49602 5.79413C9.87506 6.17317 10.0646 6.62881 10.0646 7.16107V16.8385C10.0646 17.3707 9.87506 17.8264 9.49602 18.2054C9.11699 18.5845 8.66135 18.774 8.12909 18.774Z" fill="white"/>
</g>
</svg>
