<svg width="24" height="24" viewBox="0 0 24 24" fill="none" xmlns="http://www.w3.org/2000/svg">
<mask id="mask0_54_707" style="mask-type:alpha" maskUnits="userSpaceOnUse" x="0" y="0" width="24" height="24">
<rect width="23.2258" height="23.2258" transform="matrix(-1 0 0 1 23.6128 0.386719)" fill="#D9D9D9"/>
</mask>
<g mask="url(#mask0_54_707)">
<path d="M9.60475 12.0002L16.7177 4.88729C16.9596 4.64535 17.0765 4.35906 17.0685 4.02841C17.0604 3.69777 16.9354 3.41148 16.6935 3.16954C16.4515 2.92761 16.1652 2.80664 15.8346 2.80664C15.5039 2.80664 15.2177 2.92761 14.9757 3.16954L7.5483 10.6212C7.35475 10.8147 7.20959 11.0324 7.11281 11.2744C7.01604 11.5163 6.96765 11.7583 6.96765 12.0002C6.96765 12.2421 7.01604 12.4841 7.11281 12.726C7.20959 12.9679 7.35475 13.1857 7.5483 13.3792L14.9999 20.8308C15.2418 21.0728 15.5241 21.1897 15.8467 21.1816C16.1693 21.1736 16.4515 21.0486 16.6935 20.8066C16.9354 20.5647 17.0564 20.2784 17.0564 19.9478C17.0564 19.6171 16.9354 19.3308 16.6935 19.0889L9.60475 12.0002Z" fill="white"/>
</g>
</svg>
