<svg width="24" height="24" viewBox="0 0 24 24" fill="none" xmlns="http://www.w3.org/2000/svg">
<mask id="mask0_54_712" style="mask-type:alpha" maskUnits="userSpaceOnUse" x="0" y="0" width="24" height="24">
<rect width="23.2258" height="23.2258" transform="matrix(-1 0 0 1 23.6128 0.386719)" fill="#D9D9D9"/>
</mask>
<g mask="url(#mask0_54_712)">
<path d="M17.4918 12.8228C17.6369 12.726 17.7458 12.6051 17.8184 12.4599C17.891 12.3147 17.9272 12.1615 17.9272 12.0002C17.9272 11.8389 17.891 11.6857 17.8184 11.5405C17.7458 11.3954 17.6369 11.2744 17.4918 11.1776L9.60467 6.16958C9.52402 6.12119 9.43934 6.0849 9.35063 6.0607C9.26192 6.03651 9.17725 6.02441 9.0966 6.02441C8.83854 6.02441 8.61273 6.11716 8.41918 6.30264C8.22563 6.48812 8.12886 6.71796 8.12886 6.99216V17.0083C8.12886 17.2825 8.22563 17.5123 8.41918 17.6978C8.61273 17.8833 8.83854 17.976 9.0966 17.976C9.17725 17.976 9.26192 17.9639 9.35063 17.9397C9.43934 17.9155 9.52402 17.8793 9.60467 17.8309L17.4918 12.8228Z" fill="white"/>
</g>
</svg>
