<svg width="14" height="14" viewBox="0 0 14 14" fill="none" xmlns="http://www.w3.org/2000/svg">
<mask id="mask0_53_533" style="mask-type:alpha" maskUnits="userSpaceOnUse" x="0" y="0" width="14" height="14">
<rect width="14" height="14" fill="#D9D9D9"/>
</mask>
<g mask="url(#mask0_53_533)">
<path d="M6.99981 11.9167C6.87576 11.9167 6.77188 11.8747 6.68817 11.7908C6.60436 11.707 6.56246 11.6031 6.56246 11.4792V7.39583H2.47913C2.35517 7.39583 2.25129 7.35388 2.16748 7.26998C2.08358 7.18608 2.04163 7.08215 2.04163 6.95819C2.04163 6.83413 2.08358 6.73025 2.16748 6.64654C2.25129 6.56274 2.35517 6.52083 2.47913 6.52083H6.56246V2.4375C6.56246 2.31354 6.60441 2.20966 6.68831 2.12585C6.77222 2.04195 6.87615 2 7.00011 2C7.12416 2 7.22804 2.04195 7.31175 2.12585C7.39556 2.20966 7.43746 2.31354 7.43746 2.4375V6.52083H11.5208C11.6448 6.52083 11.7486 6.56279 11.8324 6.64669C11.9163 6.73059 11.9583 6.83452 11.9583 6.95848C11.9583 7.08254 11.9163 7.18642 11.8324 7.27013C11.7486 7.35393 11.6448 7.39583 11.5208 7.39583H7.43746V11.4792C7.43746 11.6031 7.39551 11.707 7.31161 11.7908C7.2277 11.8747 7.12377 11.9167 6.99981 11.9167Z" fill="white"/>
</g>
</svg>
