<svg width="14" height="14" viewBox="0 0 14 14" fill="none" xmlns="http://www.w3.org/2000/svg">
<mask id="mask0_187_7" style="mask-type:alpha" maskUnits="userSpaceOnUse" x="0" y="0" width="14" height="14">
<rect x="1.18408" y="1.18359" width="11.6316" height="11.6316" fill="#000033" stroke="white"/>
</mask>
<g mask="url(#mask0_187_7)">
<path d="M7 2.59082C7.10869 2.59082 7.19943 2.62709 7.27246 2.7002C7.34557 2.7733 7.38179 2.86405 7.38184 2.97266V6.66992H11.0791C11.1877 6.66994 11.2784 6.70608 11.3516 6.7793C11.4247 6.85249 11.4609 6.94316 11.4609 7.05176C11.4609 7.16047 11.4247 7.25118 11.3516 7.32422C11.2784 7.39735 11.1878 7.43357 11.0791 7.43359H7.38184V11.1309C7.38181 11.2395 7.34568 11.3302 7.27246 11.4033C7.19925 11.4765 7.10862 11.5127 7 11.5127C6.89126 11.5127 6.80059 11.4765 6.72754 11.4033C6.65441 11.3302 6.61819 11.2395 6.61816 11.1309V7.43359H2.9209C2.8123 7.43355 2.72155 7.39741 2.64844 7.32422C2.5753 7.25102 2.53908 7.16035 2.53906 7.05176C2.53906 6.94304 2.57529 6.85234 2.64844 6.7793C2.72154 6.70619 2.81229 6.66997 2.9209 6.66992H6.61816V2.97266C6.61821 2.86406 6.65435 2.7733 6.72754 2.7002C6.80073 2.62704 6.89143 2.59086 7 2.59082Z" fill="white" stroke="white" stroke-width="0.025"/>
</g>
</svg>
