<svg width="40" height="40" viewBox="0 0 40 40" fill="none" xmlns="http://www.w3.org/2000/svg">
<mask id="mask0_53_477" style="mask-type:alpha" maskUnits="userSpaceOnUse" x="0" y="0" width="40" height="40">
<rect width="38.7097" height="38.7097" transform="matrix(-1 0 0 1 39.3548 0.645508)" fill="#D9D9D9"/>
</mask>
<g mask="url(#mask0_53_477)">
<path d="M16.0081 20.0003L27.8629 8.14548C28.2661 7.74225 28.461 7.2651 28.4476 6.71403C28.4341 6.16295 28.2258 5.6858 27.8226 5.28257C27.4194 4.87935 26.9422 4.67773 26.3911 4.67773C25.8401 4.67773 25.3629 4.87935 24.9597 5.28257L12.5806 17.7019C12.2581 18.0245 12.0161 18.3874 11.8548 18.7906C11.6935 19.1939 11.6129 19.5971 11.6129 20.0003C11.6129 20.4035 11.6935 20.8068 11.8548 21.21C12.0161 21.6132 12.2581 21.9761 12.5806 22.2987L25 34.7181C25.4032 35.1213 25.8737 35.3162 26.4113 35.3027C26.9489 35.2893 27.4194 35.081 27.8226 34.6777C28.2258 34.2745 28.4274 33.7974 28.4274 33.2463C28.4274 32.6952 28.2258 32.2181 27.8226 31.8148L16.0081 20.0003Z" fill="white"/>
</g>
</svg>
