<svg width="20" height="20" viewBox="0 0 20 20" fill="none" xmlns="http://www.w3.org/2000/svg">
<mask id="mask0_47_142" style="mask-type:alpha" maskUnits="userSpaceOnUse" x="0" y="0" width="20" height="20">
<rect width="20" height="20" fill="#D9D9D9"/>
</mask>
<g mask="url(#mask0_47_142)">
<path d="M9.99987 17.1667C9.82265 17.1667 9.67425 17.1067 9.55467 16.9869C9.43494 16.8672 9.37508 16.7188 9.37508 16.5417V10.7083H3.54175C3.36466 10.7083 3.21626 10.6484 3.09654 10.5285C2.97668 10.4087 2.91675 10.2602 2.91675 10.0831C2.91675 9.9059 2.97668 9.7575 3.09654 9.63792C3.21626 9.51819 3.36466 9.45833 3.54175 9.45833H9.37508V3.625C9.37508 3.44792 9.43501 3.29951 9.55487 3.17979C9.67473 3.05993 9.82321 3 10.0003 3C10.1775 3 10.3259 3.05993 10.4455 3.17979C10.5652 3.29951 10.6251 3.44792 10.6251 3.625V9.45833H16.4584C16.6355 9.45833 16.7839 9.51826 16.9036 9.63813C17.0235 9.75799 17.0834 9.90646 17.0834 10.0835C17.0834 10.2608 17.0235 10.4092 16.9036 10.5288C16.7839 10.6485 16.6355 10.7083 16.4584 10.7083H10.6251V16.5417C10.6251 16.7188 10.5652 16.8672 10.4453 16.9869C10.3254 17.1067 10.177 17.1667 9.99987 17.1667Z" fill="#161D6F"/>
</g>
</svg>
