<svg width="20" height="20" viewBox="0 0 20 20" fill="none" xmlns="http://www.w3.org/2000/svg">
<mask id="mask0_53_600" style="mask-type:alpha" maskUnits="userSpaceOnUse" x="0" y="0" width="20" height="20">
<rect width="20" height="20" fill="white"/>
</mask>
<g mask="url(#mask0_53_600)">
<path d="M9.37501 6.14445L5.0673 10.4522C4.94341 10.5761 4.79841 10.6372 4.6323 10.6357C4.46619 10.634 4.31848 10.5686 4.18917 10.4395C4.06848 10.3101 4.00598 10.1638 4.00167 10.0003C3.99737 9.83681 4.05987 9.69043 4.18917 9.56112L9.47271 4.27758C9.55077 4.19952 9.63306 4.14452 9.71959 4.11258C9.80612 4.08049 9.89959 4.06445 10 4.06445C10.1004 4.06445 10.1939 4.08049 10.2804 4.11258C10.367 4.14452 10.4492 4.19952 10.5273 4.27758L15.8108 9.56112C15.9263 9.67654 15.9853 9.81945 15.9879 9.98987C15.9906 10.1603 15.9315 10.3101 15.8108 10.4395C15.6815 10.5686 15.5331 10.6332 15.3654 10.6332C15.1976 10.6332 15.0491 10.5686 14.9198 10.4395L10.625 6.14445V15.6253C10.625 15.8026 10.5651 15.9511 10.4454 16.0707C10.3258 16.1904 10.1774 16.2503 10 16.2503C9.82265 16.2503 9.67417 16.1904 9.55459 16.0707C9.43487 15.9511 9.37501 15.8026 9.37501 15.6253V6.14445Z" fill="black"/>
</g>
</svg>
