<svg width="190" height="30" viewBox="0 0 190 30" fill="none" xmlns="http://www.w3.org/2000/svg">
<g clip-path="url(#clip0_29_192)">
<path d="M189.84 15.2129L184.274 15.142V18.9186C184.274 23.7767 183.423 27.3406 183.015 28.4044C182.749 28.7058 182.128 28.8831 181.756 28.7767C181.526 27.9257 181.047 25.2838 181.047 20.8867V3.90084C181.047 3.19162 179.044 1.71999 178.299 1.48949C178.104 1.41857 178.742 0.673889 178.937 0.673889C180.462 0.673889 184.469 1.59588 184.38 2.30509C184.309 2.78382 184.274 3.35119 184.274 3.97176V13.6881L188.493 12.0214C188.865 11.8796 190.532 15.2129 189.858 15.2129M178.281 17.0569C178.866 17.8725 177.288 21.3299 176.721 20.5143C175.906 19.3618 173.672 15.9576 171.668 13.6881C168.991 17.4292 165.658 20.4434 162.662 22.0391C162.29 22.0037 161.847 21.454 161.847 21.1172C165.552 17.8193 169.736 12.0391 171.491 6.77318C171.597 6.47176 170.339 5.54978 169.789 5.2129C169.612 5.10651 170.374 4.53914 170.569 4.53914C171.58 4.53914 174.381 5.69162 175.055 6.17034C175.427 6.4363 175.462 6.61361 175.285 7.05687C174.54 8.98949 173.548 10.8335 172.431 12.5356C174.948 14.2732 177.732 16.2767 178.281 17.0569ZM160.286 15.532L154.684 15.4257V18.9186C154.684 23.7767 153.904 27.3406 153.461 28.4044C153.195 28.7058 152.574 28.8831 152.238 28.7767C151.972 27.9257 151.528 25.2838 151.528 20.8867V3.90084C151.528 3.19162 149.525 1.79091 148.78 1.48949C148.603 1.41857 149.224 0.673889 149.419 0.673889C150.943 0.673889 154.861 1.59588 154.791 2.30509C154.755 2.78382 154.684 3.35119 154.684 3.97176V13.9895L158.921 12.3583C159.329 12.181 160.996 15.5143 160.286 15.5143M142.079 17.1987C143.639 17.1987 144.791 16.1172 144.791 14.4505C144.791 12.7838 143.71 11.6668 142.079 11.6668C140.448 11.6668 139.366 12.7838 139.366 14.4505C139.366 16.1172 140.448 17.1987 142.079 17.1987ZM136.778 3.03205C136.743 2.8902 136.92 2.42921 137.115 2.44694C138.232 2.65971 139.366 2.85474 140.785 3.03205L144.242 3.40439C144.543 3.43985 145.873 5.26609 144.986 5.26609H139.756C138.87 5.26609 136.831 3.33346 136.76 3.03205M133.303 7.16325C133.268 7.05687 133.48 6.68453 133.569 6.71999C134.154 6.93275 136.228 6.98595 138.196 6.95049L145.27 6.87956C147.309 6.8441 147.912 5.83346 148.231 5.83346C148.568 5.83346 149.862 7.62424 149.862 8.45758C149.862 8.59942 149.72 8.68807 149.49 8.68807C149.153 8.68807 147.185 8.58169 145.625 8.58169L138.019 8.61715C136.796 8.61715 135.98 8.88311 135.608 9.21999C134.651 8.95403 133.463 7.51786 133.339 7.14552M150.199 21.064C147.149 22.4647 141.299 23.2803 137.292 23.7767C136.211 23.9186 135.555 24.1136 134.916 24.4859C133.888 24.22 132.399 22.7129 132.257 22.1455C132.293 21.9682 132.434 21.8086 132.523 21.7023C133.64 21.7023 135.271 21.7377 137.239 21.6313C138.462 21.5604 139.615 21.4895 140.661 21.4008L140.466 18.4753C137.877 18.032 136.282 16.5072 136.282 14.3973C136.282 12.0923 138.285 10.532 141.441 10.3547C141.476 10.2129 141.512 10.1242 141.512 9.9824C141.512 9.71644 141.441 9.39729 141.068 9.13134C141.068 8.49304 143.107 9.13134 143.107 9.46822C143.107 9.61006 142.93 10.0179 142.841 10.3547C145.926 10.5675 147.876 12.1278 147.876 14.3973C147.876 16.5072 146.21 18.032 143.657 18.4753L143.515 21.1172C146.742 20.7448 148.922 20.2306 150.376 19.7519C150.677 19.6455 150.553 20.8689 150.181 21.0462M111.568 4.52141L111.532 10.1952H119.439L119.634 4.52141H111.55H111.568ZM106.444 3.26254C106.409 3.08524 106.887 2.51786 107.118 2.51786C107.703 2.51786 109.724 2.58878 111.053 2.81928H118.588C119.546 2.81928 120.042 2.67744 120.414 2.34056C120.822 2.19871 123.464 2.60651 123.41 3.04978L122.294 9.87602C122.772 10.3193 123.41 11.2058 123.41 11.6845C123.41 11.8264 123.269 11.915 123.038 11.915C122.701 11.915 121.443 11.8796 119.546 11.8796H111.195C110.983 12.2519 110.717 12.5888 110.415 12.9434C110.114 13.2448 109.564 13.3867 109.156 13.2803C108.82 12.4647 108.536 10.9044 108.305 8.08524L108.004 4.55687C107.969 4.21999 107.011 3.47531 106.444 3.26254ZM125.254 27.376C125.254 27.5179 125.148 27.6065 124.882 27.6065H121.389L111 27.642C108.11 27.642 107.543 26.6491 107.543 24.7164V21.8264C107.543 21.3122 106.462 20.4257 105.841 20.337C105.646 20.3015 106.32 19.4505 106.586 19.4505C107.774 19.4505 109.547 19.7164 110.433 20.0533C110.61 20.1242 110.876 20.2306 110.805 20.603C110.734 21.0462 110.734 21.6845 110.734 22.2342V24.7519C110.734 25.798 111.107 25.9398 112.029 25.9398L120.751 25.9044C122.595 25.9044 123.198 24.876 123.428 24.876C123.907 24.876 125.254 26.5781 125.254 27.3583M128.552 16.3831C128.552 16.5604 128.41 16.6491 128.18 16.6491H117.418V18.6172C117.418 20.6207 116.674 22.3583 116.159 23.1384C115.893 23.4398 115.308 23.5817 114.936 23.4753C114.635 22.5533 114.191 21.3299 114.191 19.0959V16.6491H106.958C105.735 16.6491 104.919 16.9859 104.547 17.3228C103.59 17.0569 101.657 15.5498 101.657 15.2129C101.657 15.0711 101.834 14.6987 101.923 14.7342C102.508 14.9469 104.582 14.9647 106.55 14.9647L123.198 14.9292C125.307 14.9292 126.017 13.7413 126.283 13.7413C126.655 13.7413 128.552 15.5498 128.552 16.3654M81.1272 7.78382C81.1272 9.96467 82.5455 11.4186 84.6907 11.4186C86.8359 11.4186 88.4669 9.96467 88.4669 7.78382C88.4669 5.60297 86.9422 4.14907 84.7261 4.14907C82.51 4.14907 81.1272 5.6207 81.1272 7.78382ZM77.9005 7.8902C77.9005 4.84056 80.3471 2.80155 84.1234 2.58878C84.1588 2.4824 84.1943 2.39375 84.1943 2.28736C84.1943 1.98595 84.1234 1.64907 83.6801 1.32992C83.6801 0.656159 85.9494 1.32992 85.9494 1.70226C85.9494 1.8441 85.7721 2.2519 85.6835 2.58878C89.2824 2.85474 91.6581 4.89375 91.6581 7.8902C91.6581 11.0462 88.9101 13.1207 84.7971 13.1207C80.684 13.1207 77.9005 11.0462 77.9005 7.8902ZM98.2178 17.1633C98.2178 17.3051 98.076 17.3937 97.8455 17.3937H90.4703V19.025C90.4703 23.6171 89.6548 27.181 89.2115 28.2271C88.9456 28.5285 88.3251 28.6703 87.9882 28.5994C87.7223 27.7484 87.2436 25.1065 87.2436 20.993V17.3937L82.0491 17.4292V18.4576C82.0491 23.0143 81.2336 26.5781 80.8258 27.6242C80.5599 27.9257 79.9393 28.0675 79.567 27.9966C79.3366 27.1455 78.8579 24.5037 78.8579 20.4257V17.4292H76.6241C75.4008 17.4292 74.5852 17.7661 74.2129 18.103C73.2556 17.837 71.3231 16.3299 71.3231 15.9576C71.3231 15.8512 71.5004 15.4789 71.5891 15.5143C72.1741 15.7093 74.2484 15.7448 76.2163 15.7448L92.8637 15.6739C94.9734 15.6739 95.6826 14.4859 95.9485 14.4859C96.3208 14.4859 98.2178 16.3122 98.2178 17.1278M51.0591 6.41857C51.0591 8.28027 52.4596 9.61006 54.5516 9.61006C56.6437 9.61006 58.0442 8.28027 58.0442 6.41857C58.0442 4.55687 56.6437 3.298 54.5516 3.298C52.4596 3.298 51.0591 4.59233 51.0591 6.41857ZM47.8324 6.56041C47.8324 3.88311 50.1726 1.93275 53.807 1.70226C53.8425 1.52495 53.9134 1.40084 53.9134 1.22353C53.9134 0.922116 53.807 0.602968 53.3993 0.301549C53.3993 -0.407671 55.6686 0.301549 55.6686 0.638429C55.6686 0.851194 55.4381 1.31219 55.2963 1.68453C58.8952 1.91502 61.3063 3.86538 61.3063 6.54268C61.3063 9.36183 58.5584 11.3654 54.5516 11.3654C50.5449 11.3654 47.8324 9.36183 47.8324 6.54268M63.9302 27.9257C63.9302 28.103 63.7884 28.1562 63.5579 28.1562H50.3499C48.0806 28.1562 47.2828 27.376 47.2296 25.603L47.1587 23.3335C47.1587 22.9966 46.2723 22.5533 45.705 22.3051C45.6695 22.1278 46.1836 21.5604 46.4496 21.5604C47.0878 21.5604 49.5167 21.7023 50.3854 22.0037H58.9839L59.0193 19.2554H50.4208C49.3748 19.2554 48.6834 19.5214 48.3111 19.876C47.0878 19.6987 46.095 18.103 46.0773 17.8725C46.0418 17.6952 46.2191 17.3583 46.3787 17.3937C47.4601 17.5888 48.8252 17.5888 50.7931 17.5888H57.8315C58.7888 17.5888 59.2852 17.4824 59.6576 17.1101C60.0653 17.0746 62.7778 17.376 62.6892 17.8193L61.8382 21.8264C62.4764 22.3051 62.8842 23.1207 62.8842 23.3157C62.8842 23.493 62.7778 23.6172 62.6183 23.6172C62.3169 23.6172 60.3844 23.5817 58.8066 23.5817H50.3854V25.0711C50.3854 26.2235 50.7222 26.454 52.2469 26.454H59.693C61.8027 26.454 62.1041 25.5675 62.3346 25.5675C62.8133 25.5675 63.9302 27.1632 63.9302 27.8725M67.8128 14.7874C67.8128 14.9292 67.671 15.0179 67.4405 15.0179H62.6537L46.2368 15.0533C45.049 15.0533 44.2335 15.3902 43.8612 15.6916C42.8683 15.4257 41.1132 13.954 40.9714 13.5817C40.9359 13.4753 41.1486 13.103 41.2373 13.1384C41.8223 13.3512 43.8789 13.3867 45.8645 13.3867L62.4764 13.3157C64.5507 13.3157 65.2599 12.1278 65.5613 12.1278C65.9336 12.1278 67.7951 13.954 67.7951 14.7696M30.2986 14.7164C30.2986 15.0179 30.0681 15.0179 29.2526 15.2661C28.9157 15.3725 28.7385 15.9044 28.4725 16.7554C27.8875 18.5462 26.0259 21.4363 22.1611 21.4363C18.2962 21.4363 16.2573 18.1384 16.1155 17.9611C15.9205 17.6952 15.6014 17.4469 15.3354 17.4469C15.1582 17.4469 15.0341 17.5179 14.9277 17.5888C13.5271 18.5462 12.0024 19.6278 12.0024 22.1101C12.0024 23.7413 13.3675 25.603 15.6723 25.603C17.6402 25.603 18.9344 23.7413 19.3422 22.4469C19.484 22.0037 19.4485 21.8264 19.679 21.8264C19.9804 21.8264 20.0868 22.5001 20.4945 22.5001C20.8314 22.5001 20.725 22.3228 21.1682 22.3228C21.576 22.3228 21.6824 22.8725 22.0192 22.8725C22.4979 22.8725 23.1361 22.4647 23.4553 22.4647C23.5616 22.4647 23.7212 22.4647 23.7212 22.5711C23.7212 22.7484 23.4198 22.9079 23.1361 23.1562C22.5511 23.6703 22.1256 23.9718 21.6824 24.7164C20.1222 27.3583 18.3139 27.837 17.392 28.1207C17.0551 28.2271 16.7183 28.3867 16.5765 28.7058C16.0623 29.8583 15.7609 30.0001 15.6191 30.0001C15.4418 30.0001 15.3886 29.8051 15.3532 29.3618C15.3177 28.8831 15.0518 28.3335 14.1299 28.1739C11.7897 27.7306 8.89988 25.3547 8.89988 21.6136C8.89988 18.2448 11.4528 16.9328 12.747 15.6384C12.9243 15.4611 13.0484 15.2661 13.0484 14.9647V14.8583C13.0484 14.6987 13.013 14.4859 12.8002 14.22C11.506 12.5888 10.5309 11.5072 8.75805 11.5072C6.8256 11.5072 5.12364 13.103 5.12364 15.4079C5.12364 17.8902 6.34693 18.7413 7.57022 19.0427C7.97798 19.1491 8.11981 19.1845 8.11981 19.3086C8.11981 19.5746 7.85388 19.5214 7.85388 19.9292C7.85388 20.2306 8.08435 20.1952 8.08435 20.6739C8.08435 21.0108 7.78296 21.1172 7.78296 21.6313C7.78296 22.0391 7.97798 22.181 7.97798 22.4115C7.97798 22.7129 8.15527 22.6774 8.15527 23.3335C8.15527 23.5108 8.22618 23.6349 8.08435 23.6349C7.94252 23.6349 7.78296 23.4044 7.57022 23.0852C7.09154 22.376 6.5774 21.9328 6.20509 21.6491C3.24438 19.5037 3.13801 18.564 2.39339 17.0923C2.21611 16.7554 2.16292 16.1703 1.80834 16.0108C0.726883 15.4611 -0.0177288 15.3015 -0.0177288 14.415C-0.0177288 14.0072 0.46095 14.415 1.20556 14.415C1.61332 14.415 2.092 14.4859 2.32248 13.6349C2.83661 11.8264 4.96408 8.9363 8.70486 8.9363C12.6761 8.9363 14.644 12.2342 14.7859 12.4115C15.0518 12.7838 15.3 12.9257 15.5659 12.9257C15.7432 12.9257 15.8673 12.9257 16.1687 12.6597C18.6862 10.4257 18.8812 9.43275 18.8812 8.13843C18.8812 6.50722 17.587 4.61006 15.2823 4.61006C12.9775 4.61006 11.8783 6.4363 11.5769 7.80155C11.4706 8.24481 11.3996 8.47531 11.2046 8.47531C10.9032 8.47531 10.9032 8.06751 10.5664 8.06751C10.0168 8.06751 9.96361 8.298 9.67995 8.298C9.30764 8.298 9.30764 7.62424 8.75805 7.62424C8.61622 7.62424 8.31483 7.80155 8.11981 7.80155C7.60567 7.80155 7.57022 7.90793 7.33974 7.90793C7.07381 7.90793 6.79015 7.76609 6.79015 7.57105C6.79015 7.37602 6.96744 7.23417 7.4993 6.96822C8.20845 6.59588 8.86442 6.32992 9.20127 5.56751C10.2473 3.22708 12.5697 2.4824 13.4562 2.14552C13.793 2.00368 13.9703 1.87956 14.1299 1.56041C14.839 0.266088 15.1582 0.124244 15.3532 0.124244C15.5482 0.124244 15.5305 0.461124 15.6191 0.868925C15.7255 1.34765 15.7255 1.71999 16.5056 1.91502C18.7217 2.50013 21.966 4.53914 21.966 8.26254C21.966 11.9859 18.2962 14.3441 18.1189 14.4859C17.7111 14.7874 17.5693 15.0356 17.5693 15.2661C17.5693 15.4434 17.6757 15.6384 17.782 15.8512C18.6685 17.6242 20.1932 18.7767 21.966 18.7767C24.0758 18.7767 25.7068 16.8086 25.7068 14.7696C25.7068 12.7306 24.3417 11.5072 23.1539 11.1349C22.7106 10.993 22.5156 10.993 22.5156 10.7625C22.5156 10.4966 22.817 10.5852 22.817 10.1774C22.817 9.87602 22.6752 9.94694 22.6752 9.46822C22.6752 9.13134 23.083 9.02495 23.083 8.51077C23.083 8.10297 22.8879 7.96112 22.8879 7.73063C22.8879 7.42921 22.7816 7.46467 22.7816 6.80864C22.7816 6.63134 22.7106 6.50722 22.8525 6.50722C23.0298 6.50722 23.1893 6.73772 23.4021 7.05687C23.8808 7.76609 24.2531 8.31573 24.6254 8.54623C27.3024 10.2484 27.8875 11.3299 28.508 12.8547C28.6498 13.1916 28.7739 13.7767 29.1817 14.0072C29.5185 14.22 30.2631 14.4505 30.2631 14.7164" fill="white"/>
</g>
<defs>
<clipPath id="clip0_29_192">
<rect width="190" height="30" fill="white"/>
</clipPath>
</defs>
</svg>
