<svg width="119" height="105" viewBox="0 0 119 105" fill="none" xmlns="http://www.w3.org/2000/svg">
<path d="M13.625 3.30769C13.625 5.13448 12.1419 6.61538 10.3125 6.61538C8.48306 6.61538 7 5.13448 7 3.30769C7 1.4809 8.48306 0 10.3125 0C12.1419 0 13.625 1.4809 13.625 3.30769Z" fill="#D9D9D9"/>
<path d="M13.625 43C13.625 44.8268 12.1419 46.3077 10.3125 46.3077C8.48306 46.3077 7 44.8268 7 43C7 41.1732 8.48306 39.6923 10.3125 39.6923C12.1419 39.6923 13.625 41.1732 13.625 43Z" fill="#D9D9D9"/>
<path d="M13.625 23.1538C13.625 24.9806 12.1419 26.4615 10.3125 26.4615C8.48306 26.4615 7 24.9806 7 23.1538C7 21.3271 8.48306 19.8462 10.3125 19.8462C12.1419 19.8462 13.625 21.3271 13.625 23.1538Z" fill="#D9D9D9"/>
<path d="M13.625 62.8462C13.625 64.6729 12.1419 66.1538 10.3125 66.1538C8.48306 66.1538 7 64.6729 7 62.8462C7 61.0194 8.48306 59.5385 10.3125 59.5385C12.1419 59.5385 13.625 61.0194 13.625 62.8462Z" fill="#D9D9D9"/>
<path d="M13.625 13.2308C13.625 15.0576 12.1419 16.5385 10.3125 16.5385C8.48306 16.5385 7 15.0576 7 13.2308C7 11.404 8.48306 9.92308 10.3125 9.92308C12.1419 9.92308 13.625 11.404 13.625 13.2308Z" fill="#D9D9D9"/>
<path d="M13.625 52.9231C13.625 54.7499 12.1419 56.2308 10.3125 56.2308C8.48306 56.2308 7 54.7499 7 52.9231C7 51.0963 8.48306 49.6154 10.3125 49.6154C12.1419 49.6154 13.625 51.0963 13.625 52.9231Z" fill="#D9D9D9"/>
<path d="M13.625 33.0769C13.625 34.9037 12.1419 36.3846 10.3125 36.3846C8.48306 36.3846 7 34.9037 7 33.0769C7 31.2501 8.48306 29.7692 10.3125 29.7692C12.1419 29.7692 13.625 31.2501 13.625 33.0769Z" fill="#D9D9D9"/>
<path d="M13.625 72.7692C13.625 74.596 12.1419 76.0769 10.3125 76.0769C8.48306 76.0769 7 74.596 7 72.7692C7 70.9424 8.48306 69.4615 10.3125 69.4615C12.1419 69.4615 13.625 70.9424 13.625 72.7692Z" fill="#D9D9D9"/>
<path d="M13.625 82.6923C13.625 84.5191 12.1419 86 10.3125 86C8.48306 86 7 84.5191 7 82.6923C7 80.8655 8.48306 79.3846 10.3125 79.3846C12.1419 79.3846 13.625 80.8655 13.625 82.6923Z" fill="#D9D9D9"/>
<path d="M33.5 3.30769C33.5 5.13448 32.0169 6.61538 30.1875 6.61538C28.3581 6.61538 26.875 5.13448 26.875 3.30769C26.875 1.4809 28.3581 0 30.1875 0C32.0169 0 33.5 1.4809 33.5 3.30769Z" fill="#D9D9D9"/>
<path d="M33.5 43C33.5 44.8268 32.0169 46.3077 30.1875 46.3077C28.3581 46.3077 26.875 44.8268 26.875 43C26.875 41.1732 28.3581 39.6923 30.1875 39.6923C32.0169 39.6923 33.5 41.1732 33.5 43Z" fill="#68A343"/>
<path d="M33.5 23.1538C33.5 24.9806 32.0169 26.4615 30.1875 26.4615C28.3581 26.4615 26.875 24.9806 26.875 23.1538C26.875 21.3271 28.3581 19.8462 30.1875 19.8462C32.0169 19.8462 33.5 21.3271 33.5 23.1538Z" fill="#D9D9D9"/>
<path d="M33.5 62.8462C33.5 64.6729 32.0169 66.1538 30.1875 66.1538C28.3581 66.1538 26.875 64.6729 26.875 62.8462C26.875 61.0194 28.3581 59.5385 30.1875 59.5385C32.0169 59.5385 33.5 61.0194 33.5 62.8462Z" fill="#D9D9D9"/>
<path d="M33.5 13.2308C33.5 15.0576 32.0169 16.5385 30.1875 16.5385C28.3581 16.5385 26.875 15.0576 26.875 13.2308C26.875 11.404 28.3581 9.92308 30.1875 9.92308C32.0169 9.92308 33.5 11.404 33.5 13.2308Z" fill="#D9D9D9"/>
<path d="M33.5 52.9231C33.5 54.7499 32.0169 56.2308 30.1875 56.2308C28.3581 56.2308 26.875 54.7499 26.875 52.9231C26.875 51.0963 28.3581 49.6154 30.1875 49.6154C32.0169 49.6154 33.5 51.0963 33.5 52.9231Z" fill="#D9D9D9"/>
<path d="M33.5 33.0769C33.5 34.9037 32.0169 36.3846 30.1875 36.3846C28.3581 36.3846 26.875 34.9037 26.875 33.0769C26.875 31.2501 28.3581 29.7692 30.1875 29.7692C32.0169 29.7692 33.5 31.2501 33.5 33.0769Z" fill="#219AD6"/>
<path d="M33.5 72.7692C33.5 74.596 32.0169 76.0769 30.1875 76.0769C28.3581 76.0769 26.875 74.596 26.875 72.7692C26.875 70.9424 28.3581 69.4615 30.1875 69.4615C32.0169 69.4615 33.5 70.9424 33.5 72.7692Z" fill="#D9D9D9"/>
<path d="M33.5 82.6923C33.5 84.5191 32.0169 86 30.1875 86C28.3581 86 26.875 84.5191 26.875 82.6923C26.875 80.8655 28.3581 79.3846 30.1875 79.3846C32.0169 79.3846 33.5 80.8655 33.5 82.6923Z" fill="#D9D9D9"/>
<path d="M53.375 3.30769C53.375 5.13448 51.8919 6.61538 50.0625 6.61538C48.2331 6.61538 46.75 5.13448 46.75 3.30769C46.75 1.4809 48.2331 0 50.0625 0C51.8919 0 53.375 1.4809 53.375 3.30769Z" fill="#D9D9D9"/>
<path d="M53.375 43C53.375 44.8268 51.8919 46.3077 50.0625 46.3077C48.2331 46.3077 46.75 44.8268 46.75 43C46.75 41.1732 48.2331 39.6923 50.0625 39.6923C51.8919 39.6923 53.375 41.1732 53.375 43Z" fill="#D9D9D9"/>
<path d="M53.375 23.1538C53.375 24.9806 51.8919 26.4615 50.0625 26.4615C48.2331 26.4615 46.75 24.9806 46.75 23.1538C46.75 21.3271 48.2331 19.8462 50.0625 19.8462C51.8919 19.8462 53.375 21.3271 53.375 23.1538Z" fill="#D9D9D9"/>
<path d="M53.375 62.8462C53.375 64.6729 51.8919 66.1538 50.0625 66.1538C48.2331 66.1538 46.75 64.6729 46.75 62.8462C46.75 61.0194 48.2331 59.5385 50.0625 59.5385C51.8919 59.5385 53.375 61.0194 53.375 62.8462Z" fill="#D9D9D9"/>
<path d="M53.375 13.2308C53.375 15.0576 51.8919 16.5385 50.0625 16.5385C48.2331 16.5385 46.75 15.0576 46.75 13.2308C46.75 11.404 48.2331 9.92308 50.0625 9.92308C51.8919 9.92308 53.375 11.404 53.375 13.2308Z" fill="#D9D9D9"/>
<path d="M53.375 52.9231C53.375 54.7499 51.8919 56.2308 50.0625 56.2308C48.2331 56.2308 46.75 54.7499 46.75 52.9231C46.75 51.0963 48.2331 49.6154 50.0625 49.6154C51.8919 49.6154 53.375 51.0963 53.375 52.9231Z" fill="#D9D9D9"/>
<path d="M53.375 33.0769C53.375 34.9037 51.8919 36.3846 50.0625 36.3846C48.2331 36.3846 46.75 34.9037 46.75 33.0769C46.75 31.2501 48.2331 29.7692 50.0625 29.7692C51.8919 29.7692 53.375 31.2501 53.375 33.0769Z" fill="#D9D9D9"/>
<path d="M53.375 72.7692C53.375 74.596 51.8919 76.0769 50.0625 76.0769C48.2331 76.0769 46.75 74.596 46.75 72.7692C46.75 70.9424 48.2331 69.4615 50.0625 69.4615C51.8919 69.4615 53.375 70.9424 53.375 72.7692Z" fill="#D9D9D9"/>
<path d="M53.375 82.6923C53.375 84.5191 51.8919 86 50.0625 86C48.2331 86 46.75 84.5191 46.75 82.6923C46.75 80.8655 48.2331 79.3846 50.0625 79.3846C51.8919 79.3846 53.375 80.8655 53.375 82.6923Z" fill="#D9D9D9"/>
<path d="M73.25 3.30769C73.25 5.13448 71.7669 6.61538 69.9375 6.61538C68.1081 6.61538 66.625 5.13448 66.625 3.30769C66.625 1.4809 68.1081 0 69.9375 0C71.7669 0 73.25 1.4809 73.25 3.30769Z" fill="#D9D9D9"/>
<path d="M73.25 43C73.25 44.8268 71.7669 46.3077 69.9375 46.3077C68.1081 46.3077 66.625 44.8268 66.625 43C66.625 41.1732 68.1081 39.6923 69.9375 39.6923C71.7669 39.6923 73.25 41.1732 73.25 43Z" fill="#68A343"/>
<path d="M73.25 23.1538C73.25 24.9806 71.7669 26.4615 69.9375 26.4615C68.1081 26.4615 66.625 24.9806 66.625 23.1538C66.625 21.3271 68.1081 19.8462 69.9375 19.8462C71.7669 19.8462 73.25 21.3271 73.25 23.1538Z" fill="#D9D9D9"/>
<path d="M73.25 62.8462C73.25 64.6729 71.7669 66.1538 69.9375 66.1538C68.1081 66.1538 66.625 64.6729 66.625 62.8462C66.625 61.0194 68.1081 59.5385 69.9375 59.5385C71.7669 59.5385 73.25 61.0194 73.25 62.8462Z" fill="#D9D9D9"/>
<path d="M73.25 13.2308C73.25 15.0576 71.7669 16.5385 69.9375 16.5385C68.1081 16.5385 66.625 15.0576 66.625 13.2308C66.625 11.404 68.1081 9.92308 69.9375 9.92308C71.7669 9.92308 73.25 11.404 73.25 13.2308Z" fill="#219AD6"/>
<path d="M73.25 52.9231C73.25 54.7499 71.7669 56.2308 69.9375 56.2308C68.1081 56.2308 66.625 54.7499 66.625 52.9231C66.625 51.0963 68.1081 49.6154 69.9375 49.6154C71.7669 49.6154 73.25 51.0963 73.25 52.9231Z" fill="#D9D9D9"/>
<path d="M73.25 33.0769C73.25 34.9037 71.7669 36.3846 69.9375 36.3846C68.1081 36.3846 66.625 34.9037 66.625 33.0769C66.625 31.2501 68.1081 29.7692 69.9375 29.7692C71.7669 29.7692 73.25 31.2501 73.25 33.0769Z" fill="#D9D9D9"/>
<path d="M73.25 72.7692C73.25 74.596 71.7669 76.0769 69.9375 76.0769C68.1081 76.0769 66.625 74.596 66.625 72.7692C66.625 70.9424 68.1081 69.4615 69.9375 69.4615C71.7669 69.4615 73.25 70.9424 73.25 72.7692Z" fill="#F89623"/>
<path d="M73.25 82.6923C73.25 84.5191 71.7669 86 69.9375 86C68.1081 86 66.625 84.5191 66.625 82.6923C66.625 80.8655 68.1081 79.3846 69.9375 79.3846C71.7669 79.3846 73.25 80.8655 73.25 82.6923Z" fill="#D9D9D9"/>
<path d="M93.125 3.30769C93.125 5.13448 91.6419 6.61538 89.8125 6.61538C87.9831 6.61538 86.5 5.13448 86.5 3.30769C86.5 1.4809 87.9831 0 89.8125 0C91.6419 0 93.125 1.4809 93.125 3.30769Z" fill="#D9D9D9"/>
<path d="M93.125 43C93.125 44.8268 91.6419 46.3077 89.8125 46.3077C87.9831 46.3077 86.5 44.8268 86.5 43C86.5 41.1732 87.9831 39.6923 89.8125 39.6923C91.6419 39.6923 93.125 41.1732 93.125 43Z" fill="#D9D9D9"/>
<path d="M93.125 23.1538C93.125 24.9806 91.6419 26.4615 89.8125 26.4615C87.9831 26.4615 86.5 24.9806 86.5 23.1538C86.5 21.3271 87.9831 19.8462 89.8125 19.8462C91.6419 19.8462 93.125 21.3271 93.125 23.1538Z" fill="#D9D9D9"/>
<path d="M93.125 62.8462C93.125 64.6729 91.6419 66.1538 89.8125 66.1538C87.9831 66.1538 86.5 64.6729 86.5 62.8462C86.5 61.0194 87.9831 59.5385 89.8125 59.5385C91.6419 59.5385 93.125 61.0194 93.125 62.8462Z" fill="#D9D9D9"/>
<path d="M93.125 13.2308C93.125 15.0576 91.6419 16.5385 89.8125 16.5385C87.9831 16.5385 86.5 15.0576 86.5 13.2308C86.5 11.404 87.9831 9.92308 89.8125 9.92308C91.6419 9.92308 93.125 11.404 93.125 13.2308Z" fill="#D9D9D9"/>
<path d="M93.125 52.9231C93.125 54.7499 91.6419 56.2308 89.8125 56.2308C87.9831 56.2308 86.5 54.7499 86.5 52.9231C86.5 51.0963 87.9831 49.6154 89.8125 49.6154C91.6419 49.6154 93.125 51.0963 93.125 52.9231Z" fill="#D9D9D9"/>
<path d="M93.125 33.0769C93.125 34.9037 91.6419 36.3846 89.8125 36.3846C87.9831 36.3846 86.5 34.9037 86.5 33.0769C86.5 31.2501 87.9831 29.7692 89.8125 29.7692C91.6419 29.7692 93.125 31.2501 93.125 33.0769Z" fill="#D9D9D9"/>
<path d="M93.125 72.7692C93.125 74.596 91.6419 76.0769 89.8125 76.0769C87.9831 76.0769 86.5 74.596 86.5 72.7692C86.5 70.9424 87.9831 69.4615 89.8125 69.4615C91.6419 69.4615 93.125 70.9424 93.125 72.7692Z" fill="#D9D9D9"/>
<path d="M93.125 82.6923C93.125 84.5191 91.6419 86 89.8125 86C87.9831 86 86.5 84.5191 86.5 82.6923C86.5 80.8655 87.9831 79.3846 89.8125 79.3846C91.6419 79.3846 93.125 80.8655 93.125 82.6923Z" fill="#D9D9D9"/>
<path d="M23.5625 3.30769C23.5625 5.13448 22.0794 6.61538 20.25 6.61538C18.4206 6.61538 16.9375 5.13448 16.9375 3.30769C16.9375 1.4809 18.4206 0 20.25 0C22.0794 0 23.5625 1.4809 23.5625 3.30769Z" fill="#D9D9D9"/>
<path d="M23.5625 43C23.5625 44.8268 22.0794 46.3077 20.25 46.3077C18.4206 46.3077 16.9375 44.8268 16.9375 43C16.9375 41.1732 18.4206 39.6923 20.25 39.6923C22.0794 39.6923 23.5625 41.1732 23.5625 43Z" fill="#219AD6"/>
<path d="M23.5625 23.1538C23.5625 24.9806 22.0794 26.4615 20.25 26.4615C18.4206 26.4615 16.9375 24.9806 16.9375 23.1538C16.9375 21.3271 18.4206 19.8462 20.25 19.8462C22.0794 19.8462 23.5625 21.3271 23.5625 23.1538Z" fill="#68A343"/>
<path d="M23.5625 62.8462C23.5625 64.6729 22.0794 66.1538 20.25 66.1538C18.4206 66.1538 16.9375 64.6729 16.9375 62.8462C16.9375 61.0194 18.4206 59.5385 20.25 59.5385C22.0794 59.5385 23.5625 61.0194 23.5625 62.8462Z" fill="#F89623"/>
<path d="M23.5625 13.2308C23.5625 15.0576 22.0794 16.5385 20.25 16.5385C18.4206 16.5385 16.9375 15.0576 16.9375 13.2308C16.9375 11.404 18.4206 9.92308 20.25 9.92308C22.0794 9.92308 23.5625 11.404 23.5625 13.2308Z" fill="#219AD6"/>
<path d="M23.5625 52.9231C23.5625 54.7499 22.0794 56.2308 20.25 56.2308C18.4206 56.2308 16.9375 54.7499 16.9375 52.9231C16.9375 51.0963 18.4206 49.6154 20.25 49.6154C22.0794 49.6154 23.5625 51.0963 23.5625 52.9231Z" fill="#68A343"/>
<path d="M23.5625 33.0769C23.5625 34.9037 22.0794 36.3846 20.25 36.3846C18.4206 36.3846 16.9375 34.9037 16.9375 33.0769C16.9375 31.2501 18.4206 29.7692 20.25 29.7692C22.0794 29.7692 23.5625 31.2501 23.5625 33.0769Z" fill="#F89623"/>
<path d="M23.5625 72.7692C23.5625 74.596 22.0794 76.0769 20.25 76.0769C18.4206 76.0769 16.9375 74.596 16.9375 72.7692C16.9375 70.9424 18.4206 69.4615 20.25 69.4615C22.0794 69.4615 23.5625 70.9424 23.5625 72.7692Z" fill="#219AD6"/>
<path d="M23.5625 82.6923C23.5625 84.5191 22.0794 86 20.25 86C18.4206 86 16.9375 84.5191 16.9375 82.6923C16.9375 80.8655 18.4206 79.3846 20.25 79.3846C22.0794 79.3846 23.5625 80.8655 23.5625 82.6923Z" fill="#D9D9D9"/>
<path d="M43.4375 3.30769C43.4375 5.13448 41.9544 6.61538 40.125 6.61538C38.2956 6.61538 36.8125 5.13448 36.8125 3.30769C36.8125 1.4809 38.2956 0 40.125 0C41.9544 0 43.4375 1.4809 43.4375 3.30769Z" fill="#D9D9D9"/>
<path d="M43.4375 43C43.4375 44.8268 41.9544 46.3077 40.125 46.3077C38.2956 46.3077 36.8125 44.8268 36.8125 43C36.8125 41.1732 38.2956 39.6923 40.125 39.6923C41.9544 39.6923 43.4375 41.1732 43.4375 43Z" fill="#D9D9D9"/>
<path d="M43.4375 23.1538C43.4375 24.9806 41.9544 26.4615 40.125 26.4615C38.2956 26.4615 36.8125 24.9806 36.8125 23.1538C36.8125 21.3271 38.2956 19.8462 40.125 19.8462C41.9544 19.8462 43.4375 21.3271 43.4375 23.1538Z" fill="#68A343"/>
<path d="M43.4375 62.8462C43.4375 64.6729 41.9544 66.1538 40.125 66.1538C38.2956 66.1538 36.8125 64.6729 36.8125 62.8462C36.8125 61.0194 38.2956 59.5385 40.125 59.5385C41.9544 59.5385 43.4375 61.0194 43.4375 62.8462Z" fill="#219AD6"/>
<path d="M43.4375 13.2308C43.4375 15.0576 41.9544 16.5385 40.125 16.5385C38.2956 16.5385 36.8125 15.0576 36.8125 13.2308C36.8125 11.404 38.2956 9.92308 40.125 9.92308C41.9544 9.92308 43.4375 11.404 43.4375 13.2308Z" fill="#219AD6"/>
<path d="M43.4375 52.9231C43.4375 54.7499 41.9544 56.2308 40.125 56.2308C38.2956 56.2308 36.8125 54.7499 36.8125 52.9231C36.8125 51.0963 38.2956 49.6154 40.125 49.6154C41.9544 49.6154 43.4375 51.0963 43.4375 52.9231Z" fill="#F89623"/>
<path d="M43.4375 33.0769C43.4375 34.9037 41.9544 36.3846 40.125 36.3846C38.2956 36.3846 36.8125 34.9037 36.8125 33.0769C36.8125 31.2501 38.2956 29.7692 40.125 29.7692C41.9544 29.7692 43.4375 31.2501 43.4375 33.0769Z" fill="#D9D9D9"/>
<path d="M43.4375 72.7692C43.4375 74.596 41.9544 76.0769 40.125 76.0769C38.2956 76.0769 36.8125 74.596 36.8125 72.7692C36.8125 70.9424 38.2956 69.4615 40.125 69.4615C41.9544 69.4615 43.4375 70.9424 43.4375 72.7692Z" fill="#68A343"/>
<path d="M43.4375 82.6923C43.4375 84.5191 41.9544 86 40.125 86C38.2956 86 36.8125 84.5191 36.8125 82.6923C36.8125 80.8655 38.2956 79.3846 40.125 79.3846C41.9544 79.3846 43.4375 80.8655 43.4375 82.6923Z" fill="#D9D9D9"/>
<path d="M63.3125 3.30769C63.3125 5.13448 61.8294 6.61538 60 6.61538C58.1706 6.61538 56.6875 5.13448 56.6875 3.30769C56.6875 1.4809 58.1706 0 60 0C61.8294 0 63.3125 1.4809 63.3125 3.30769Z" fill="#D9D9D9"/>
<path d="M63.3125 43C63.3125 44.8268 61.8294 46.3077 60 46.3077C58.1706 46.3077 56.6875 44.8268 56.6875 43C56.6875 41.1732 58.1706 39.6923 60 39.6923C61.8294 39.6923 63.3125 41.1732 63.3125 43Z" fill="#219AD6"/>
<path d="M63.3125 23.1538C63.3125 24.9806 61.8294 26.4615 60 26.4615C58.1706 26.4615 56.6875 24.9806 56.6875 23.1538C56.6875 21.3271 58.1706 19.8462 60 19.8462C61.8294 19.8462 63.3125 21.3271 63.3125 23.1538Z" fill="#68A343"/>
<path d="M63.3125 62.8462C63.3125 64.6729 61.8294 66.1538 60 66.1538C58.1706 66.1538 56.6875 64.6729 56.6875 62.8462C56.6875 61.0194 58.1706 59.5385 60 59.5385C61.8294 59.5385 63.3125 61.0194 63.3125 62.8462Z" fill="#F89623"/>
<path d="M63.3125 13.2308C63.3125 15.0576 61.8294 16.5385 60 16.5385C58.1706 16.5385 56.6875 15.0576 56.6875 13.2308C56.6875 11.404 58.1706 9.92308 60 9.92308C61.8294 9.92308 63.3125 11.404 63.3125 13.2308Z" fill="#219AD6"/>
<path d="M63.3125 52.9231C63.3125 54.7499 61.8294 56.2308 60 56.2308C58.1706 56.2308 56.6875 54.7499 56.6875 52.9231C56.6875 51.0963 58.1706 49.6154 60 49.6154C61.8294 49.6154 63.3125 51.0963 63.3125 52.9231Z" fill="#68A343"/>
<path d="M63.3125 33.0769C63.3125 34.9037 61.8294 36.3846 60 36.3846C58.1706 36.3846 56.6875 34.9037 56.6875 33.0769C56.6875 31.2501 58.1706 29.7692 60 29.7692C61.8294 29.7692 63.3125 31.2501 63.3125 33.0769Z" fill="#F89623"/>
<path d="M63.3125 72.7692C63.3125 74.596 61.8294 76.0769 60 76.0769C58.1706 76.0769 56.6875 74.596 56.6875 72.7692C56.6875 70.9424 58.1706 69.4615 60 69.4615C61.8294 69.4615 63.3125 70.9424 63.3125 72.7692Z" fill="#219AD6"/>
<path d="M63.3125 82.6923C63.3125 84.5191 61.8294 86 60 86C58.1706 86 56.6875 84.5191 56.6875 82.6923C56.6875 80.8655 58.1706 79.3846 60 79.3846C61.8294 79.3846 63.3125 80.8655 63.3125 82.6923Z" fill="#D9D9D9"/>
<path d="M83.1875 3.30769C83.1875 5.13448 81.7044 6.61538 79.875 6.61538C78.0456 6.61538 76.5625 5.13448 76.5625 3.30769C76.5625 1.4809 78.0456 0 79.875 0C81.7044 0 83.1875 1.4809 83.1875 3.30769Z" fill="#D9D9D9"/>
<path d="M83.1875 43C83.1875 44.8268 81.7044 46.3077 79.875 46.3077C78.0456 46.3077 76.5625 44.8268 76.5625 43C76.5625 41.1732 78.0456 39.6923 79.875 39.6923C81.7044 39.6923 83.1875 41.1732 83.1875 43Z" fill="#68A343"/>
<path d="M83.1875 23.1538C83.1875 24.9806 81.7044 26.4615 79.875 26.4615C78.0456 26.4615 76.5625 24.9806 76.5625 23.1538C76.5625 21.3271 78.0456 19.8462 79.875 19.8462C81.7044 19.8462 83.1875 21.3271 83.1875 23.1538Z" fill="#D9D9D9"/>
<path d="M83.1875 62.8462C83.1875 64.6729 81.7044 66.1538 79.875 66.1538C78.0456 66.1538 76.5625 64.6729 76.5625 62.8462C76.5625 61.0194 78.0456 59.5385 79.875 59.5385C81.7044 59.5385 83.1875 61.0194 83.1875 62.8462Z" fill="#D9D9D9"/>
<path d="M83.1875 13.2308C83.1875 15.0576 81.7044 16.5385 79.875 16.5385C78.0456 16.5385 76.5625 15.0576 76.5625 13.2308C76.5625 11.404 78.0456 9.92308 79.875 9.92308C81.7044 9.92308 83.1875 11.404 83.1875 13.2308Z" fill="#219AD6"/>
<path d="M83.1875 52.9231C83.1875 54.7499 81.7044 56.2308 79.875 56.2308C78.0456 56.2308 76.5625 54.7499 76.5625 52.9231C76.5625 51.0963 78.0456 49.6154 79.875 49.6154C81.7044 49.6154 83.1875 51.0963 83.1875 52.9231Z" fill="#D9D9D9"/>
<path d="M83.1875 33.0769C83.1875 34.9037 81.7044 36.3846 79.875 36.3846C78.0456 36.3846 76.5625 34.9037 76.5625 33.0769C76.5625 31.2501 78.0456 29.7692 79.875 29.7692C81.7044 29.7692 83.1875 31.2501 83.1875 33.0769Z" fill="#D9D9D9"/>
<path d="M83.1875 72.7692C83.1875 74.596 81.7044 76.0769 79.875 76.0769C78.0456 76.0769 76.5625 74.596 76.5625 72.7692C76.5625 70.9424 78.0456 69.4615 79.875 69.4615C81.7044 69.4615 83.1875 70.9424 83.1875 72.7692Z" fill="#F89623"/>
<path d="M83.1875 82.6923C83.1875 84.5191 81.7044 86 79.875 86C78.0456 86 76.5625 84.5191 76.5625 82.6923C76.5625 80.8655 78.0456 79.3846 79.875 79.3846C81.7044 79.3846 83.1875 80.8655 83.1875 82.6923Z" fill="#D9D9D9"/>
<path d="M103.062 3.30769C103.062 5.13448 101.579 6.61538 99.75 6.61538C97.9206 6.61538 96.4375 5.13448 96.4375 3.30769C96.4375 1.4809 97.9206 0 99.75 0C101.579 0 103.062 1.4809 103.062 3.30769Z" fill="#D9D9D9"/>
<path d="M103.062 43C103.062 44.8268 101.579 46.3077 99.75 46.3077C97.9206 46.3077 96.4375 44.8268 96.4375 43C96.4375 41.1732 97.9206 39.6923 99.75 39.6923C101.579 39.6923 103.062 41.1732 103.062 43Z" fill="#219AD6"/>
<path d="M103.062 23.1538C103.062 24.9806 101.579 26.4615 99.75 26.4615C97.9206 26.4615 96.4375 24.9806 96.4375 23.1538C96.4375 21.3271 97.9206 19.8462 99.75 19.8462C101.579 19.8462 103.062 21.3271 103.062 23.1538Z" fill="#68A343"/>
<path d="M103.062 62.8462C103.062 64.6729 101.579 66.1538 99.75 66.1538C97.9206 66.1538 96.4375 64.6729 96.4375 62.8462C96.4375 61.0194 97.9206 59.5385 99.75 59.5385C101.579 59.5385 103.062 61.0194 103.062 62.8462Z" fill="#F89623"/>
<path d="M103.062 13.2308C103.062 15.0576 101.579 16.5385 99.75 16.5385C97.9206 16.5385 96.4375 15.0576 96.4375 13.2308C96.4375 11.404 97.9206 9.92308 99.75 9.92308C101.579 9.92308 103.062 11.404 103.062 13.2308Z" fill="#219AD6"/>
<path d="M103.062 52.9231C103.062 54.7499 101.579 56.2308 99.75 56.2308C97.9206 56.2308 96.4375 54.7499 96.4375 52.9231C96.4375 51.0963 97.9206 49.6154 99.75 49.6154C101.579 49.6154 103.062 51.0963 103.062 52.9231Z" fill="#68A343"/>
<path d="M103.062 33.0769C103.062 34.9037 101.579 36.3846 99.75 36.3846C97.9206 36.3846 96.4375 34.9037 96.4375 33.0769C96.4375 31.2501 97.9206 29.7692 99.75 29.7692C101.579 29.7692 103.062 31.2501 103.062 33.0769Z" fill="#F89623"/>
<path d="M103.062 72.7692C103.062 74.596 101.579 76.0769 99.75 76.0769C97.9206 76.0769 96.4375 74.596 96.4375 72.7692C96.4375 70.9424 97.9206 69.4615 99.75 69.4615C101.579 69.4615 103.062 70.9424 103.062 72.7692Z" fill="#219AD6"/>
<path d="M103.062 82.6923C103.062 84.5191 101.579 86 99.75 86C97.9206 86 96.4375 84.5191 96.4375 82.6923C96.4375 80.8655 97.9206 79.3846 99.75 79.3846C101.579 79.3846 103.062 80.8655 103.062 82.6923Z" fill="#D9D9D9"/>
<path d="M113 3.30769C113 5.13448 111.517 6.61538 109.688 6.61538C107.858 6.61538 106.375 5.13448 106.375 3.30769C106.375 1.4809 107.858 0 109.688 0C111.517 0 113 1.4809 113 3.30769Z" fill="#D9D9D9"/>
<path d="M113 43C113 44.8268 111.517 46.3077 109.688 46.3077C107.858 46.3077 106.375 44.8268 106.375 43C106.375 41.1732 107.858 39.6923 109.688 39.6923C111.517 39.6923 113 41.1732 113 43Z" fill="#D9D9D9"/>
<path d="M113 23.1538C113 24.9806 111.517 26.4615 109.688 26.4615C107.858 26.4615 106.375 24.9806 106.375 23.1538C106.375 21.3271 107.858 19.8462 109.688 19.8462C111.517 19.8462 113 21.3271 113 23.1538Z" fill="#D9D9D9"/>
<path d="M113 62.8462C113 64.6729 111.517 66.1538 109.688 66.1538C107.858 66.1538 106.375 64.6729 106.375 62.8462C106.375 61.0194 107.858 59.5385 109.688 59.5385C111.517 59.5385 113 61.0194 113 62.8462Z" fill="#D9D9D9"/>
<path d="M113 13.2308C113 15.0576 111.517 16.5385 109.688 16.5385C107.858 16.5385 106.375 15.0576 106.375 13.2308C106.375 11.404 107.858 9.92308 109.688 9.92308C111.517 9.92308 113 11.404 113 13.2308Z" fill="#D9D9D9"/>
<path d="M113 52.9231C113 54.7499 111.517 56.2308 109.688 56.2308C107.858 56.2308 106.375 54.7499 106.375 52.9231C106.375 51.0963 107.858 49.6154 109.688 49.6154C111.517 49.6154 113 51.0963 113 52.9231Z" fill="#D9D9D9"/>
<path d="M113 33.0769C113 34.9037 111.517 36.3846 109.688 36.3846C107.858 36.3846 106.375 34.9037 106.375 33.0769C106.375 31.2501 107.858 29.7692 109.688 29.7692C111.517 29.7692 113 31.2501 113 33.0769Z" fill="#D9D9D9"/>
<path d="M113 72.7692C113 74.596 111.517 76.0769 109.688 76.0769C107.858 76.0769 106.375 74.596 106.375 72.7692C106.375 70.9424 107.858 69.4615 109.688 69.4615C111.517 69.4615 113 70.9424 113 72.7692Z" fill="#D9D9D9"/>
<path d="M113 82.6923C113 84.5191 111.517 86 109.688 86C107.858 86 106.375 84.5191 106.375 82.6923C106.375 80.8655 107.858 79.3846 109.688 79.3846C111.517 79.3846 113 80.8655 113 82.6923Z" fill="#D9D9D9"/>
<path d="M0.480469 97.3438H1.65234V99.8516H1.72656L3.78125 97.3438H5.19531L3.08203 99.875L5.21875 103H3.80859L2.24219 100.66L1.65234 101.383V103H0.480469V97.3438ZM10.6289 100.172C10.6289 100.773 10.5143 101.293 10.2852 101.73C10.0586 102.168 9.74479 102.503 9.34375 102.734C8.94531 102.964 8.49349 103.078 7.98828 103.078C7.48307 103.078 7.02995 102.964 6.62891 102.734C6.23047 102.503 5.91667 102.168 5.6875 101.73C5.46094 101.29 5.34766 100.771 5.34766 100.172C5.34766 99.5703 5.46094 99.0508 5.6875 98.6133C5.91667 98.1732 6.23047 97.8385 6.62891 97.6094C7.02995 97.3802 7.48307 97.2656 7.98828 97.2656C8.49349 97.2656 8.94531 97.3802 9.34375 97.6094C9.74479 97.8385 10.0586 98.1732 10.2852 98.6133C10.5143 99.0508 10.6289 99.5703 10.6289 100.172ZM9.44141 100.172C9.44141 99.7734 9.38151 99.4349 9.26172 99.1562C9.14453 98.8776 8.97656 98.6667 8.75781 98.5234C8.53906 98.3776 8.28255 98.3047 7.98828 98.3047C7.69661 98.3047 7.44141 98.3776 7.22266 98.5234C7.00651 98.6667 6.83724 98.8776 6.71484 99.1562C6.59505 99.4349 6.53516 99.7734 6.53516 100.172C6.53516 100.568 6.59505 100.905 6.71484 101.184C6.83724 101.46 7.00651 101.671 7.22266 101.816C7.44141 101.962 7.69661 102.036 7.98828 102.039C8.28255 102.036 8.53906 101.962 8.75781 101.816C8.97656 101.671 9.14453 101.46 9.26172 101.184C9.38151 100.905 9.44141 100.568 9.44141 100.172ZM11.4805 97.3438H13.6914C14.1159 97.3438 14.4805 97.4193 14.7852 97.5703C15.0898 97.7188 15.3216 97.9323 15.4805 98.2109C15.6393 98.4896 15.7188 98.8151 15.7188 99.1875C15.7188 99.5599 15.638 99.8815 15.4766 100.152C15.3177 100.423 15.0833 100.632 14.7734 100.777C14.4661 100.921 14.0964 100.992 13.6641 100.992H12.168V100.035H13.4805C13.7096 100.035 13.901 100.004 14.0547 99.9414C14.2083 99.8763 14.3229 99.7826 14.3984 99.6602C14.474 99.5352 14.5117 99.3776 14.5117 99.1875C14.5117 98.9974 14.474 98.8359 14.3984 98.7031C14.3229 98.5703 14.207 98.4714 14.0508 98.4062C13.8971 98.3411 13.7057 98.3086 13.4766 98.3086H12.6523V103H11.4805V97.3438ZM15.9219 103H14.6172L13.2461 100.43H14.5156L15.9219 103ZM16.5352 97.3438H20.332V98.3125H17.707V99.6875H20.1328V100.652H17.707V102.031H20.3398V103H16.5352V97.3438ZM20.9297 103L22.8828 97.3438H24.3906L26.3477 103H25.0859L23.6602 98.6211H23.6133L22.1836 103H20.9297ZM25.1406 100.777V101.695H22.1211V100.777H25.1406Z" fill="#219AD6"/>
<path d="M28.8398 97.3438H32.6367V98.3125H30.0117V99.6875H32.4375V100.652H30.0117V102.031H32.6445V103H28.8398V97.3438ZM38.2656 103H37.25L34.7656 99.4062H34.7227V103H33.5508V97.3438H34.582L37.0469 100.934H37.0977V97.3438H38.2656V103ZM39.0039 97.3438H43.6367V98.3125H41.9023V103H40.7422V98.3125H39.0039V97.3438ZM44.3711 97.3438H48.168V98.3125H45.543V99.6875H47.9688V100.652H45.543V102.031H48.1758V103H44.3711V97.3438ZM49.082 97.3438H51.293C51.7174 97.3438 52.082 97.4193 52.3867 97.5703C52.6914 97.7188 52.9232 97.9323 53.082 98.2109C53.2409 98.4896 53.3203 98.8151 53.3203 99.1875C53.3203 99.5599 53.2396 99.8815 53.0781 100.152C52.9193 100.423 52.6849 100.632 52.375 100.777C52.0677 100.921 51.6979 100.992 51.2656 100.992H49.7695V100.035H51.082C51.3112 100.035 51.5026 100.004 51.6562 99.9414C51.8099 99.8763 51.9245 99.7826 52 99.6602C52.0755 99.5352 52.1133 99.3776 52.1133 99.1875C52.1133 98.9974 52.0755 98.8359 52 98.7031C51.9245 98.5703 51.8086 98.4714 51.6523 98.4062C51.4987 98.3411 51.3073 98.3086 51.0781 98.3086H50.2539V103H49.082V97.3438ZM53.5234 103H52.2188L50.8477 100.43H52.1172L53.5234 103ZM54.1367 97.3438H56.3477C56.7695 97.3438 57.1328 97.4245 57.4375 97.5859C57.7448 97.7448 57.9779 97.9688 58.1367 98.2578C58.2956 98.5469 58.375 98.8789 58.375 99.2539C58.375 99.6315 58.2943 99.9635 58.1328 100.25C57.9714 100.534 57.7357 100.757 57.4258 100.918C57.1159 101.077 56.7474 101.156 56.3203 101.156H54.8984V100.211H56.1367C56.3633 100.211 56.5534 100.172 56.707 100.094C56.8633 100.013 56.9792 99.901 57.0547 99.7578C57.1302 99.6146 57.168 99.4466 57.168 99.2539C57.168 99.0612 57.1302 98.8945 57.0547 98.7539C56.9792 98.6107 56.8633 98.5013 56.707 98.4258C56.5508 98.3477 56.3594 98.3086 56.1328 98.3086H55.3086V103H54.1367V97.3438ZM59.1211 97.3438H61.332C61.7565 97.3438 62.1211 97.4193 62.4258 97.5703C62.7305 97.7188 62.9622 97.9323 63.1211 98.2109C63.2799 98.4896 63.3594 98.8151 63.3594 99.1875C63.3594 99.5599 63.2786 99.8815 63.1172 100.152C62.9583 100.423 62.724 100.632 62.4141 100.777C62.1068 100.921 61.737 100.992 61.3047 100.992H59.8086V100.035H61.1211C61.3503 100.035 61.5417 100.004 61.6953 99.9414C61.849 99.8763 61.9635 99.7826 62.0391 99.6602C62.1146 99.5352 62.1523 99.3776 62.1523 99.1875C62.1523 98.9974 62.1146 98.8359 62.0391 98.7031C61.9635 98.5703 61.8477 98.4714 61.6914 98.4062C61.5378 98.3411 61.3464 98.3086 61.1172 98.3086H60.293V103H59.1211V97.3438ZM63.5625 103H62.2578L60.8867 100.43H62.1562L63.5625 103ZM65.3477 103H64.1758V97.3438H65.3477V103ZM69.3711 98.9609C69.3581 98.8099 69.3112 98.681 69.2305 98.5742C69.1497 98.4674 69.0378 98.3867 68.8945 98.332C68.7539 98.2773 68.5872 98.25 68.3945 98.25C68.2018 98.25 68.0365 98.2773 67.8984 98.332C67.7604 98.3867 67.6549 98.4635 67.582 98.5625C67.5091 98.6589 67.4727 98.7695 67.4727 98.8945C67.4674 99.0872 67.5456 99.2383 67.707 99.3477C67.8685 99.4544 68.0911 99.5404 68.375 99.6055L68.8828 99.7266C69.4167 99.849 69.832 100.043 70.1289 100.309C70.4284 100.574 70.5781 100.934 70.5781 101.387C70.5781 101.73 70.4909 102.03 70.3164 102.285C70.1445 102.54 69.8932 102.737 69.5625 102.875C69.2344 103.01 68.8424 103.078 68.3867 103.078C67.9284 103.081 67.5312 103.012 67.1953 102.871C66.862 102.728 66.6016 102.52 66.4141 102.246C66.2292 101.97 66.1302 101.633 66.1172 101.234H67.2578C67.2708 101.419 67.3255 101.577 67.4219 101.707C67.5182 101.835 67.6471 101.931 67.8086 101.996C67.9727 102.059 68.1615 102.09 68.375 102.09C68.5781 102.09 68.7565 102.06 68.9102 102C69.0638 101.94 69.1823 101.857 69.2656 101.75C69.349 101.643 69.3906 101.52 69.3906 101.379C69.3906 101.254 69.3542 101.147 69.2812 101.059C69.2083 100.97 69.1016 100.896 68.9609 100.836C68.8229 100.776 68.6445 100.719 68.4258 100.664L67.8047 100.516C67.3099 100.393 66.9297 100.207 66.6641 99.957C66.3984 99.7044 66.2669 99.3763 66.2695 98.9727C66.2695 98.6367 66.3607 98.3385 66.543 98.0781C66.7253 97.8177 66.9779 97.6172 67.3008 97.4766C67.6263 97.3359 67.9948 97.2656 68.4062 97.2656C68.8177 97.2656 69.181 97.3372 69.4961 97.4805C69.8138 97.6211 70.0599 97.8203 70.2344 98.0781C70.4089 98.3359 70.4974 98.6302 70.5 98.9609H69.3711ZM71.3477 97.3438H75.1445V98.3125H72.5195V99.6875H74.9453V100.652H72.5195V102.031H75.1523V103H71.3477V97.3438Z" fill="#68A343"/>
<path d="M79.082 103H77.9102V97.3438H79.082V103ZM84.7578 103H83.7422L81.2578 99.4062H81.2148V103H80.043V97.3438H81.0742L83.5391 100.934H83.5898V97.3438H84.7578V103ZM88.7852 98.9609C88.7721 98.8099 88.7253 98.681 88.6445 98.5742C88.5638 98.4674 88.4518 98.3867 88.3086 98.332C88.168 98.2773 88.0013 98.25 87.8086 98.25C87.6159 98.25 87.4505 98.2773 87.3125 98.332C87.1745 98.3867 87.069 98.4635 86.9961 98.5625C86.9232 98.6589 86.8867 98.7695 86.8867 98.8945C86.8815 99.0872 86.9596 99.2383 87.1211 99.3477C87.2826 99.4544 87.5052 99.5404 87.7891 99.6055L88.2969 99.7266C88.8307 99.849 89.2461 100.043 89.543 100.309C89.8424 100.574 89.9922 100.934 89.9922 101.387C89.9922 101.73 89.9049 102.03 89.7305 102.285C89.5586 102.54 89.3073 102.737 88.9766 102.875C88.6484 103.01 88.2565 103.078 87.8008 103.078C87.3424 103.081 86.9453 103.012 86.6094 102.871C86.276 102.728 86.0156 102.52 85.8281 102.246C85.6432 101.97 85.5443 101.633 85.5312 101.234H86.6719C86.6849 101.419 86.7396 101.577 86.8359 101.707C86.9323 101.835 87.0612 101.931 87.2227 101.996C87.3867 102.059 87.5755 102.09 87.7891 102.09C87.9922 102.09 88.1706 102.06 88.3242 102C88.4779 101.94 88.5964 101.857 88.6797 101.75C88.763 101.643 88.8047 101.52 88.8047 101.379C88.8047 101.254 88.7682 101.147 88.6953 101.059C88.6224 100.97 88.5156 100.896 88.375 100.836C88.237 100.776 88.0586 100.719 87.8398 100.664L87.2188 100.516C86.724 100.393 86.3438 100.207 86.0781 99.957C85.8125 99.7044 85.681 99.3763 85.6836 98.9727C85.6836 98.6367 85.7747 98.3385 85.957 98.0781C86.1393 97.8177 86.3919 97.6172 86.7148 97.4766C87.0404 97.3359 87.4089 97.2656 87.8203 97.2656C88.2318 97.2656 88.5951 97.3372 88.9102 97.4805C89.2279 97.6211 89.474 97.8203 89.6484 98.0781C89.8229 98.3359 89.9115 98.6302 89.9141 98.9609H88.7852ZM90.5352 97.3438H95.168V98.3125H93.4336V103H92.2734V98.3125H90.5352V97.3438ZM97.0742 103H95.9023V97.3438H97.0742V103ZM97.8086 97.3438H102.441V98.3125H100.707V103H99.5469V98.3125H97.8086V97.3438ZM107.852 97.3438V101.02C107.852 101.428 107.754 101.789 107.559 102.102C107.366 102.411 107.091 102.652 106.734 102.824C106.38 102.993 105.973 103.078 105.512 103.078C105.046 103.078 104.637 102.993 104.285 102.824C103.934 102.652 103.66 102.411 103.465 102.102C103.272 101.789 103.176 101.428 103.176 101.02V97.3438H104.348V100.922C104.348 101.138 104.396 101.331 104.492 101.5C104.589 101.669 104.724 101.803 104.898 101.902C105.076 101.999 105.28 102.047 105.512 102.047C105.741 102.047 105.944 101.999 106.121 101.902C106.301 101.803 106.438 101.669 106.531 101.5C106.625 101.331 106.673 101.138 106.676 100.922V97.3438H107.852ZM108.582 97.3438H113.215V98.3125H111.48V103H110.32V98.3125H108.582V97.3438ZM113.949 97.3438H117.746V98.3125H115.121V99.6875H117.547V100.652H115.121V102.031H117.754V103H113.949V97.3438Z" fill="#F89623"/>
</svg>
