<svg width="190" height="32" viewBox="0 0 190 32" fill="none" xmlns="http://www.w3.org/2000/svg">
<path d="M56.4927 13.847H54.1116V1.03766H56.4927V13.847ZM58.7897 8.25766H55.8017V6.28771H58.7897V8.25766ZM53.0938 4.72306H43V2.82852H53.0938V4.72306ZM48.0609 5.3263C48.8702 5.3263 49.5923 5.46769 50.2272 5.75045C50.8622 6.02694 51.3571 6.41653 51.7119 6.91922C52.0667 7.42192 52.2441 8.00002 52.2441 8.65353C52.2441 9.30075 52.0667 9.87257 51.7119 10.369C51.3571 10.8654 50.8622 11.2518 50.2272 11.5283C49.5923 11.7985 48.8702 11.9336 48.0609 11.9336C47.2392 11.9336 46.5078 11.7985 45.8666 11.5283C45.2317 11.2518 44.7337 10.8654 44.3726 10.369C44.0178 9.87257 43.8404 9.30075 43.8404 8.65353C43.8404 8.00002 44.0178 7.42192 44.3726 6.91922C44.7337 6.41653 45.2317 6.02694 45.8666 5.75045C46.5078 5.46769 47.2392 5.3263 48.0609 5.3263ZM48.0609 7.17372C47.675 7.17372 47.3388 7.23027 47.0525 7.34338C46.7661 7.45648 46.5451 7.62614 46.3895 7.85236C46.2339 8.07229 46.1561 8.33934 46.1561 8.65353C46.1561 8.96143 46.2339 9.22535 46.3895 9.44528C46.5451 9.65893 46.7661 9.8223 47.0525 9.93541C47.3388 10.0485 47.675 10.1051 48.0609 10.1051C48.4406 10.1051 48.7737 10.0485 49.06 9.93541C49.3526 9.8223 49.5798 9.65893 49.7417 9.44528C49.9035 9.22535 49.9844 8.96143 49.9844 8.65353C49.9844 8.33934 49.9035 8.07229 49.7417 7.85236C49.5798 7.62614 49.3526 7.45648 49.06 7.34338C48.7737 7.23027 48.4406 7.17372 48.0609 7.17372ZM49.2468 3.76166H46.8657V1.00939H49.2468V3.76166ZM57.0996 17.8812H45.4651V15.9395H57.0996V17.8812ZM47.8462 16.769H45.4651V12.8573H47.8462V16.769Z" fill="#219AD6"/>
<path d="M72.3104 3.67683H61.4415V1.77286H72.3104V3.67683ZM75.0836 9.60551H59.546V7.6827H75.0836V9.60551ZM68.4727 12.6688H66.0823V9.03055H68.4727V12.6688ZM73.2441 3.11129C73.2441 4.12925 73.213 5.04668 73.1507 5.86356C73.0947 6.67416 72.9484 7.58844 72.7119 8.6064L70.3588 8.35191C70.5082 7.68584 70.6203 7.05747 70.695 6.4668C70.7697 5.87613 70.8164 5.35144 70.835 4.89272C70.8537 4.43401 70.8662 3.89047 70.8724 3.2621V1.77286H73.2441V3.11129ZM73.2628 18.1734H70.8724V13.9507H61.0961V12.0562H73.2628V18.1734Z" fill="#219AD6"/>
<path d="M90.3504 18.1734H87.932V0.999961H90.3504V18.1734ZM85.2615 2.80967C85.2552 4.6508 85.0093 6.32227 84.5238 7.82408C84.0382 9.31961 83.2134 10.6957 82.0494 11.9525C80.8853 13.2092 79.3259 14.3026 77.3713 15.2326L76.1201 13.3098C77.751 12.5306 79.0614 11.654 80.0511 10.68C81.0471 9.70605 81.7692 8.61269 82.2174 7.39993C82.6656 6.18717 82.8897 4.79847 82.8897 3.23382V2.80967H85.2615ZM83.9822 4.70421H77.0258V2.80967H83.9822V4.70421Z" fill="#68A343"/>
<path d="M105.552 6.74956H101.257V4.82675H105.552V6.74956ZM97.3348 1.74458C98.169 1.74458 98.9284 1.92053 99.6132 2.27241C100.298 2.61802 100.836 3.10186 101.229 3.72395C101.627 4.33976 101.829 5.03411 101.835 5.80701C101.829 6.59247 101.627 7.29625 101.229 7.91834C100.836 8.54042 100.298 9.03055 99.6132 9.38873C98.9284 9.74061 98.169 9.91656 97.3348 9.91656C96.4695 9.91656 95.6914 9.74061 95.0005 9.38873C94.3157 9.03055 93.7772 8.54042 93.3851 7.91834C92.9991 7.29625 92.8061 6.59247 92.8061 5.80701C92.8061 5.03411 92.9991 4.33976 93.3851 3.72395C93.7772 3.10186 94.3157 2.61802 95.0005 2.27241C95.6914 1.92053 96.4695 1.74458 97.3348 1.74458ZM97.3348 3.75223C96.8928 3.74595 96.5007 3.82449 96.1583 3.98787C95.8159 4.15125 95.5482 4.39003 95.3553 4.70421C95.1623 5.0184 95.0658 5.386 95.0658 5.80701C95.0658 6.22802 95.1623 6.59561 95.3553 6.9098C95.5482 7.22398 95.8159 7.46905 96.1583 7.64499C96.5007 7.81465 96.8928 7.90263 97.3348 7.90891C97.7643 7.90263 98.1472 7.81465 98.4833 7.64499C98.8257 7.46905 99.0903 7.22398 99.277 6.9098C99.4638 6.59561 99.5571 6.22802 99.5571 5.80701C99.5571 5.386 99.4638 5.0184 99.277 4.70421C99.0903 4.39003 98.8257 4.15125 98.4833 3.98787C98.1472 3.82449 97.7643 3.74595 97.3348 3.75223ZM106.915 10.2465H104.543V0.999961H106.915V10.2465ZM97.9324 12.6406H104.543V10.9911H106.915V17.9849H95.5794V10.9911H97.9324V12.6406ZM104.543 16.0432V14.4974H97.9324V16.0432H104.543Z" fill="#68A343"/>
<path d="M115.207 5.68447C115.201 7.03547 115.011 8.32364 114.637 9.54896C114.264 10.7743 113.713 11.8614 112.984 12.8102C112.256 13.7528 111.378 14.466 110.351 14.9498L108.988 13.0553C109.903 12.6406 110.681 12.0436 111.322 11.2644C111.97 10.479 112.455 9.60551 112.779 8.6441C113.109 7.67641 113.274 6.68987 113.274 5.68447V3.68625H115.207V5.68447ZM115.702 5.68447C115.702 6.64588 115.864 7.58216 116.187 8.4933C116.511 9.39815 116.99 10.2182 117.625 10.9534C118.266 11.6823 119.048 12.2384 119.969 12.6217L118.68 14.5068C117.628 14.0607 116.738 13.3915 116.01 12.4992C115.281 11.6006 114.734 10.5669 114.366 9.39815C113.999 8.22938 113.819 6.99149 113.825 5.68447V3.68625H115.702V5.68447ZM119.269 4.63823H109.67V2.67771H119.269V4.63823ZM123.349 18.1734H120.931V0.999961H123.349V18.1734Z" fill="#68A343"/>
<path d="M131.669 3.45061C131.663 4.55655 131.476 5.59336 131.108 6.56105C130.747 7.52246 130.2 8.36448 129.465 9.08711C128.737 9.80345 127.84 10.3344 126.776 10.68L125.59 8.79491C126.505 8.49958 127.268 8.07543 127.878 7.52246C128.494 6.96321 128.948 6.33484 129.241 5.63735C129.534 4.93985 129.683 4.21094 129.689 3.45061V1.80113H131.669V3.45061ZM132.164 3.45061C132.157 4.19209 132.294 4.89587 132.574 5.56194C132.861 6.22173 133.303 6.8124 133.9 7.33395C134.498 7.84921 135.248 8.24195 136.151 8.51215L134.974 10.4067C133.916 10.0611 133.029 9.54896 132.313 8.87032C131.597 8.19168 131.059 7.39365 130.698 6.47622C130.343 5.55252 130.165 4.54398 130.165 3.45061V1.80113H132.164V3.45061ZM139.867 18.1734H137.486V13.9224H128.195V11.9902H139.867V18.1734ZM139.867 11.255H137.486V0.999961H139.867V11.255Z" fill="#68A343"/>
<path d="M154.975 5.364H149.933V3.43176H154.975V5.364ZM154.975 9.51126H149.933V7.58844H154.975V9.51126ZM156.497 13.5831H154.125V1.03766H156.497V13.5831ZM156.908 17.8812H145.217V15.9395H156.908V17.8812ZM147.608 16.9292H145.217V12.3107H147.608V16.9292ZM146.917 2.02735C147.739 2.02735 148.492 2.219 149.177 2.60231C149.868 2.98562 150.412 3.51659 150.811 4.19523C151.209 4.87387 151.411 5.63735 151.418 6.48565C151.411 7.32138 151.206 8.07543 150.801 8.74779C150.403 9.42015 149.861 9.95112 149.177 10.3407C148.492 10.724 147.739 10.9157 146.917 10.9157C146.064 10.9157 145.292 10.724 144.601 10.3407C143.916 9.95112 143.375 9.42015 142.976 8.74779C142.584 8.07543 142.388 7.32138 142.388 6.48565C142.388 5.63735 142.584 4.87387 142.976 4.19523C143.375 3.51659 143.916 2.98562 144.601 2.60231C145.292 2.219 146.064 2.02735 146.917 2.02735ZM146.917 4.16695C146.475 4.16067 146.083 4.25179 145.74 4.4403C145.398 4.62881 145.13 4.89901 144.937 5.2509C144.744 5.60279 144.648 6.01437 144.648 6.48565C144.648 6.95064 144.744 7.35594 144.937 7.70155C145.13 8.04715 145.398 8.31421 145.74 8.50272C146.083 8.68495 146.475 8.77921 146.917 8.78549C147.34 8.77921 147.72 8.68495 148.056 8.50272C148.392 8.31421 148.657 8.04715 148.85 7.70155C149.043 7.35594 149.139 6.95064 149.139 6.48565C149.139 6.01437 149.043 5.60593 148.85 5.26032C148.657 4.90843 148.392 4.63823 148.056 4.44972C147.72 4.25493 147.34 4.16067 146.917 4.16695Z" fill="#F89623"/>
<path d="M171.25 3.93132H160.475V2.02735H171.25V3.93132ZM174.21 11.2644H158.71V9.32275H174.21V11.2644ZM167.571 18.1922H165.181V10.6706H167.571V18.1922ZM172.39 3.64855C172.383 4.46543 172.371 5.17863 172.352 5.78816C172.333 6.39768 172.271 7.10145 172.165 7.89948C172.066 8.69752 171.913 9.55839 171.708 10.4821L169.355 10.2182C169.554 9.34474 169.7 8.52471 169.794 7.7581C169.887 6.9852 169.946 6.3097 169.971 5.7316C169.996 5.1535 170.008 4.45601 170.008 3.63912V2.02735H172.39V3.64855Z" fill="#F89623"/>
<path d="M182.11 13.5831H179.71V9.79403H182.11V13.5831ZM189.627 13.9978H187.236V1.03766H189.627V13.9978ZM190 17.8812H177.32V15.9395H190V17.8812ZM179.719 16.4579H177.32V12.7537H179.719V16.4579ZM175.163 8.6441C177.429 8.62525 179.421 8.58441 181.139 8.52157C182.857 8.45245 184.506 8.31735 186.088 8.11627L186.209 9.84115C184.566 10.1176 182.844 10.3061 181.045 10.4067C179.253 10.5009 177.385 10.5449 175.443 10.5386L175.163 8.6441ZM187.778 12.6311H183.987V10.9911H187.778V12.6311ZM180.691 1.61262C181.506 1.61262 182.237 1.74144 182.885 1.99907C183.532 2.2567 184.036 2.62116 184.398 3.09244C184.759 3.55743 184.939 4.08841 184.939 4.68536C184.939 5.29488 184.759 5.82586 184.398 6.27829C184.036 6.73071 183.532 7.08574 182.885 7.34338C182.244 7.59472 181.512 7.7204 180.691 7.7204C179.856 7.7204 179.116 7.59472 178.468 7.34338C177.827 7.08574 177.326 6.73071 176.965 6.27829C176.604 5.82586 176.423 5.29488 176.423 4.68536C176.423 4.08841 176.604 3.55429 176.965 3.08301C177.326 2.61173 177.83 2.25042 178.478 1.99907C179.125 1.74144 179.863 1.61262 180.691 1.61262ZM180.691 3.37521C180.286 3.37521 179.934 3.42548 179.635 3.52602C179.337 3.62656 179.1 3.77736 178.926 3.97844C178.758 4.17324 178.677 4.40888 178.683 4.68536C178.677 4.96185 178.758 5.19748 178.926 5.39228C179.1 5.58708 179.337 5.73474 179.635 5.83528C179.934 5.93582 180.286 5.98609 180.691 5.98609C181.083 5.98609 181.425 5.93582 181.718 5.83528C182.016 5.73474 182.25 5.58708 182.418 5.39228C182.586 5.19748 182.67 4.96185 182.67 4.68536C182.67 4.41516 182.586 4.17952 182.418 3.97844C182.25 3.77736 182.016 3.62656 181.718 3.52602C181.425 3.42548 181.083 3.37521 180.691 3.37521Z" fill="#F89623"/>
<path d="M44.3047 27.9006V20.8811H45.7749V23.9761H45.8666L48.3691 20.8811H50.1313L47.5508 24.0241L50.1619 27.9006H48.403L46.4982 25.0146L45.7749 25.9058V27.9006H44.3047Z" fill="#C7C8C9"/>
<path d="M56.895 24.3908C56.895 25.1563 56.7513 25.8075 56.4638 26.3445C56.1786 26.8815 55.7892 27.2916 55.2958 27.575C54.8046 27.856 54.2522 27.9965 53.6388 27.9965C53.0208 27.9965 52.4662 27.8549 51.975 27.5715C51.4838 27.2882 51.0956 26.878 50.8104 26.3411C50.5252 25.8041 50.3826 25.154 50.3826 24.3908C50.3826 23.6253 50.5252 22.9741 50.8104 22.4372C51.0956 21.9002 51.4838 21.4912 51.975 21.2101C52.4662 20.9268 53.0208 20.7851 53.6388 20.7851C54.2522 20.7851 54.8046 20.9268 55.2958 21.2101C55.7892 21.4912 56.1786 21.9002 56.4638 22.4372C56.7513 22.9741 56.895 23.6253 56.895 24.3908ZM55.4044 24.3908C55.4044 23.895 55.3309 23.4768 55.1837 23.1364C55.0389 22.7959 54.834 22.5377 54.5692 22.3618C54.3043 22.1858 53.9942 22.0978 53.6388 22.0978C53.2834 22.0978 52.9733 22.1858 52.7084 22.3618C52.4436 22.5377 52.2376 22.7959 52.0905 23.1364C51.9456 23.4768 51.8732 23.895 51.8732 24.3908C51.8732 24.8867 51.9456 25.3048 52.0905 25.6453C52.2376 25.9857 52.4436 26.2439 52.7084 26.4199C52.9733 26.5958 53.2834 26.6838 53.6388 26.6838C53.9942 26.6838 54.3043 26.5958 54.5692 26.4199C54.834 26.2439 55.0389 25.9857 55.1837 25.6453C55.3309 25.3048 55.4044 24.8867 55.4044 24.3908Z" fill="#C7C8C9"/>
<path d="M57.9841 27.9006V20.8811H60.7276C61.2528 20.8811 61.701 20.9759 62.0722 21.1656C62.4457 21.3529 62.7298 21.6191 62.9245 21.9642C63.1214 22.3069 63.2199 22.7102 63.2199 23.1741C63.2199 23.6402 63.1203 24.0412 62.9211 24.3771C62.7219 24.7107 62.4333 24.9666 62.0553 25.1449C61.6795 25.3231 61.2245 25.4122 60.6903 25.4122H58.8534V24.2194H60.4526C60.7333 24.2194 60.9665 24.1806 61.1521 24.1029C61.3377 24.0252 61.4758 23.9087 61.5663 23.7533C61.6591 23.5979 61.7055 23.4048 61.7055 23.1741C61.7055 22.941 61.6591 22.7445 61.5663 22.5845C61.4758 22.4246 61.3366 22.3035 61.1487 22.2212C60.9631 22.1367 60.7288 22.0944 60.4458 22.0944H59.4544V27.9006H57.9841ZM61.7395 24.7062L63.4678 27.9006H61.8447L60.1538 24.7062H61.7395Z" fill="#C7C8C9"/>
<path d="M64.2589 27.9006V20.8811H68.9446V22.1047H65.7291V23.7773H68.7036V25.0009H65.7291V26.677H68.9582V27.9006H64.2589Z" fill="#C7C8C9"/>
<path d="M71.3121 27.9006H69.7366L72.1372 20.8811H74.0319L76.429 27.9006H74.8536L73.1117 22.4851H73.0574L71.3121 27.9006ZM71.2136 25.1414H74.9351V26.2999H71.2136V25.1414Z" fill="#C7C8C9"/>
<path d="M79.479 27.9006V20.8811H84.1647V22.1047H80.9492V23.7773H83.9237V25.0009H80.9492V26.677H84.1783V27.9006H79.479Z" fill="#C7C8C9"/>
<path d="M91.15 20.8811V27.9006H89.8801L86.8548 23.4825H86.8038V27.9006H85.3336V20.8811H86.6239L89.6255 25.2957H89.6866V20.8811H91.15Z" fill="#C7C8C9"/>
<path d="M92.0999 22.1047V20.8811H97.811V22.1047H95.6821V27.9006H94.2288V22.1047H92.0999Z" fill="#C7C8C9"/>
<path d="M98.7516 27.9006V20.8811H103.437V22.1047H100.222V23.7773H103.196V25.0009H100.222V26.677H103.451V27.9006H98.7516Z" fill="#C7C8C9"/>
<path d="M104.606 27.9006V20.8811H107.35C107.875 20.8811 108.323 20.9759 108.694 21.1656C109.068 21.3529 109.352 21.6191 109.547 21.9642C109.743 22.3069 109.842 22.7102 109.842 23.1741C109.842 23.6402 109.742 24.0412 109.543 24.3771C109.344 24.7107 109.055 24.9666 108.677 25.1449C108.302 25.3231 107.847 25.4122 107.312 25.4122H105.475V24.2194H107.075C107.355 24.2194 107.589 24.1806 107.774 24.1029C107.96 24.0252 108.098 23.9087 108.188 23.7533C108.281 23.5979 108.328 23.4048 108.328 23.1741C108.328 22.941 108.281 22.7445 108.188 22.5845C108.098 22.4246 107.959 22.3035 107.771 22.2212C107.585 22.1367 107.351 22.0944 107.068 22.0944H106.076V27.9006H104.606ZM108.362 24.7062L110.09 27.9006H108.467L106.776 24.7062H108.362Z" fill="#C7C8C9"/>
<path d="M110.881 27.9006V20.8811H113.624C114.152 20.8811 114.601 20.9828 114.972 21.1861C115.344 21.3872 115.627 21.6671 115.821 22.0259C116.018 22.3823 116.117 22.7936 116.117 23.2597C116.117 23.7259 116.017 24.1372 115.818 24.4936C115.619 24.8501 115.33 25.1277 114.952 25.3265C114.576 25.5253 114.121 25.6247 113.587 25.6247H111.838V24.4354H113.349C113.632 24.4354 113.866 24.3862 114.049 24.288C114.235 24.1875 114.373 24.0492 114.463 23.8733C114.556 23.695 114.602 23.4905 114.602 23.2597C114.602 23.0267 114.556 22.8233 114.463 22.6497C114.373 22.4737 114.235 22.3378 114.049 22.2418C113.863 22.1435 113.628 22.0944 113.343 22.0944H112.351V27.9006H110.881Z" fill="#C7C8C9"/>
<path d="M117.072 27.9006V20.8811H119.815C120.34 20.8811 120.789 20.9759 121.16 21.1656C121.533 21.3529 121.817 21.6191 122.012 21.9642C122.209 22.3069 122.308 22.7102 122.308 23.1741C122.308 23.6402 122.208 24.0412 122.009 24.3771C121.81 24.7107 121.521 24.9666 121.143 25.1449C120.767 25.3231 120.312 25.4122 119.778 25.4122H117.941V24.2194H119.54C119.821 24.2194 120.054 24.1806 120.24 24.1029C120.425 24.0252 120.563 23.9087 120.654 23.7533C120.747 23.5979 120.793 23.4048 120.793 23.1741C120.793 22.941 120.747 22.7445 120.654 22.5845C120.563 22.4246 120.424 22.3035 120.236 22.2212C120.051 22.1367 119.816 22.0944 119.533 22.0944H118.542V27.9006H117.072ZM120.827 24.7062L122.555 27.9006H120.932L119.241 24.7062H120.827Z" fill="#C7C8C9"/>
<path d="M124.817 20.8811V27.9006H123.347V20.8811H124.817Z" fill="#C7C8C9"/>
<path d="M129.799 22.8999C129.772 22.6234 129.655 22.4086 129.449 22.2555C129.243 22.1024 128.963 22.0259 128.61 22.0259C128.37 22.0259 128.168 22.0601 128.003 22.1287C127.837 22.1949 127.711 22.2875 127.622 22.4063C127.536 22.5251 127.493 22.6599 127.493 22.8108C127.489 22.9364 127.515 23.0461 127.571 23.1398C127.63 23.2335 127.711 23.3146 127.812 23.3831C127.914 23.4494 128.032 23.5077 128.165 23.5579C128.299 23.6059 128.442 23.6471 128.593 23.6813L129.218 23.8321C129.521 23.9007 129.8 23.9921 130.053 24.1063C130.307 24.2206 130.526 24.3611 130.712 24.5279C130.898 24.6947 131.041 24.8912 131.143 25.1174C131.247 25.3437 131.301 25.603 131.303 25.8955C131.301 26.3251 131.192 26.6975 130.977 27.0128C130.764 27.3259 130.456 27.5692 130.053 27.7429C129.653 27.9143 129.169 28 128.604 28C128.042 28 127.553 27.9131 127.137 27.7395C126.722 27.5658 126.399 27.3087 126.166 26.9683C125.935 26.6255 125.814 26.2017 125.802 25.6967H127.225C127.241 25.932 127.308 26.1286 127.425 26.2862C127.545 26.4416 127.705 26.5593 127.904 26.6392C128.106 26.7169 128.333 26.7558 128.587 26.7558C128.836 26.7558 129.052 26.7192 129.235 26.6461C129.421 26.573 129.564 26.4713 129.666 26.3411C129.768 26.2108 129.819 26.0611 129.819 25.8921C129.819 25.7344 129.773 25.6019 129.68 25.4945C129.589 25.3871 129.456 25.2957 129.279 25.2203C129.105 25.1449 128.891 25.0763 128.637 25.0146L127.88 24.8227C127.294 24.6787 126.831 24.4537 126.492 24.1475C126.152 23.8413 125.983 23.4288 125.986 22.9101C125.983 22.4851 126.095 22.1138 126.322 21.7962C126.55 21.4786 126.864 21.2307 127.262 21.0525C127.661 20.8742 128.113 20.7851 128.62 20.7851C129.137 20.7851 129.587 20.8742 129.972 21.0525C130.359 21.2307 130.66 21.4786 130.875 21.7962C131.09 22.1138 131.201 22.4817 131.208 22.8999H129.799Z" fill="#C7C8C9"/>
<path d="M132.292 27.9006V20.8811H136.978V22.1047H133.762V23.7773H136.736V25.0009H133.762V26.677H136.991V27.9006H132.292Z" fill="#C7C8C9"/>
<path d="M141.83 20.8811V27.9006H140.359V20.8811H141.83Z" fill="#C7C8C9"/>
<path d="M148.856 20.8811V27.9006H147.586L144.56 23.4825H144.509V27.9006H143.039V20.8811H144.33L147.331 25.2957H147.392V20.8811H148.856Z" fill="#C7C8C9"/>
<path d="M153.843 22.8999C153.816 22.6234 153.699 22.4086 153.493 22.2555C153.287 22.1024 153.007 22.0259 152.654 22.0259C152.414 22.0259 152.212 22.0601 152.047 22.1287C151.881 22.1949 151.755 22.2875 151.666 22.4063C151.58 22.5251 151.537 22.6599 151.537 22.8108C151.533 22.9364 151.559 23.0461 151.615 23.1398C151.674 23.2335 151.755 23.3146 151.856 23.3831C151.958 23.4494 152.076 23.5077 152.21 23.5579C152.343 23.6059 152.486 23.6471 152.637 23.6813L153.262 23.8321C153.565 23.9007 153.844 23.9921 154.097 24.1063C154.351 24.2206 154.57 24.3611 154.756 24.5279C154.942 24.6947 155.085 24.8912 155.187 25.1174C155.291 25.3437 155.345 25.603 155.347 25.8955C155.345 26.3251 155.236 26.6975 155.021 27.0128C154.808 27.3259 154.5 27.5692 154.097 27.7429C153.697 27.9143 153.213 28 152.648 28C152.086 28 151.597 27.9131 151.181 27.7395C150.766 27.5658 150.443 27.3087 150.21 26.9683C149.979 26.6255 149.858 26.2017 149.846 25.6967H151.269C151.285 25.932 151.352 26.1286 151.469 26.2862C151.589 26.4416 151.749 26.5593 151.948 26.6392C152.15 26.7169 152.377 26.7558 152.631 26.7558C152.88 26.7558 153.096 26.7192 153.279 26.6461C153.465 26.573 153.608 26.4713 153.71 26.3411C153.812 26.2108 153.863 26.0611 153.863 25.8921C153.863 25.7344 153.817 25.6019 153.724 25.4945C153.633 25.3871 153.5 25.2957 153.323 25.2203C153.149 25.1449 152.935 25.0763 152.681 25.0146L151.924 24.8227C151.338 24.6787 150.875 24.4537 150.536 24.1475C150.196 23.8413 150.027 23.4288 150.03 22.9101C150.027 22.4851 150.139 22.1138 150.366 21.7962C150.594 21.4786 150.908 21.2307 151.306 21.0525C151.705 20.8742 152.157 20.7851 152.665 20.7851C153.181 20.7851 153.631 20.8742 154.016 21.0525C154.403 21.2307 154.704 21.4786 154.919 21.7962C155.134 22.1138 155.245 22.4817 155.252 22.8999H153.843Z" fill="#C7C8C9"/>
<path d="M156.071 22.1047V20.8811H161.782V22.1047H159.653V27.9006H158.2V22.1047H156.071Z" fill="#C7C8C9"/>
<path d="M164.193 20.8811V27.9006H162.723V20.8811H164.193Z" fill="#C7C8C9"/>
<path d="M165.138 22.1047V20.8811H170.849V22.1047H168.72V27.9006H167.267V22.1047H165.138Z" fill="#C7C8C9"/>
<path d="M176.085 20.8811H177.555V25.4396C177.555 25.9515 177.434 26.3993 177.192 26.7832C176.952 27.1671 176.615 27.4664 176.183 27.6812C175.751 27.8937 175.247 28 174.672 28C174.095 28 173.59 27.8937 173.158 27.6812C172.725 27.4664 172.389 27.1671 172.149 26.7832C171.909 26.3993 171.789 25.9515 171.789 25.4396V20.8811H173.26V25.3128C173.26 25.5802 173.317 25.8178 173.433 26.0257C173.55 26.2337 173.716 26.397 173.929 26.5159C174.141 26.6347 174.389 26.6941 174.672 26.6941C174.957 26.6941 175.205 26.6347 175.416 26.5159C175.628 26.397 175.793 26.2337 175.908 26.0257C176.026 25.8178 176.085 25.5802 176.085 25.3128V20.8811Z" fill="#C7C8C9"/>
<path d="M178.5 22.1047V20.8811H184.211V22.1047H182.082V27.9006H180.629V22.1047H178.5Z" fill="#C7C8C9"/>
<path d="M185.151 27.9006V20.8811H189.837V22.1047H186.622V23.7773H189.596V25.0009H186.622V26.677H189.851V27.9006H185.151Z" fill="#C7C8C9"/>
<path d="M2.375 1.23077C2.375 1.9105 1.84334 2.46154 1.1875 2.46154C0.531662 2.46154 0 1.9105 0 1.23077C0 0.551034 0.531662 0 1.1875 0C1.84334 0 2.375 0.551034 2.375 1.23077Z" fill="#D9D9D9"/>
<path d="M2.375 16C2.375 16.6797 1.84334 17.2308 1.1875 17.2308C0.531662 17.2308 0 16.6797 0 16C0 15.3203 0.531662 14.7692 1.1875 14.7692C1.84334 14.7692 2.375 15.3203 2.375 16Z" fill="#D9D9D9"/>
<path d="M2.375 8.61539C2.375 9.29512 1.84334 9.84615 1.1875 9.84615C0.531662 9.84615 0 9.29512 0 8.61539C0 7.93565 0.531662 7.38462 1.1875 7.38462C1.84334 7.38462 2.375 7.93565 2.375 8.61539Z" fill="#D9D9D9"/>
<path d="M2.375 23.3846C2.375 24.0644 1.84334 24.6154 1.1875 24.6154C0.531662 24.6154 0 24.0644 0 23.3846C0 22.7049 0.531662 22.1538 1.1875 22.1538C1.84334 22.1538 2.375 22.7049 2.375 23.3846Z" fill="#D9D9D9"/>
<path d="M2.375 4.92308C2.375 5.60281 1.84334 6.15385 1.1875 6.15385C0.531662 6.15385 0 5.60281 0 4.92308C0 4.24334 0.531662 3.69231 1.1875 3.69231C1.84334 3.69231 2.375 4.24334 2.375 4.92308Z" fill="#D9D9D9"/>
<path d="M2.375 19.6923C2.375 20.372 1.84334 20.9231 1.1875 20.9231C0.531662 20.9231 0 20.372 0 19.6923C0 19.0126 0.531662 18.4615 1.1875 18.4615C1.84334 18.4615 2.375 19.0126 2.375 19.6923Z" fill="#D9D9D9"/>
<path d="M2.375 12.3077C2.375 12.9874 1.84334 13.5385 1.1875 13.5385C0.531662 13.5385 0 12.9874 0 12.3077C0 11.628 0.531662 11.0769 1.1875 11.0769C1.84334 11.0769 2.375 11.628 2.375 12.3077Z" fill="#D9D9D9"/>
<path d="M2.375 27.0769C2.375 27.7567 1.84334 28.3077 1.1875 28.3077C0.531662 28.3077 0 27.7567 0 27.0769C0 26.3972 0.531662 25.8462 1.1875 25.8462C1.84334 25.8462 2.375 26.3972 2.375 27.0769Z" fill="#D9D9D9"/>
<path d="M2.375 30.7692C2.375 31.449 1.84334 32 1.1875 32C0.531662 32 0 31.449 0 30.7692C0 30.0895 0.531662 29.5385 1.1875 29.5385C1.84334 29.5385 2.375 30.0895 2.375 30.7692Z" fill="#D9D9D9"/>
<path d="M9.5 1.23077C9.5 1.9105 8.96834 2.46154 8.3125 2.46154C7.65666 2.46154 7.125 1.9105 7.125 1.23077C7.125 0.551034 7.65666 0 8.3125 0C8.96834 0 9.5 0.551034 9.5 1.23077Z" fill="#D9D9D9"/>
<path d="M9.5 16C9.5 16.6797 8.96834 17.2308 8.3125 17.2308C7.65666 17.2308 7.125 16.6797 7.125 16C7.125 15.3203 7.65666 14.7692 8.3125 14.7692C8.96834 14.7692 9.5 15.3203 9.5 16Z" fill="#68A343"/>
<path d="M9.5 8.61539C9.5 9.29512 8.96834 9.84615 8.3125 9.84615C7.65666 9.84615 7.125 9.29512 7.125 8.61539C7.125 7.93565 7.65666 7.38462 8.3125 7.38462C8.96834 7.38462 9.5 7.93565 9.5 8.61539Z" fill="#D9D9D9"/>
<path d="M9.5 23.3846C9.5 24.0644 8.96834 24.6154 8.3125 24.6154C7.65666 24.6154 7.125 24.0644 7.125 23.3846C7.125 22.7049 7.65666 22.1538 8.3125 22.1538C8.96834 22.1538 9.5 22.7049 9.5 23.3846Z" fill="#D9D9D9"/>
<path d="M9.5 4.92308C9.5 5.60281 8.96834 6.15385 8.3125 6.15385C7.65666 6.15385 7.125 5.60281 7.125 4.92308C7.125 4.24334 7.65666 3.69231 8.3125 3.69231C8.96834 3.69231 9.5 4.24334 9.5 4.92308Z" fill="#D9D9D9"/>
<path d="M9.5 19.6923C9.5 20.372 8.96834 20.9231 8.3125 20.9231C7.65666 20.9231 7.125 20.372 7.125 19.6923C7.125 19.0126 7.65666 18.4615 8.3125 18.4615C8.96834 18.4615 9.5 19.0126 9.5 19.6923Z" fill="#D9D9D9"/>
<path d="M9.5 12.3077C9.5 12.9874 8.96834 13.5385 8.3125 13.5385C7.65666 13.5385 7.125 12.9874 7.125 12.3077C7.125 11.628 7.65666 11.0769 8.3125 11.0769C8.96834 11.0769 9.5 11.628 9.5 12.3077Z" fill="#219AD6"/>
<path d="M9.5 27.0769C9.5 27.7567 8.96834 28.3077 8.3125 28.3077C7.65666 28.3077 7.125 27.7567 7.125 27.0769C7.125 26.3972 7.65666 25.8462 8.3125 25.8462C8.96834 25.8462 9.5 26.3972 9.5 27.0769Z" fill="#D9D9D9"/>
<path d="M9.5 30.7692C9.5 31.449 8.96834 32 8.3125 32C7.65666 32 7.125 31.449 7.125 30.7692C7.125 30.0895 7.65666 29.5385 8.3125 29.5385C8.96834 29.5385 9.5 30.0895 9.5 30.7692Z" fill="#D9D9D9"/>
<path d="M16.625 1.23077C16.625 1.9105 16.0933 2.46154 15.4375 2.46154C14.7817 2.46154 14.25 1.9105 14.25 1.23077C14.25 0.551034 14.7817 0 15.4375 0C16.0933 0 16.625 0.551034 16.625 1.23077Z" fill="#D9D9D9"/>
<path d="M16.625 16C16.625 16.6797 16.0933 17.2308 15.4375 17.2308C14.7817 17.2308 14.25 16.6797 14.25 16C14.25 15.3203 14.7817 14.7692 15.4375 14.7692C16.0933 14.7692 16.625 15.3203 16.625 16Z" fill="#D9D9D9"/>
<path d="M16.625 8.61539C16.625 9.29512 16.0933 9.84615 15.4375 9.84615C14.7817 9.84615 14.25 9.29512 14.25 8.61539C14.25 7.93565 14.7817 7.38462 15.4375 7.38462C16.0933 7.38462 16.625 7.93565 16.625 8.61539Z" fill="#D9D9D9"/>
<path d="M16.625 23.3846C16.625 24.0644 16.0933 24.6154 15.4375 24.6154C14.7817 24.6154 14.25 24.0644 14.25 23.3846C14.25 22.7049 14.7817 22.1538 15.4375 22.1538C16.0933 22.1538 16.625 22.7049 16.625 23.3846Z" fill="#D9D9D9"/>
<path d="M16.625 4.92308C16.625 5.60281 16.0933 6.15385 15.4375 6.15385C14.7817 6.15385 14.25 5.60281 14.25 4.92308C14.25 4.24334 14.7817 3.69231 15.4375 3.69231C16.0933 3.69231 16.625 4.24334 16.625 4.92308Z" fill="#D9D9D9"/>
<path d="M16.625 19.6923C16.625 20.372 16.0933 20.9231 15.4375 20.9231C14.7817 20.9231 14.25 20.372 14.25 19.6923C14.25 19.0126 14.7817 18.4615 15.4375 18.4615C16.0933 18.4615 16.625 19.0126 16.625 19.6923Z" fill="#D9D9D9"/>
<path d="M16.625 12.3077C16.625 12.9874 16.0933 13.5385 15.4375 13.5385C14.7817 13.5385 14.25 12.9874 14.25 12.3077C14.25 11.628 14.7817 11.0769 15.4375 11.0769C16.0933 11.0769 16.625 11.628 16.625 12.3077Z" fill="#D9D9D9"/>
<path d="M16.625 27.0769C16.625 27.7567 16.0933 28.3077 15.4375 28.3077C14.7817 28.3077 14.25 27.7567 14.25 27.0769C14.25 26.3972 14.7817 25.8462 15.4375 25.8462C16.0933 25.8462 16.625 26.3972 16.625 27.0769Z" fill="#D9D9D9"/>
<path d="M16.625 30.7692C16.625 31.449 16.0933 32 15.4375 32C14.7817 32 14.25 31.449 14.25 30.7692C14.25 30.0895 14.7817 29.5385 15.4375 29.5385C16.0933 29.5385 16.625 30.0895 16.625 30.7692Z" fill="#D9D9D9"/>
<path d="M23.75 1.23077C23.75 1.9105 23.2183 2.46154 22.5625 2.46154C21.9067 2.46154 21.375 1.9105 21.375 1.23077C21.375 0.551034 21.9067 0 22.5625 0C23.2183 0 23.75 0.551034 23.75 1.23077Z" fill="#D9D9D9"/>
<path d="M23.75 16C23.75 16.6797 23.2183 17.2308 22.5625 17.2308C21.9067 17.2308 21.375 16.6797 21.375 16C21.375 15.3203 21.9067 14.7692 22.5625 14.7692C23.2183 14.7692 23.75 15.3203 23.75 16Z" fill="#68A343"/>
<path d="M23.75 8.61539C23.75 9.29512 23.2183 9.84615 22.5625 9.84615C21.9067 9.84615 21.375 9.29512 21.375 8.61539C21.375 7.93565 21.9067 7.38462 22.5625 7.38462C23.2183 7.38462 23.75 7.93565 23.75 8.61539Z" fill="#D9D9D9"/>
<path d="M23.75 23.3846C23.75 24.0644 23.2183 24.6154 22.5625 24.6154C21.9067 24.6154 21.375 24.0644 21.375 23.3846C21.375 22.7049 21.9067 22.1538 22.5625 22.1538C23.2183 22.1538 23.75 22.7049 23.75 23.3846Z" fill="#D9D9D9"/>
<path d="M23.75 4.92308C23.75 5.60281 23.2183 6.15385 22.5625 6.15385C21.9067 6.15385 21.375 5.60281 21.375 4.92308C21.375 4.24334 21.9067 3.69231 22.5625 3.69231C23.2183 3.69231 23.75 4.24334 23.75 4.92308Z" fill="#219AD6"/>
<path d="M23.75 19.6923C23.75 20.372 23.2183 20.9231 22.5625 20.9231C21.9067 20.9231 21.375 20.372 21.375 19.6923C21.375 19.0126 21.9067 18.4615 22.5625 18.4615C23.2183 18.4615 23.75 19.0126 23.75 19.6923Z" fill="#D9D9D9"/>
<path d="M23.75 12.3077C23.75 12.9874 23.2183 13.5385 22.5625 13.5385C21.9067 13.5385 21.375 12.9874 21.375 12.3077C21.375 11.628 21.9067 11.0769 22.5625 11.0769C23.2183 11.0769 23.75 11.628 23.75 12.3077Z" fill="#D9D9D9"/>
<path d="M23.75 27.0769C23.75 27.7567 23.2183 28.3077 22.5625 28.3077C21.9067 28.3077 21.375 27.7567 21.375 27.0769C21.375 26.3972 21.9067 25.8462 22.5625 25.8462C23.2183 25.8462 23.75 26.3972 23.75 27.0769Z" fill="#F89623"/>
<path d="M23.75 30.7692C23.75 31.449 23.2183 32 22.5625 32C21.9067 32 21.375 31.449 21.375 30.7692C21.375 30.0895 21.9067 29.5385 22.5625 29.5385C23.2183 29.5385 23.75 30.0895 23.75 30.7692Z" fill="#D9D9D9"/>
<path d="M30.875 1.23077C30.875 1.9105 30.3433 2.46154 29.6875 2.46154C29.0317 2.46154 28.5 1.9105 28.5 1.23077C28.5 0.551034 29.0317 0 29.6875 0C30.3433 0 30.875 0.551034 30.875 1.23077Z" fill="#D9D9D9"/>
<path d="M30.875 16C30.875 16.6797 30.3433 17.2308 29.6875 17.2308C29.0317 17.2308 28.5 16.6797 28.5 16C28.5 15.3203 29.0317 14.7692 29.6875 14.7692C30.3433 14.7692 30.875 15.3203 30.875 16Z" fill="#D9D9D9"/>
<path d="M30.875 8.61539C30.875 9.29512 30.3433 9.84615 29.6875 9.84615C29.0317 9.84615 28.5 9.29512 28.5 8.61539C28.5 7.93565 29.0317 7.38462 29.6875 7.38462C30.3433 7.38462 30.875 7.93565 30.875 8.61539Z" fill="#D9D9D9"/>
<path d="M30.875 23.3846C30.875 24.0644 30.3433 24.6154 29.6875 24.6154C29.0317 24.6154 28.5 24.0644 28.5 23.3846C28.5 22.7049 29.0317 22.1538 29.6875 22.1538C30.3433 22.1538 30.875 22.7049 30.875 23.3846Z" fill="#D9D9D9"/>
<path d="M30.875 4.92308C30.875 5.60281 30.3433 6.15385 29.6875 6.15385C29.0317 6.15385 28.5 5.60281 28.5 4.92308C28.5 4.24334 29.0317 3.69231 29.6875 3.69231C30.3433 3.69231 30.875 4.24334 30.875 4.92308Z" fill="#D9D9D9"/>
<path d="M30.875 19.6923C30.875 20.372 30.3433 20.9231 29.6875 20.9231C29.0317 20.9231 28.5 20.372 28.5 19.6923C28.5 19.0126 29.0317 18.4615 29.6875 18.4615C30.3433 18.4615 30.875 19.0126 30.875 19.6923Z" fill="#D9D9D9"/>
<path d="M30.875 12.3077C30.875 12.9874 30.3433 13.5385 29.6875 13.5385C29.0317 13.5385 28.5 12.9874 28.5 12.3077C28.5 11.628 29.0317 11.0769 29.6875 11.0769C30.3433 11.0769 30.875 11.628 30.875 12.3077Z" fill="#D9D9D9"/>
<path d="M30.875 27.0769C30.875 27.7567 30.3433 28.3077 29.6875 28.3077C29.0317 28.3077 28.5 27.7567 28.5 27.0769C28.5 26.3972 29.0317 25.8462 29.6875 25.8462C30.3433 25.8462 30.875 26.3972 30.875 27.0769Z" fill="#D9D9D9"/>
<path d="M30.875 30.7692C30.875 31.449 30.3433 32 29.6875 32C29.0317 32 28.5 31.449 28.5 30.7692C28.5 30.0895 29.0317 29.5385 29.6875 29.5385C30.3433 29.5385 30.875 30.0895 30.875 30.7692Z" fill="#D9D9D9"/>
<path d="M5.9375 1.23077C5.9375 1.9105 5.40584 2.46154 4.75 2.46154C4.09416 2.46154 3.5625 1.9105 3.5625 1.23077C3.5625 0.551034 4.09416 0 4.75 0C5.40584 0 5.9375 0.551034 5.9375 1.23077Z" fill="#D9D9D9"/>
<path d="M5.9375 16C5.9375 16.6797 5.40584 17.2308 4.75 17.2308C4.09416 17.2308 3.5625 16.6797 3.5625 16C3.5625 15.3203 4.09416 14.7692 4.75 14.7692C5.40584 14.7692 5.9375 15.3203 5.9375 16Z" fill="#219AD6"/>
<path d="M5.9375 8.61539C5.9375 9.29512 5.40584 9.84615 4.75 9.84615C4.09416 9.84615 3.5625 9.29512 3.5625 8.61539C3.5625 7.93565 4.09416 7.38462 4.75 7.38462C5.40584 7.38462 5.9375 7.93565 5.9375 8.61539Z" fill="#68A343"/>
<path d="M5.9375 23.3846C5.9375 24.0644 5.40584 24.6154 4.75 24.6154C4.09416 24.6154 3.5625 24.0644 3.5625 23.3846C3.5625 22.7049 4.09416 22.1538 4.75 22.1538C5.40584 22.1538 5.9375 22.7049 5.9375 23.3846Z" fill="#F89623"/>
<path d="M5.9375 4.92308C5.9375 5.60281 5.40584 6.15385 4.75 6.15385C4.09416 6.15385 3.5625 5.60281 3.5625 4.92308C3.5625 4.24334 4.09416 3.69231 4.75 3.69231C5.40584 3.69231 5.9375 4.24334 5.9375 4.92308Z" fill="#219AD6"/>
<path d="M5.9375 19.6923C5.9375 20.372 5.40584 20.9231 4.75 20.9231C4.09416 20.9231 3.5625 20.372 3.5625 19.6923C3.5625 19.0126 4.09416 18.4615 4.75 18.4615C5.40584 18.4615 5.9375 19.0126 5.9375 19.6923Z" fill="#68A343"/>
<path d="M5.9375 12.3077C5.9375 12.9874 5.40584 13.5385 4.75 13.5385C4.09416 13.5385 3.5625 12.9874 3.5625 12.3077C3.5625 11.628 4.09416 11.0769 4.75 11.0769C5.40584 11.0769 5.9375 11.628 5.9375 12.3077Z" fill="#F89623"/>
<path d="M5.9375 27.0769C5.9375 27.7567 5.40584 28.3077 4.75 28.3077C4.09416 28.3077 3.5625 27.7567 3.5625 27.0769C3.5625 26.3972 4.09416 25.8462 4.75 25.8462C5.40584 25.8462 5.9375 26.3972 5.9375 27.0769Z" fill="#219AD6"/>
<path d="M5.9375 30.7692C5.9375 31.449 5.40584 32 4.75 32C4.09416 32 3.5625 31.449 3.5625 30.7692C3.5625 30.0895 4.09416 29.5385 4.75 29.5385C5.40584 29.5385 5.9375 30.0895 5.9375 30.7692Z" fill="#D9D9D9"/>
<path d="M13.0625 1.23077C13.0625 1.9105 12.5308 2.46154 11.875 2.46154C11.2192 2.46154 10.6875 1.9105 10.6875 1.23077C10.6875 0.551034 11.2192 0 11.875 0C12.5308 0 13.0625 0.551034 13.0625 1.23077Z" fill="#D9D9D9"/>
<path d="M13.0625 16C13.0625 16.6797 12.5308 17.2308 11.875 17.2308C11.2192 17.2308 10.6875 16.6797 10.6875 16C10.6875 15.3203 11.2192 14.7692 11.875 14.7692C12.5308 14.7692 13.0625 15.3203 13.0625 16Z" fill="#D9D9D9"/>
<path d="M13.0625 8.61539C13.0625 9.29512 12.5308 9.84615 11.875 9.84615C11.2192 9.84615 10.6875 9.29512 10.6875 8.61539C10.6875 7.93565 11.2192 7.38462 11.875 7.38462C12.5308 7.38462 13.0625 7.93565 13.0625 8.61539Z" fill="#68A343"/>
<path d="M13.0625 23.3846C13.0625 24.0644 12.5308 24.6154 11.875 24.6154C11.2192 24.6154 10.6875 24.0644 10.6875 23.3846C10.6875 22.7049 11.2192 22.1538 11.875 22.1538C12.5308 22.1538 13.0625 22.7049 13.0625 23.3846Z" fill="#219AD6"/>
<path d="M13.0625 4.92308C13.0625 5.60281 12.5308 6.15385 11.875 6.15385C11.2192 6.15385 10.6875 5.60281 10.6875 4.92308C10.6875 4.24334 11.2192 3.69231 11.875 3.69231C12.5308 3.69231 13.0625 4.24334 13.0625 4.92308Z" fill="#219AD6"/>
<path d="M13.0625 19.6923C13.0625 20.372 12.5308 20.9231 11.875 20.9231C11.2192 20.9231 10.6875 20.372 10.6875 19.6923C10.6875 19.0126 11.2192 18.4615 11.875 18.4615C12.5308 18.4615 13.0625 19.0126 13.0625 19.6923Z" fill="#F89623"/>
<path d="M13.0625 12.3077C13.0625 12.9874 12.5308 13.5385 11.875 13.5385C11.2192 13.5385 10.6875 12.9874 10.6875 12.3077C10.6875 11.628 11.2192 11.0769 11.875 11.0769C12.5308 11.0769 13.0625 11.628 13.0625 12.3077Z" fill="#D9D9D9"/>
<path d="M13.0625 27.0769C13.0625 27.7567 12.5308 28.3077 11.875 28.3077C11.2192 28.3077 10.6875 27.7567 10.6875 27.0769C10.6875 26.3972 11.2192 25.8462 11.875 25.8462C12.5308 25.8462 13.0625 26.3972 13.0625 27.0769Z" fill="#68A343"/>
<path d="M13.0625 30.7692C13.0625 31.449 12.5308 32 11.875 32C11.2192 32 10.6875 31.449 10.6875 30.7692C10.6875 30.0895 11.2192 29.5385 11.875 29.5385C12.5308 29.5385 13.0625 30.0895 13.0625 30.7692Z" fill="#D9D9D9"/>
<path d="M20.1875 1.23077C20.1875 1.9105 19.6558 2.46154 19 2.46154C18.3442 2.46154 17.8125 1.9105 17.8125 1.23077C17.8125 0.551034 18.3442 0 19 0C19.6558 0 20.1875 0.551034 20.1875 1.23077Z" fill="#D9D9D9"/>
<path d="M20.1875 16C20.1875 16.6797 19.6558 17.2308 19 17.2308C18.3442 17.2308 17.8125 16.6797 17.8125 16C17.8125 15.3203 18.3442 14.7692 19 14.7692C19.6558 14.7692 20.1875 15.3203 20.1875 16Z" fill="#219AD6"/>
<path d="M20.1875 8.61539C20.1875 9.29512 19.6558 9.84615 19 9.84615C18.3442 9.84615 17.8125 9.29512 17.8125 8.61539C17.8125 7.93565 18.3442 7.38462 19 7.38462C19.6558 7.38462 20.1875 7.93565 20.1875 8.61539Z" fill="#68A343"/>
<path d="M20.1875 23.3846C20.1875 24.0644 19.6558 24.6154 19 24.6154C18.3442 24.6154 17.8125 24.0644 17.8125 23.3846C17.8125 22.7049 18.3442 22.1538 19 22.1538C19.6558 22.1538 20.1875 22.7049 20.1875 23.3846Z" fill="#F89623"/>
<path d="M20.1875 4.92308C20.1875 5.60281 19.6558 6.15385 19 6.15385C18.3442 6.15385 17.8125 5.60281 17.8125 4.92308C17.8125 4.24334 18.3442 3.69231 19 3.69231C19.6558 3.69231 20.1875 4.24334 20.1875 4.92308Z" fill="#219AD6"/>
<path d="M20.1875 19.6923C20.1875 20.372 19.6558 20.9231 19 20.9231C18.3442 20.9231 17.8125 20.372 17.8125 19.6923C17.8125 19.0126 18.3442 18.4615 19 18.4615C19.6558 18.4615 20.1875 19.0126 20.1875 19.6923Z" fill="#68A343"/>
<path d="M20.1875 12.3077C20.1875 12.9874 19.6558 13.5385 19 13.5385C18.3442 13.5385 17.8125 12.9874 17.8125 12.3077C17.8125 11.628 18.3442 11.0769 19 11.0769C19.6558 11.0769 20.1875 11.628 20.1875 12.3077Z" fill="#F89623"/>
<path d="M20.1875 27.0769C20.1875 27.7567 19.6558 28.3077 19 28.3077C18.3442 28.3077 17.8125 27.7567 17.8125 27.0769C17.8125 26.3972 18.3442 25.8462 19 25.8462C19.6558 25.8462 20.1875 26.3972 20.1875 27.0769Z" fill="#219AD6"/>
<path d="M20.1875 30.7692C20.1875 31.449 19.6558 32 19 32C18.3442 32 17.8125 31.449 17.8125 30.7692C17.8125 30.0895 18.3442 29.5385 19 29.5385C19.6558 29.5385 20.1875 30.0895 20.1875 30.7692Z" fill="#D9D9D9"/>
<path d="M27.3125 1.23077C27.3125 1.9105 26.7808 2.46154 26.125 2.46154C25.4692 2.46154 24.9375 1.9105 24.9375 1.23077C24.9375 0.551034 25.4692 0 26.125 0C26.7808 0 27.3125 0.551034 27.3125 1.23077Z" fill="#D9D9D9"/>
<path d="M27.3125 16C27.3125 16.6797 26.7808 17.2308 26.125 17.2308C25.4692 17.2308 24.9375 16.6797 24.9375 16C24.9375 15.3203 25.4692 14.7692 26.125 14.7692C26.7808 14.7692 27.3125 15.3203 27.3125 16Z" fill="#68A343"/>
<path d="M27.3125 8.61539C27.3125 9.29512 26.7808 9.84615 26.125 9.84615C25.4692 9.84615 24.9375 9.29512 24.9375 8.61539C24.9375 7.93565 25.4692 7.38462 26.125 7.38462C26.7808 7.38462 27.3125 7.93565 27.3125 8.61539Z" fill="#D9D9D9"/>
<path d="M27.3125 23.3846C27.3125 24.0644 26.7808 24.6154 26.125 24.6154C25.4692 24.6154 24.9375 24.0644 24.9375 23.3846C24.9375 22.7049 25.4692 22.1538 26.125 22.1538C26.7808 22.1538 27.3125 22.7049 27.3125 23.3846Z" fill="#D9D9D9"/>
<path d="M27.3125 4.92308C27.3125 5.60281 26.7808 6.15385 26.125 6.15385C25.4692 6.15385 24.9375 5.60281 24.9375 4.92308C24.9375 4.24334 25.4692 3.69231 26.125 3.69231C26.7808 3.69231 27.3125 4.24334 27.3125 4.92308Z" fill="#219AD6"/>
<path d="M27.3125 19.6923C27.3125 20.372 26.7808 20.9231 26.125 20.9231C25.4692 20.9231 24.9375 20.372 24.9375 19.6923C24.9375 19.0126 25.4692 18.4615 26.125 18.4615C26.7808 18.4615 27.3125 19.0126 27.3125 19.6923Z" fill="#D9D9D9"/>
<path d="M27.3125 12.3077C27.3125 12.9874 26.7808 13.5385 26.125 13.5385C25.4692 13.5385 24.9375 12.9874 24.9375 12.3077C24.9375 11.628 25.4692 11.0769 26.125 11.0769C26.7808 11.0769 27.3125 11.628 27.3125 12.3077Z" fill="#D9D9D9"/>
<path d="M27.3125 27.0769C27.3125 27.7567 26.7808 28.3077 26.125 28.3077C25.4692 28.3077 24.9375 27.7567 24.9375 27.0769C24.9375 26.3972 25.4692 25.8462 26.125 25.8462C26.7808 25.8462 27.3125 26.3972 27.3125 27.0769Z" fill="#F89623"/>
<path d="M27.3125 30.7692C27.3125 31.449 26.7808 32 26.125 32C25.4692 32 24.9375 31.449 24.9375 30.7692C24.9375 30.0895 25.4692 29.5385 26.125 29.5385C26.7808 29.5385 27.3125 30.0895 27.3125 30.7692Z" fill="#D9D9D9"/>
<path d="M34.4375 1.23077C34.4375 1.9105 33.9058 2.46154 33.25 2.46154C32.5942 2.46154 32.0625 1.9105 32.0625 1.23077C32.0625 0.551034 32.5942 0 33.25 0C33.9058 0 34.4375 0.551034 34.4375 1.23077Z" fill="#D9D9D9"/>
<path d="M34.4375 16C34.4375 16.6797 33.9058 17.2308 33.25 17.2308C32.5942 17.2308 32.0625 16.6797 32.0625 16C32.0625 15.3203 32.5942 14.7692 33.25 14.7692C33.9058 14.7692 34.4375 15.3203 34.4375 16Z" fill="#219AD6"/>
<path d="M34.4375 8.61539C34.4375 9.29512 33.9058 9.84615 33.25 9.84615C32.5942 9.84615 32.0625 9.29512 32.0625 8.61539C32.0625 7.93565 32.5942 7.38462 33.25 7.38462C33.9058 7.38462 34.4375 7.93565 34.4375 8.61539Z" fill="#68A343"/>
<path d="M34.4375 23.3846C34.4375 24.0644 33.9058 24.6154 33.25 24.6154C32.5942 24.6154 32.0625 24.0644 32.0625 23.3846C32.0625 22.7049 32.5942 22.1538 33.25 22.1538C33.9058 22.1538 34.4375 22.7049 34.4375 23.3846Z" fill="#F89623"/>
<path d="M34.4375 4.92308C34.4375 5.60281 33.9058 6.15385 33.25 6.15385C32.5942 6.15385 32.0625 5.60281 32.0625 4.92308C32.0625 4.24334 32.5942 3.69231 33.25 3.69231C33.9058 3.69231 34.4375 4.24334 34.4375 4.92308Z" fill="#219AD6"/>
<path d="M34.4375 19.6923C34.4375 20.372 33.9058 20.9231 33.25 20.9231C32.5942 20.9231 32.0625 20.372 32.0625 19.6923C32.0625 19.0126 32.5942 18.4615 33.25 18.4615C33.9058 18.4615 34.4375 19.0126 34.4375 19.6923Z" fill="#68A343"/>
<path d="M34.4375 12.3077C34.4375 12.9874 33.9058 13.5385 33.25 13.5385C32.5942 13.5385 32.0625 12.9874 32.0625 12.3077C32.0625 11.628 32.5942 11.0769 33.25 11.0769C33.9058 11.0769 34.4375 11.628 34.4375 12.3077Z" fill="#F89623"/>
<path d="M34.4375 27.0769C34.4375 27.7567 33.9058 28.3077 33.25 28.3077C32.5942 28.3077 32.0625 27.7567 32.0625 27.0769C32.0625 26.3972 32.5942 25.8462 33.25 25.8462C33.9058 25.8462 34.4375 26.3972 34.4375 27.0769Z" fill="#219AD6"/>
<path d="M34.4375 30.7692C34.4375 31.449 33.9058 32 33.25 32C32.5942 32 32.0625 31.449 32.0625 30.7692C32.0625 30.0895 32.5942 29.5385 33.25 29.5385C33.9058 29.5385 34.4375 30.0895 34.4375 30.7692Z" fill="#D9D9D9"/>
<path d="M38 1.23077C38 1.9105 37.4683 2.46154 36.8125 2.46154C36.1567 2.46154 35.625 1.9105 35.625 1.23077C35.625 0.551034 36.1567 0 36.8125 0C37.4683 0 38 0.551034 38 1.23077Z" fill="#D9D9D9"/>
<path d="M38 16C38 16.6797 37.4683 17.2308 36.8125 17.2308C36.1567 17.2308 35.625 16.6797 35.625 16C35.625 15.3203 36.1567 14.7692 36.8125 14.7692C37.4683 14.7692 38 15.3203 38 16Z" fill="#D9D9D9"/>
<path d="M38 8.61539C38 9.29512 37.4683 9.84615 36.8125 9.84615C36.1567 9.84615 35.625 9.29512 35.625 8.61539C35.625 7.93565 36.1567 7.38462 36.8125 7.38462C37.4683 7.38462 38 7.93565 38 8.61539Z" fill="#D9D9D9"/>
<path d="M38 23.3846C38 24.0644 37.4683 24.6154 36.8125 24.6154C36.1567 24.6154 35.625 24.0644 35.625 23.3846C35.625 22.7049 36.1567 22.1538 36.8125 22.1538C37.4683 22.1538 38 22.7049 38 23.3846Z" fill="#D9D9D9"/>
<path d="M38 4.92308C38 5.60281 37.4683 6.15385 36.8125 6.15385C36.1567 6.15385 35.625 5.60281 35.625 4.92308C35.625 4.24334 36.1567 3.69231 36.8125 3.69231C37.4683 3.69231 38 4.24334 38 4.92308Z" fill="#D9D9D9"/>
<path d="M38 19.6923C38 20.372 37.4683 20.9231 36.8125 20.9231C36.1567 20.9231 35.625 20.372 35.625 19.6923C35.625 19.0126 36.1567 18.4615 36.8125 18.4615C37.4683 18.4615 38 19.0126 38 19.6923Z" fill="#D9D9D9"/>
<path d="M38 12.3077C38 12.9874 37.4683 13.5385 36.8125 13.5385C36.1567 13.5385 35.625 12.9874 35.625 12.3077C35.625 11.628 36.1567 11.0769 36.8125 11.0769C37.4683 11.0769 38 11.628 38 12.3077Z" fill="#D9D9D9"/>
<path d="M38 27.0769C38 27.7567 37.4683 28.3077 36.8125 28.3077C36.1567 28.3077 35.625 27.7567 35.625 27.0769C35.625 26.3972 36.1567 25.8462 36.8125 25.8462C37.4683 25.8462 38 26.3972 38 27.0769Z" fill="#D9D9D9"/>
<path d="M38 30.7692C38 31.449 37.4683 32 36.8125 32C36.1567 32 35.625 31.449 35.625 30.7692C35.625 30.0895 36.1567 29.5385 36.8125 29.5385C37.4683 29.5385 38 30.0895 38 30.7692Z" fill="#D9D9D9"/>
</svg>
