<svg width="194" height="33" viewBox="0 0 194 33" fill="none" xmlns="http://www.w3.org/2000/svg">
<path d="M191.313 28.4332H179.874C177.789 28.4332 176.777 27.4148 176.777 25.3781V8.62106C176.777 6.5843 177.789 5.56592 179.874 5.56592H190.934C192.514 5.56592 193.62 6.09054 193.62 7.63354C193.62 9.17654 192.514 9.70116 190.934 9.70116H182.118V14.6388H190.365C191.85 14.6388 192.893 15.256 192.893 16.7064C192.893 18.1568 191.85 18.774 190.365 18.774H182.118V24.298H191.313C192.893 24.298 193.999 24.7917 193.999 26.3347C193.999 27.8777 192.893 28.4332 191.313 28.4332Z" fill="#004F4A"/>
<path d="M172.255 12.6637C172.255 15.472 170.991 17.6322 168.811 18.8357L172.161 25.2855C172.729 26.3965 172.666 27.7852 171.307 28.4949C169.949 29.1739 168.495 28.6184 167.863 27.4457L163.629 19.8541H158.541V26.0261C158.541 27.5691 157.435 28.6184 155.855 28.6184C154.276 28.6184 153.201 27.5691 153.201 26.0261V8.62106C153.201 6.55344 154.212 5.56592 156.298 5.56592H164.261C169.095 5.56592 172.255 8.25074 172.255 12.6637ZM158.541 9.67031V15.7497H163.092C165.493 15.7497 167.042 14.8548 167.042 12.6637C167.042 10.4727 165.525 9.67031 163.092 9.67031H158.541Z" fill="#004F4A"/>
<path d="M138.424 5.38086C140.036 5.38086 141.078 6.15236 141.616 7.41762L149.199 25.3782C149.768 26.736 149.136 28.063 147.651 28.495C146.229 28.9579 144.902 28.1864 144.333 26.7669L142.911 23.1254H133.905L132.515 26.7669C131.946 28.1864 130.619 28.9579 129.166 28.495C127.712 28.063 127.08 26.736 127.649 25.3782L135.233 7.41762C135.77 6.15236 136.813 5.38086 138.424 5.38086ZM138.361 11.6146L135.58 18.805H141.268L138.487 11.6146H138.361Z" fill="#004F4A"/>
<path d="M103.277 16.9851C103.277 10.5354 107.322 5.104 114.874 5.104C119.203 5.104 122.142 6.86303 123.753 9.08495C124.543 10.1959 124.543 11.6463 123.532 12.4178C122.521 13.1585 120.878 13.1893 119.835 11.8932C118.603 10.4119 117.086 9.54785 114.874 9.54785C111.493 9.54785 108.618 12.0475 108.618 16.9851C108.618 21.9227 111.493 24.4533 114.874 24.4533C117.149 24.4533 118.792 23.7126 119.962 22.3239C121.004 21.0587 122.521 20.4723 123.722 21.3055C125.049 22.1696 124.954 23.5892 124.038 24.8853C122.426 27.1381 119.488 28.8971 114.874 28.8971C107.322 28.8971 103.277 23.4349 103.277 16.9851Z" fill="#004F4A"/>
<path d="M88.9729 26.0261V10.1641H83.8855C82.3371 10.1641 81.168 9.39256 81.168 7.84956C81.168 6.33742 82.3371 5.56592 83.8855 5.56592H99.3058C100.823 5.56592 102.023 6.33742 102.023 7.84956C102.023 9.39256 100.823 10.1641 99.3058 10.1641H94.1868V26.0261C94.1868 27.5691 93.1756 28.6184 91.5956 28.6184C90.0157 28.6184 88.9729 27.5691 88.9729 26.0261Z" fill="#90BD20"/>
<path d="M75.9633 28.4332H64.5244C62.4389 28.4332 61.4277 27.4148 61.4277 25.3781V8.62106C61.4277 6.5843 62.4389 5.56592 64.5244 5.56592H75.5841C77.164 5.56592 78.27 6.09054 78.27 7.63354C78.27 9.17654 77.164 9.70116 75.5841 9.70116H66.768V14.6388H75.0153C76.5005 14.6388 77.5432 15.256 77.5432 16.7064C77.5432 18.1568 76.5005 18.774 75.0153 18.774H66.768V24.298H75.9633C77.5432 24.298 78.6492 24.7917 78.6492 26.3347C78.6492 27.8777 77.5432 28.4332 75.9633 28.4332Z" fill="#90BD20"/>
<path d="M38.9668 26.0261V8.62106C38.9668 6.55344 39.9464 5.56592 42.0635 5.56592H50.1844C54.8927 5.56592 58.2738 8.46676 58.2738 13.0649C58.2738 17.6322 54.8611 20.5639 50.1844 20.5639H44.2754V26.0261C44.2754 27.5691 43.2011 28.6184 41.6211 28.6184C40.0412 28.6184 38.9668 27.5691 38.9668 26.0261ZM44.2754 9.79374V16.2126H49.2681C51.3852 16.2126 53.0284 15.0708 53.0284 13.0032C53.0284 10.9047 51.3852 9.79374 49.2681 9.79374H44.2754Z" fill="#90BD20"/>
<path d="M19.5084 19.6635C20.1728 18.8224 21.6725 17.0841 22.3559 16.8598C23.2102 16.5794 25.4882 14.6168 25.2034 12.6542C25.2034 12.2803 25.0326 11.5327 24.3492 11.5327H22.0712C21.6915 11.5327 20.9321 11.4205 20.9321 10.9719C20.1728 9.94387 17.686 8.16817 13.8134 9.28967C11.915 10.1309 8.00443 12.5984 7.54883 15.7384C7.64375 16.673 8.85868 18.5982 12.9591 18.8225C13.2439 18.5422 13.7564 17.5328 13.5286 15.7384C13.3388 14.5235 13.13 12.1498 13.8134 12.3739" stroke="#004F4A" stroke-width="2"/>
<path d="M10.3968 18.5421C10.0171 20.2243 8.85913 23.9252 7.26452 25.271C5.74585 27.1402 2.76545 31.1028 2.99325 32H1V11.5327L15.2376 2L29.4751 11.5327V32H14.0986V29.4766C13.1494 29.0093 11.308 27.8505 11.5358 26.9533C11.2511 26.6729 11.0233 26 12.3901 25.5514C12.485 24.6168 13.1874 22.6355 15.2376 22.1869V20.5047C16.9461 20.785 20.7048 22.5794 22.0716 27.514" stroke="#004F4A" stroke-width="2"/>
<ellipse cx="18.0851" cy="13.215" rx="0.569503" ry="0.560748" fill="#004F4A"/>
<ellipse cx="15.2375" cy="25.552" rx="0.569503" ry="0.560748" fill="#004F4A"/>
</svg>
