<svg width="106" height="105" viewBox="0 0 106 105" fill="none" xmlns="http://www.w3.org/2000/svg">
<path d="M86.5752 79.2603H102V82.4857H96.2255V98.0926H92.3628V82.4857H86.5752V79.2603Z" fill="#5E492A"/>
<path d="M80.7486 84.6445C80.7053 84.1416 80.5492 83.7124 80.2804 83.3569C80.0116 83.0014 79.6388 82.7327 79.1619 82.5506C78.6937 82.3685 78.1388 82.2775 77.4972 82.2775C76.8555 82.2775 76.305 82.3685 75.8454 82.5506C75.3859 82.7327 75.0347 82.9884 74.792 83.3179C74.5492 83.6387 74.4278 84.0072 74.4278 84.4234C74.4105 85.065 74.6706 85.5679 75.2081 85.9321C75.7457 86.2876 76.487 86.5737 77.4321 86.7905L79.1229 87.1936C80.9003 87.6012 82.2833 88.2471 83.2717 89.1315C84.2688 90.0159 84.7674 91.2124 84.7674 92.7211C84.7674 93.8656 84.4769 94.8627 83.896 95.7124C83.3238 96.5621 82.487 97.2168 81.3859 97.6763C80.2934 98.1272 78.9885 98.3526 77.4712 98.3526C75.9451 98.3613 74.6229 98.1315 73.5044 97.6633C72.3946 97.1864 71.5275 96.4928 70.9032 95.5824C70.2876 94.6633 69.9581 93.5405 69.9148 92.2139H73.7125C73.7558 92.8295 73.9379 93.354 74.2587 93.7876C74.5795 94.2124 75.0087 94.5332 75.5463 94.75C76.0925 94.9581 76.7212 95.0621 77.4321 95.0621C78.1084 95.0621 78.7024 94.9624 79.2139 94.763C79.7255 94.5636 80.12 94.2861 80.3975 93.9306C80.6749 93.5751 80.8136 93.1633 80.8136 92.6951C80.8136 92.2789 80.6923 91.9234 80.4495 91.6286C80.2067 91.3338 79.8512 91.0867 79.383 90.8873C78.9235 90.6879 78.3295 90.4971 77.6012 90.315L75.5333 89.8208C73.8859 89.4133 72.62 88.7934 71.7356 87.961C70.8512 87.1199 70.4133 86.0275 70.422 84.6835C70.422 83.565 70.7255 82.5723 71.3324 81.7052C71.9394 80.8382 72.7804 80.1705 73.8555 79.7023C74.9394 79.2341 76.1662 79 77.5362 79C78.9061 79 80.1157 79.2384 81.1648 79.7153C82.2226 80.1835 83.042 80.8468 83.6229 81.7052C84.2038 82.5636 84.4986 83.5434 84.5073 84.6445H80.7486Z" fill="#5E492A"/>
<path d="M54.8669 79.2603H67.5086V82.4857H58.7687V87.0637H66.8453V90.2761H58.7687V94.8672H67.5346V98.0926H54.8669V79.2603Z" fill="#5E492A"/>
<path d="M38.0376 79.2603H45.3989C46.8122 79.2603 48.026 79.5117 49.0405 80.0146C50.0549 80.5088 50.8266 81.2198 51.3555 82.1475C51.8844 83.0753 52.1489 84.1591 52.1489 85.399C52.1489 86.6389 51.8801 87.7097 51.3425 88.6114C50.8136 89.5131 50.0333 90.2068 49.0015 90.6923C47.9783 91.1692 46.7471 91.4077 45.3078 91.4077H40.3266V88.2212H44.6966C45.4596 88.2212 46.0968 88.1172 46.6084 87.9091C47.12 87.6923 47.5015 87.3802 47.7529 86.9727C48.0044 86.5565 48.1301 86.0319 48.1301 85.399C48.1301 84.766 48.0044 84.2285 47.7529 83.7863C47.5015 83.3441 47.1156 83.0146 46.5954 82.7978C46.0838 82.5811 45.4466 82.4727 44.6836 82.4727H41.9393V98.0926H38.0376V79.2603ZM52.8252 98.0926H48.4812L43.9162 89.5348H48.1431L52.8252 98.0926Z" fill="#5E492A"/>
<path d="M35.2022 88.6763C35.2022 90.6792 34.8207 92.409 34.0577 93.8656C33.3034 95.3223 32.2586 96.4364 30.9233 97.2081C29.5967 97.9711 28.0924 98.3526 26.4103 98.3526C24.7282 98.3526 23.2196 97.9711 21.8843 97.2081C20.5577 96.4364 19.5129 95.3223 18.7499 93.8656C17.9956 92.4003 17.6184 90.6705 17.6184 88.6763C17.6184 86.6734 17.9956 84.9436 18.7499 83.487C19.5129 82.0217 20.5577 80.9075 21.8843 80.1445C23.2196 79.3815 24.7282 79 26.4103 79C28.0924 79 29.5967 79.3815 30.9233 80.1445C32.2586 80.9075 33.3034 82.0217 34.0577 83.487C34.8207 84.9436 35.2022 86.6734 35.2022 88.6763ZM31.2485 88.6763C31.2485 87.3497 31.049 86.2225 30.6502 85.2948C30.26 84.3671 29.7008 83.6647 28.9725 83.1879C28.2441 82.7023 27.3901 82.4595 26.4103 82.4595C25.4392 82.4595 24.5895 82.7023 23.8612 83.1879C23.1415 83.6647 22.5779 84.3671 22.1704 85.2948C21.7716 86.2225 21.5722 87.3497 21.5722 88.6763C21.5722 89.9942 21.7716 91.1171 22.1704 92.0448C22.5779 92.9639 23.1415 93.6662 23.8612 94.1517C24.5895 94.6373 25.4392 94.8844 26.4103 94.8931C27.3901 94.8844 28.2441 94.6373 28.9725 94.1517C29.7008 93.6662 30.26 92.9639 30.6502 92.0448C31.049 91.1171 31.2485 89.9942 31.2485 88.6763Z" fill="#5E492A"/>
<path d="M3 79.2603H15.4075V82.4857H6.90173V87.0637H14.5882V90.2761H6.90173V98.0926H3V79.2603Z" fill="#5E492A"/>
<path fill-rule="evenodd" clip-rule="evenodd" d="M35.9085 25.6532C26.1088 26.5865 25.4554 35.3593 25.0052 41.4032C24.9731 41.835 24.9419 42.253 24.9086 42.6531V43.1906C28.0911 49.4749 31.6214 59.8087 33.4104 65.653C34.1446 70.0581 31.9919 72.1311 30.3401 72.9594C30.5381 73.0193 30.7286 73.081 30.9086 73.1531C41.4105 76.1531 49.0753 73.4864 50.9086 71.1531C51.2235 70.8095 51.5079 70.3767 51.764 69.8655C47.6762 64.8914 45.5083 62.1879 47.411 53.1531C48.8461 48.8477 49.8236 46.6478 53.4086 44.0133C53.1373 40.0951 52.7646 36.457 52.4086 33.6533C51.2457 24.3501 42.476 25.0953 36.4742 25.6054C36.2827 25.6217 36.094 25.6377 35.9085 25.6532Z" fill="#A4B648"/>
<path fill-rule="evenodd" clip-rule="evenodd" d="M73.9104 45.1531C75.9104 37.6531 81.3104 22.3531 86.9104 21.1531C88.7438 20.4864 93.2104 21.6531 96.4104 31.6531C99.5771 42.3197 105.81 64.7531 105.41 69.1531C105.91 70.9864 103.51 74.7531 89.9104 75.1531C85.1749 75.1531 76.5147 74.5301 72.4851 72.3009C77.5011 69.6314 79.5223 65.4855 79.911 63.1531C81.299 55.8662 77.0179 49.0559 73.7917 45.5293C73.8309 45.4045 73.8705 45.279 73.9104 45.1531Z" fill="#698137"/>
<path fill-rule="evenodd" clip-rule="evenodd" d="M72.411 44.1531C65.611 38.1531 57.2444 41.3198 53.911 43.6531C53.738 43.7742 53.5706 43.8942 53.4086 44.0133C54.0804 53.7182 54.1302 65.1419 51.764 69.8655L51.8368 69.954C52.0241 70.1819 52.2154 70.4147 52.4105 70.6531C59.2069 75.9932 64.118 74.8915 67.1437 74.2127C67.2343 74.1924 67.3232 74.1725 67.4104 74.1531C69.3686 73.708 71.0495 73.0649 72.4851 72.3009C71.4091 71.7057 70.6633 70.996 70.4104 70.1531C69.4181 68.6646 68.7212 61.6618 73.7917 45.5293C73.2988 44.9907 72.8306 44.5286 72.411 44.1531Z" fill="#6DA13C"/>
<path fill-rule="evenodd" clip-rule="evenodd" d="M16.9103 37.1531C14.9104 37.1531 11.0103 38.1531 7.41034 48.1531L0.410344 67.153C-0.589656 69.3197 -0.389656 73.753 8.41034 74.153C14.9104 74.4863 27.4104 74.1531 29.9104 73.153C30.048 73.098 30.192 73.0337 30.3401 72.9594C30.2559 72.934 30.1703 72.9088 30.0836 72.8833C27.5438 72.137 24.0116 71.099 24.9086 53.1531V43.1906C23.6439 40.6933 22.4342 38.8355 21.4104 38.153C19.8502 37.1129 17.8926 37.1401 17.0931 37.1513C17.0229 37.1523 16.9616 37.1531 16.9103 37.1531Z" fill="#446A37"/>
<path d="M30.0836 72.8833C27.5438 72.137 24.0116 71.099 24.9086 53.1531V43.1906C28.0911 49.4749 31.6214 59.8087 33.4104 65.653C34.1446 70.0581 31.9919 72.1311 30.3401 72.9594C30.2559 72.934 30.1703 72.9088 30.0836 72.8833Z" fill="#38582D"/>
<path d="M53.4086 44.0133C54.0804 53.7182 54.1302 65.1419 51.764 69.8655C47.6762 64.8914 45.5083 62.1879 47.411 53.1531C48.8461 48.8477 49.8236 46.6478 53.4086 44.0133Z" fill="#538435"/>
<path fill-rule="evenodd" clip-rule="evenodd" d="M70.4104 70.1531C69.4181 68.6646 68.7212 61.6618 73.7917 45.5293C77.0179 49.0559 81.299 55.8662 79.911 63.1531C79.5223 65.4855 77.5011 69.6314 72.4851 72.3009C71.4091 71.7057 70.6633 70.996 70.4104 70.1531Z" fill="#446A37"/>
</svg>
