<svg width="18" height="18" viewBox="0 0 18 18" fill="none" xmlns="http://www.w3.org/2000/svg">
<mask id="mask0_223_67" style="mask-type:alpha" maskUnits="userSpaceOnUse" x="0" y="0" width="18" height="18">
<rect width="18" height="18" fill="#D9D9D9"/>
</mask>
<g mask="url(#mask0_223_67)">
<path d="M3 5.11638C2.7875 5.11638 2.60937 5.04492 2.46562 4.902C2.32187 4.75907 2.25 4.58197 2.25 4.37069C2.25 4.15941 2.32187 3.98231 2.46562 3.83939C2.60937 3.69646 2.7875 3.625 3 3.625H15C15.2125 3.625 15.3906 3.69646 15.5344 3.83939C15.6781 3.98231 15.75 4.15941 15.75 4.37069C15.75 4.58197 15.6781 4.75907 15.5344 4.902C15.3906 5.04492 15.2125 5.11638 15 5.11638H3ZM3 14.0647C2.7875 14.0647 2.60937 13.9932 2.46562 13.8503C2.32187 13.7074 2.25 13.5303 2.25 13.319C2.25 13.1077 2.32187 12.9306 2.46562 12.7877C2.60937 12.6448 2.7875 12.5733 3 12.5733H15C15.2125 12.5733 15.3906 12.6448 15.5344 12.7877C15.6781 12.9306 15.75 13.1077 15.75 13.319C15.75 13.5303 15.6781 13.7074 15.5344 13.8503C15.3906 13.9932 15.2125 14.0647 15 14.0647H3ZM3 9.59053C2.7875 9.59053 2.60937 9.51907 2.46562 9.37615C2.32187 9.23322 2.25 9.05612 2.25 8.84484C2.25 8.63356 2.32187 8.45646 2.46562 8.31354C2.60937 8.17061 2.7875 8.09915 3 8.09915H15C15.2125 8.09915 15.3906 8.17061 15.5344 8.31354C15.6781 8.45646 15.75 8.63356 15.75 8.84484C15.75 9.05612 15.6781 9.23322 15.5344 9.37615C15.3906 9.51907 15.2125 9.59053 15 9.59053H3Z" fill="#1D1D1D"/>
</g>
</svg>
