<svg width="305" height="118" viewBox="0 0 305 118" fill="none" xmlns="http://www.w3.org/2000/svg">
<g clip-path="url(#clip0_73_181)">
<path d="M62.7919 75.9316C57.2394 75.939 52.6685 80.2987 52.6685 85.7539C52.6685 91.2091 57.2394 95.5248 62.7919 95.5395C68.3957 95.5174 72.93 91.1577 72.93 85.7539C72.93 80.3502 68.3957 75.939 62.7919 75.9316ZM62.6527 91.0621C59.7519 91.0621 57.5544 88.6801 57.5544 85.7613C57.5544 82.8425 59.8984 80.409 62.7846 80.409C65.6707 80.409 67.9342 82.7837 67.9342 85.7613C67.9342 88.7389 65.5608 91.0621 62.6454 91.0621H62.6527Z" fill="#004289"/>
<path d="M16.3206 69.1676C17.8735 70.7042 19.6462 72.0423 21.3823 72.9098L21.5654 73.0054L24.5541 69.4543L24.2684 69.2926C21.4263 67.7487 19.1994 65.8004 17.749 63.3375C16.3059 60.9186 15.5661 58.0955 15.5661 54.7356V51.5742H10.2187V54.3974C10.2187 58.044 9.39093 60.9113 7.85263 63.4257C6.12388 66.2047 3.56738 68.4471 0.293008 70.5204L0.00732422 70.6968L3.25972 74.0714L3.43552 73.9685C5.36206 72.9098 7.41312 71.285 9.20047 69.4764C10.7461 67.8957 12.0866 66.19 12.8924 64.5799C13.6762 66.1533 14.8848 67.7634 16.3279 69.1456L16.3206 69.1676Z" fill="#004289"/>
<path d="M10.541 93.2236H32.9415V77.8652H10.541V93.2236ZM15.5661 82.2029H27.8945V88.8933H15.5661V82.2029Z" fill="#004289"/>
<path d="M33.0222 50.6699H28.0483V76.1079H33.0222V64.852H38.8604V60.3305H33.0222V50.6699Z" fill="#004289"/>
<path d="M160.056 70.4692C161.689 71.8955 163.565 73.0939 165.323 73.8659L165.506 73.9541L168.194 70.3001L167.909 70.1604C165.345 68.8371 163.052 67.2049 161.411 65.2199C159.734 63.1834 158.737 60.7351 158.737 57.7796V56.9121H166.143V52.5303H146.021V56.9121H153.427V57.9634C153.427 60.6469 152.533 63.154 151.068 65.3228C149.339 67.9254 146.812 70.0281 144.365 71.3809L144.043 71.5573L147.347 74.9907L147.53 74.9025C149.317 73.8879 151.28 72.3513 152.965 70.631C154.313 69.212 155.522 67.7122 156.261 66.2197C157.155 67.6681 158.525 69.1238 160.056 70.4766V70.4692Z" fill="#004289"/>
<path d="M196.082 82.306H214.189V93.2237H219.222V77.9609H196.082V82.306Z" fill="#004289"/>
<path d="M208.578 64.8151C208.578 62.411 207.509 60.198 205.912 58.5071H210.886V54.1767H201.392V49.4053H196.001V54.1767H186.28V58.5071H191.357C189.811 60.198 188.727 62.389 188.727 64.8151C188.727 70.1747 193.129 74.5345 198.638 74.5492C204.146 74.5345 208.578 70.1747 208.586 64.8151H208.578ZM193.525 64.6166C193.525 61.6464 196.023 59.132 198.631 59.132C201.238 59.132 203.729 61.6611 203.736 64.6166C203.736 67.5354 201.238 70.0571 198.631 70.0645C196.015 70.0571 193.525 67.5354 193.525 64.6166Z" fill="#004289"/>
<path d="M219.222 50.6699H214.248V76.1962H219.222V66.4547H225.067V61.9406H219.222V50.6699Z" fill="#004289"/>
<path d="M177.029 50.6699H172.047V76.1962H177.029V64.852H182.867V60.3305H177.029V50.6699Z" fill="#004289"/>
<path d="M290.225 69.9173H273.392V57.0513H286.218V52.5225H268.352V74.3139H290.225V69.9173Z" fill="#004289"/>
<path d="M68.879 58.2425H61.0483V62.7199H68.879V76.9975H73.8601V50.6699H68.879V58.2425Z" fill="#004289"/>
<path d="M56.221 69.8288C57.7739 71.3654 59.5832 72.7034 61.3266 73.6077L61.5171 73.718L64.5131 70.167L64.2201 69.9979C61.3779 68.5128 59.195 66.5645 57.7373 64.1383C56.2503 61.7342 55.5104 58.8081 55.5104 55.4409V51.5811H50.1484V55.1247C50.1484 58.7713 49.3353 61.6313 47.8263 64.1016C46.0975 66.9321 43.5044 69.1818 40.2227 71.2477L39.9443 71.4242L43.2041 74.8135L43.3652 74.7105C45.2991 73.6518 47.2989 72.1153 49.0789 70.3581C50.6831 68.748 52.0309 67.0056 52.8367 65.3146C53.6059 66.8439 54.7852 68.4172 56.2063 69.8288H56.221Z" fill="#004289"/>
<path d="M166.341 75.9316C160.789 75.939 156.218 80.2987 156.21 85.7539C156.218 91.1577 160.789 95.5248 166.341 95.5395C171.938 95.5174 176.479 91.1577 176.479 85.7539C176.479 80.3502 171.938 75.939 166.341 75.9316ZM166.195 91.0621C163.301 91.0621 161.096 88.6801 161.096 85.7613C161.096 82.8425 163.433 80.409 166.341 80.409C169.249 80.409 171.484 82.7837 171.491 85.7613C171.484 88.6801 169.11 91.0621 166.195 91.0621Z" fill="#004289"/>
<path d="M280.71 79.666H275.67V93.2232H299.228V88.7531H280.71V79.666Z" fill="#004289"/>
<path d="M299.111 62.4626V50.6699H294.137V82.0557H299.111V66.9694H305V62.4626H299.111Z" fill="#004289"/>
<path d="M256.976 62.1685H252.786V51.3904H248.083V92.128H252.786V67.0723H256.976V93.2234H261.862V50.6699H256.976V62.1685Z" fill="#004289"/>
<path d="M241.168 67.8152C240.047 65.3523 239.586 62.61 239.586 59.228V57.6179H245.233V53.0303H228.81V57.6179H234.641V59.3089C234.641 62.507 234.224 65.117 233.213 67.5432C232.048 70.3222 230.085 72.8366 226.957 75.5128L226.737 75.7186L229.829 78.7918L230.019 78.6447C231.572 77.4905 233.198 75.8216 234.561 74.1012C235.703 72.6455 236.67 71.1457 237.286 69.8223C237.908 71.1089 238.883 72.5867 240.018 73.9688C241.344 75.5863 242.831 77.1229 244.259 78.0345L244.457 78.1668L247.057 75.0422L246.852 74.8511C244.054 72.4029 242.318 70.2193 241.175 67.8078L241.168 67.8152Z" fill="#004289"/>
<path d="M14.1525 107.906C11.7644 107.053 11.3176 106.48 11.3176 105.495C11.3176 104.51 12.0062 103.73 13.6397 103.73C14.8337 103.73 15.6395 104.12 16.5039 104.84L17.3536 103.789C16.35 102.988 15.3245 102.51 13.7276 102.51C11.4934 102.51 9.98442 103.649 9.98442 105.576C9.98442 107.303 10.8634 108.134 13.4346 109.068C15.6175 109.854 16.2841 110.494 16.2841 111.597C16.2841 112.869 15.2952 113.648 13.7056 113.648C12.475 113.648 11.4348 113.082 10.5338 112.214L9.64746 113.207C10.5851 114.155 12.0428 114.861 13.6617 114.861C16.1523 114.861 17.6173 113.405 17.6173 111.531C17.6173 109.656 16.8042 108.855 14.1598 107.891L14.1525 107.906Z" fill="#004289"/>
<path d="M23.0308 105.517C21.8661 105.517 20.8039 105.803 20.0201 106.23L20.5036 107.274C21.2361 106.847 22.0053 106.583 22.9429 106.583C24.2468 106.583 24.8914 107.23 24.8914 108.575V109.641C24.364 109.347 23.5582 109.119 22.6499 109.119C20.8772 109.119 19.2217 109.979 19.2217 112.001C19.2217 114.17 20.694 114.868 22.0858 114.868C23.3678 114.868 24.2468 114.273 24.8841 113.589V114.685H26.1587V108.421C26.1587 106.333 24.95 105.517 23.0308 105.517ZM24.8841 112.479C24.342 113.229 23.463 113.832 22.3056 113.832C21.2141 113.832 20.4743 113.244 20.4743 111.906C20.4743 110.781 21.2654 110.134 22.5766 110.134C23.6681 110.134 24.2981 110.332 24.8767 110.656V112.472L24.8841 112.479Z" fill="#004289"/>
<path d="M39.0141 109.428V114.685H40.296V109.207C40.296 106.583 39.1606 105.517 37.3293 105.517C35.8789 105.517 35.1464 106.193 34.619 107.053C34.1941 106.193 33.425 105.517 32.165 105.517C31.1029 105.517 30.3484 106.024 29.8942 106.803V105.708H28.605V114.692H29.8942V109.435C29.8942 107.443 30.6634 106.627 31.894 106.627C33.1246 106.627 33.8205 107.377 33.8205 109.435V114.692H35.1024V109.435C35.1024 107.443 35.8789 106.627 37.0949 106.627C38.3915 106.627 39.0214 107.377 39.0214 109.435L39.0141 109.428Z" fill="#004289"/>
<path d="M45.4238 109.472C43.9075 108.781 43.4533 108.479 43.4533 107.722C43.4533 107.075 43.9954 106.605 44.9404 106.605C45.8853 106.605 46.4713 106.862 47.1672 107.413L47.8851 106.465C47.2039 105.899 46.2516 105.517 45.0136 105.517C43.3947 105.517 42.2227 106.436 42.2227 107.803C42.2227 109.244 42.9699 109.788 44.7646 110.56C46.3468 111.244 46.8815 111.656 46.8815 112.391C46.8815 113.266 46.3028 113.78 45.0722 113.78C44.1859 113.78 43.3508 113.413 42.6329 112.788L41.8784 113.729C42.7355 114.42 43.805 114.876 45.0356 114.876C46.5885 114.876 48.1049 114.111 48.1049 112.347C48.1049 110.737 47.1159 110.244 45.4238 109.479V109.472Z" fill="#004289"/>
<path d="M55.5838 110.95C55.5838 112.92 54.6022 113.751 53.3716 113.751C51.9285 113.751 51.2472 112.884 51.2472 110.95V105.701H49.9727V111.171C49.9727 113.751 51.2106 114.861 53.1005 114.861C54.2359 114.861 55.0637 114.332 55.5764 113.582V114.678H56.8584V105.693H55.5764V110.943L55.5838 110.95Z" fill="#004289"/>
<path d="M65.9052 114.685V109.207C65.9052 106.619 64.66 105.517 62.7627 105.517C61.642 105.517 60.8069 106.039 60.3014 106.803V105.708H59.0122V114.692H60.3014V109.435C60.3014 107.472 61.261 106.627 62.5137 106.627C63.9421 106.627 64.6307 107.502 64.6307 109.435V114.692H65.9126L65.9052 114.685Z" fill="#004289"/>
<path d="M69.9339 117.015L70.3441 117.993C73.6698 117.883 74.8784 116.589 74.8784 113.883V105.7H73.6038V106.708C72.9739 105.987 72.212 105.517 71.084 105.517C69.2014 105.517 67.6997 107.149 67.6997 110.34C67.6997 113.53 69.1208 114.868 70.9155 114.868C72.1241 114.868 72.9812 114.273 73.6112 113.589V114.052C73.6112 116.14 72.9299 116.927 69.9412 117.015H69.9339ZM71.2305 113.758C69.8167 113.758 68.9596 112.582 68.9596 110.325C68.9596 107.906 69.6922 106.627 71.1792 106.627C72.2413 106.627 73.1057 107.23 73.5965 107.972V112.464C72.9665 113.258 72.1827 113.758 71.2231 113.758H71.2305Z" fill="#004289"/>
<path d="M88.9943 108.612C88.9943 104.502 86.6869 102.701 83.5517 102.701H80.3945V114.685H83.31C86.5038 114.685 88.9943 112.957 88.9943 108.605V108.612ZM81.7277 103.914H83.4491C86.1961 103.914 87.6611 105.598 87.6611 108.656C87.6611 112.104 86.0569 113.472 83.4784 113.472H81.7204V103.914H81.7277Z" fill="#004289"/>
<path d="M92.4079 106.818V105.708H91.126V114.692H92.4079V109.42C92.4079 107.7 93.1038 106.708 94.3564 106.708C94.9497 106.708 95.3453 106.84 95.6969 107.046L96.0192 105.752C95.7189 105.612 95.2867 105.531 94.6274 105.531C93.6678 105.531 92.8108 106.105 92.4152 106.833L92.4079 106.818Z" fill="#004289"/>
<path d="M103.674 113.832L103.08 112.905C102.26 113.457 101.645 113.758 100.597 113.758C99.1395 113.758 98.2311 112.545 98.1066 110.634H104.077C104.121 110.42 104.135 110.237 104.135 109.928C104.135 107.362 102.868 105.517 100.531 105.517C98.3996 105.517 96.832 107.288 96.832 110.141C96.832 113.677 98.8245 114.868 100.465 114.868C101.813 114.868 102.604 114.508 103.681 113.832H103.674ZM100.517 106.619C102.084 106.619 102.839 107.832 102.941 109.582H98.1066C98.2531 107.575 99.1834 106.619 100.517 106.619Z" fill="#004289"/>
<path d="M108.392 114.868C109.673 114.868 110.56 114.273 111.19 113.589V114.685H112.472V108.421C112.472 106.333 111.263 105.517 109.329 105.517C108.164 105.517 107.11 105.803 106.326 106.23L106.809 107.274C107.542 106.847 108.311 106.583 109.249 106.583C110.56 106.583 111.19 107.23 111.19 108.575V109.641C110.67 109.347 109.864 109.119 108.97 109.119C107.19 109.119 105.527 109.979 105.527 112.001C105.527 114.17 107 114.868 108.392 114.868ZM108.89 110.141C109.974 110.141 110.611 110.34 111.19 110.663V112.479C110.648 113.229 109.776 113.832 108.626 113.832C107.476 113.832 106.795 113.244 106.795 111.906C106.795 110.781 107.586 110.134 108.897 110.134L108.89 110.141Z" fill="#004289"/>
<path d="M125.32 109.428V114.685H126.594V109.207C126.594 106.583 125.459 105.517 123.628 105.517C122.177 105.517 121.445 106.193 120.917 107.053C120.492 106.193 119.731 105.517 118.463 105.517C117.401 105.517 116.654 106.024 116.193 106.803V105.708H114.918V114.692H116.193V109.435C116.193 107.443 116.962 106.627 118.192 106.627C119.423 106.627 120.119 107.377 120.119 109.435V114.692H121.393V109.435C121.393 107.443 122.177 106.627 123.393 106.627C124.682 106.627 125.32 107.377 125.32 109.435V109.428Z" fill="#004289"/>
<path d="M136.169 107.906C133.781 107.053 133.341 106.487 133.341 105.494C133.341 104.502 134.022 103.73 135.656 103.73C136.857 103.73 137.656 104.119 138.52 104.84L139.37 103.796C138.366 102.994 137.341 102.517 135.744 102.517C133.51 102.517 132.008 103.649 132.008 105.575C132.008 107.303 132.872 108.141 135.458 109.06C137.641 109.854 138.308 110.486 138.308 111.596C138.308 112.861 137.319 113.648 135.729 113.648C134.498 113.648 133.458 113.074 132.55 112.207L131.664 113.192C132.601 114.155 134.059 114.853 135.67 114.853C138.154 114.853 139.626 113.398 139.626 111.523C139.626 109.648 138.813 108.847 136.169 107.884V107.906Z" fill="#004289"/>
<path d="M145.062 106.627C145.963 106.627 146.563 106.95 147.208 107.538L147.977 106.575C147.274 105.958 146.351 105.517 145.142 105.517C143.267 105.517 141.289 106.913 141.289 110.244C141.289 113.376 143.084 114.876 145.062 114.876C146.314 114.876 147.186 114.398 147.94 113.626L147.171 112.81C146.563 113.405 145.977 113.766 145.113 113.766C143.523 113.766 142.586 112.347 142.586 110.134C142.586 107.921 143.67 106.627 145.069 106.627H145.062Z" fill="#004289"/>
<path d="M153.456 105.517C152.335 105.517 151.493 106.039 150.98 106.804V102.576H149.706V114.692H150.98V109.436C150.98 107.465 151.962 106.627 153.2 106.627C154.635 106.627 155.309 107.495 155.309 109.436V114.692H156.591V109.208C156.591 106.627 155.346 105.517 153.449 105.517H153.456Z" fill="#004289"/>
<path d="M162.305 105.517C160.129 105.517 158.386 107.149 158.386 110.207C158.386 113.266 160.056 114.876 162.239 114.876C164.422 114.876 166.165 113.185 166.165 110.134C166.165 107.083 164.48 105.517 162.305 105.517ZM162.283 113.766C160.73 113.766 159.682 112.538 159.682 110.17C159.682 107.803 160.73 106.627 162.283 106.627C163.836 106.627 164.883 107.81 164.883 110.17C164.883 112.53 163.828 113.766 162.283 113.766Z" fill="#004289"/>
<path d="M169.381 102.576H168.099V114.692H169.381V102.576Z" fill="#004289"/>
<path d="M175.227 105.517C174.069 105.517 173.007 105.811 172.231 106.237L172.707 107.288C173.439 106.855 174.208 106.597 175.146 106.597C176.457 106.597 177.087 107.252 177.087 108.575V109.648C176.56 109.347 175.754 109.126 174.86 109.126C173.08 109.126 171.425 109.987 171.425 112.008C171.425 114.185 172.89 114.876 174.289 114.876C175.571 114.876 176.457 114.288 177.087 113.596V114.692H178.369V108.428C178.369 106.333 177.16 105.517 175.227 105.517ZM177.087 112.479C176.545 113.229 175.666 113.832 174.516 113.832C173.432 113.832 172.692 113.244 172.692 111.913C172.692 110.781 173.483 110.148 174.794 110.148C175.886 110.148 176.516 110.34 177.095 110.663V112.479H177.087Z" fill="#004289"/>
<path d="M182.091 106.818V105.7H180.809V114.692H182.091V109.421C182.091 107.708 182.786 106.7 184.032 106.7C184.632 106.7 185.021 106.833 185.38 107.038L185.702 105.737C185.401 105.605 184.969 105.517 184.31 105.517C183.35 105.517 182.493 106.09 182.091 106.818Z" fill="#004289"/>
<path d="M190.617 109.473C189.093 108.781 188.639 108.473 188.639 107.715C188.639 107.068 189.188 106.598 190.126 106.598C191.064 106.598 191.664 106.863 192.36 107.407L193.078 106.466C192.389 105.899 191.444 105.51 190.214 105.51C188.588 105.51 187.416 106.429 187.416 107.804C187.416 109.245 188.17 109.789 189.965 110.553C191.547 111.237 192.082 111.649 192.082 112.384C192.082 113.266 191.496 113.773 190.28 113.773C189.386 113.773 188.551 113.406 187.833 112.781L187.086 113.722C187.936 114.413 189.012 114.869 190.243 114.869C191.789 114.869 193.312 114.104 193.312 112.34C193.312 110.722 192.323 110.237 190.631 109.465L190.617 109.473Z" fill="#004289"/>
<path d="M199.136 105.517C198.008 105.517 197.173 106.039 196.66 106.804V102.576H195.386V114.692H196.66V109.436C196.66 107.465 197.635 106.627 198.88 106.627C200.308 106.627 200.99 107.495 200.99 109.436V114.692H202.271V109.208C202.271 106.627 201.026 105.517 199.136 105.517Z" fill="#004289"/>
<path d="M206.073 105.7H204.798V114.692H206.073V105.7Z" fill="#004289"/>
<path d="M205.465 102.26C204.938 102.26 204.527 102.671 204.527 103.193C204.527 103.686 204.938 104.098 205.465 104.098C205.934 104.098 206.351 103.686 206.351 103.193C206.351 102.671 205.934 102.26 205.465 102.26Z" fill="#004289"/>
<path d="M212.629 105.517C211.42 105.517 210.563 106.112 209.933 106.803V105.708H208.659V118H209.933V113.685C210.563 114.398 211.332 114.876 212.46 114.876C214.336 114.876 215.837 113.229 215.837 110.053C215.837 106.877 214.416 105.517 212.629 105.517ZM212.358 113.766C211.303 113.766 210.431 113.163 209.933 112.413V107.928C210.563 107.149 211.354 106.627 212.307 106.627C213.728 106.627 214.585 107.81 214.585 110.068C214.585 112.479 213.852 113.766 212.358 113.766Z" fill="#004289"/>
<path d="M222.613 103.921H228.298V102.708H221.28V114.692H222.613V109.104H225.888V107.899H222.613V103.921Z" fill="#004289"/>
<path d="M232.188 105.517C230.012 105.517 228.261 107.149 228.261 110.207C228.261 113.266 229.939 114.876 232.114 114.876C234.29 114.876 236.041 113.185 236.041 110.134C236.041 107.083 234.37 105.517 232.188 105.517ZM232.151 113.766C230.598 113.766 229.558 112.538 229.558 110.17C229.558 107.803 230.598 106.627 232.151 106.627C233.704 106.627 234.766 107.81 234.766 110.17C234.766 112.53 233.711 113.766 232.151 113.766Z" fill="#004289"/>
<path d="M243.109 110.95C243.109 112.92 242.142 113.758 240.897 113.758C239.461 113.758 238.78 112.89 238.78 110.95V105.7H237.498V111.177C237.498 113.765 238.743 114.876 240.641 114.876C241.754 114.876 242.589 114.354 243.102 113.596V114.692H244.384V105.7H243.102V110.95H243.109Z" fill="#004289"/>
<path d="M250.288 105.517C249.167 105.517 248.332 106.039 247.812 106.803V105.708H246.53V114.699H247.812V109.443C247.812 107.472 248.786 106.634 250.032 106.634C251.467 106.634 252.149 107.502 252.149 109.443V114.699H253.423V109.215C253.423 106.634 252.178 105.524 250.281 105.524L250.288 105.517Z" fill="#004289"/>
<path d="M261.129 106.715C260.499 105.995 259.73 105.517 258.602 105.517C256.727 105.517 255.225 107.149 255.225 110.347C255.225 113.545 256.639 114.876 258.434 114.876C259.642 114.876 260.492 114.288 261.129 113.597V114.692H262.411V102.576H261.129V106.723V106.715ZM261.129 112.465C260.499 113.251 259.708 113.766 258.756 113.766C257.342 113.766 256.485 112.59 256.485 110.325C256.485 107.906 257.218 106.627 258.705 106.627C259.767 106.627 260.624 107.223 261.129 107.98V112.465Z" fill="#004289"/>
<path d="M267.839 105.517C266.675 105.517 265.62 105.811 264.836 106.237L265.312 107.288C266.052 106.855 266.821 106.597 267.751 106.597C269.063 106.597 269.693 107.252 269.693 108.575V109.648C269.165 109.347 268.359 109.126 267.458 109.126C265.693 109.126 264.03 109.987 264.03 112.008C264.03 114.185 265.503 114.876 266.902 114.876C268.184 114.876 269.063 114.288 269.693 113.596V114.692H270.975V108.428C270.975 106.333 269.766 105.517 267.839 105.517ZM269.693 112.479C269.151 113.229 268.279 113.832 267.114 113.832C266.03 113.832 265.298 113.244 265.298 111.913C265.298 110.781 266.081 110.148 267.393 110.148C268.484 110.148 269.114 110.34 269.693 110.663V112.479Z" fill="#004289"/>
<path d="M275.055 102.576H273.773V105.708H272.667V106.789H273.773V112.854C273.773 114.339 274.373 114.883 275.487 114.883C276.161 114.883 276.637 114.788 277.135 114.575L277.223 113.465C276.813 113.634 276.476 113.722 275.956 113.722C275.274 113.722 275.055 113.45 275.055 112.641V106.789H277.274V105.708H275.055V102.576Z" fill="#004289"/>
<path d="M280.175 102.26C279.648 102.26 279.23 102.671 279.23 103.193C279.23 103.686 279.648 104.098 280.175 104.098C280.658 104.098 281.069 103.686 281.069 103.193C281.069 102.671 280.658 102.26 280.175 102.26Z" fill="#004289"/>
<path d="M280.783 105.7H279.508V114.692H280.783V105.7Z" fill="#004289"/>
<path d="M286.643 105.517C284.468 105.517 282.724 107.149 282.724 110.207C282.724 113.266 284.394 114.876 286.577 114.876C288.76 114.876 290.496 113.185 290.496 110.134C290.496 107.083 288.826 105.517 286.643 105.517ZM286.599 113.766C285.054 113.766 284.013 112.538 284.013 110.17C284.013 107.803 285.054 106.627 286.599 106.627C288.145 106.627 289.214 107.81 289.214 110.17C289.214 112.53 288.159 113.766 286.599 113.766Z" fill="#004289"/>
<path d="M296.093 105.517C294.965 105.517 294.13 106.039 293.617 106.803V105.708H292.335V114.699H293.617V109.443C293.617 107.472 294.591 106.634 295.836 106.634C297.279 106.634 297.953 107.502 297.953 109.443V114.699H299.228V109.215C299.228 106.634 297.983 105.524 296.093 105.524V105.517Z" fill="#004289"/>
<path d="M163.916 19.946L154.079 15.8583L163.916 11.7706L162.166 7.53583L152.328 11.6236L156.408 1.74978L152.189 0L148.116 9.87377L144.036 0L139.824 1.74978L143.897 11.6236L134.059 7.53583L132.315 11.7706L142.146 15.8583L132.315 19.946L134.059 24.1808L143.897 20.0857L139.824 29.9595L144.043 31.7166L148.116 21.8429L152.189 31.7166L156.408 29.9595L152.328 20.0857L162.166 24.1808L163.916 19.946Z" fill="#009FE3"/>
<path d="M100.238 47.5092H106.787V29.96H84.4082V35.871H100.238V47.5092Z" fill="#009FE3"/>
<path d="M125.774 47.5092H132.315V29.96H109.937V35.871H125.774V47.5092Z" fill="#009FE3"/>
<path d="M83.3535 56.5819H125.774V65.6176H132.315V50.6709H83.3535V56.5819Z" fill="#009FE3"/>
<path d="M99.1831 93.2243H132.308V68.6611H99.1831V93.2243ZM105.732 74.5722H125.774V87.3132H105.732V74.5722Z" fill="#009FE3"/>
</g>
<defs>
<clipPath id="clip0_73_181">
<rect width="305" height="118" fill="white"/>
</clipPath>
</defs>
</svg>
