<svg width="40" height="40" viewBox="0 0 40 40" fill="none" xmlns="http://www.w3.org/2000/svg">
<mask id="mask0_53_487" style="mask-type:alpha" maskUnits="userSpaceOnUse" x="0" y="0" width="40" height="40">
<rect x="0.645187" y="0.645508" width="38.7097" height="38.7097" fill="#D9D9D9"/>
</mask>
<g mask="url(#mask0_53_487)">
<path d="M26.4516 31.2906C25.5645 31.2906 24.8051 30.9747 24.1734 30.343C23.5417 29.7113 23.2258 28.9519 23.2258 28.0648V11.9358C23.2258 11.0487 23.5417 10.2893 24.1734 9.65754C24.8051 9.02582 25.5645 8.70996 26.4516 8.70996C27.3387 8.70996 28.0981 9.02582 28.7298 9.65754C29.3615 10.2893 29.6774 11.0487 29.6774 11.9358V28.0648C29.6774 28.9519 29.3615 29.7113 28.7298 30.343C28.0981 30.9747 27.3387 31.2906 26.4516 31.2906ZM13.5484 31.2906C12.6613 31.2906 11.9019 30.9747 11.2702 30.343C10.6384 29.7113 10.3226 28.9519 10.3226 28.0648V11.9358C10.3226 11.0487 10.6384 10.2893 11.2702 9.65754C11.9019 9.02582 12.6613 8.70996 13.5484 8.70996C14.4355 8.70996 15.1949 9.02582 15.8266 9.65754C16.4583 10.2893 16.7742 11.0487 16.7742 11.9358V28.0648C16.7742 28.9519 16.4583 29.7113 15.8266 30.343C15.1949 30.9747 14.4355 31.2906 13.5484 31.2906Z" fill="white"/>
</g>
</svg>
