<svg width="40" height="40" viewBox="0 0 40 40" fill="none" xmlns="http://www.w3.org/2000/svg">
<mask id="mask0_53_482" style="mask-type:alpha" maskUnits="userSpaceOnUse" x="0" y="0" width="40" height="40">
<rect width="38.7097" height="38.7097" transform="matrix(-1 0 0 1 39.3548 0.645508)" fill="#D9D9D9"/>
</mask>
<g mask="url(#mask0_53_482)">
<path d="M29.1533 21.3717C29.3952 21.2104 29.5767 21.0088 29.6976 20.7668C29.8186 20.5249 29.8791 20.2695 29.8791 20.0007C29.8791 19.7319 29.8186 19.4765 29.6976 19.2346C29.5767 18.9926 29.3952 18.791 29.1533 18.6297L16.0081 10.283C15.8737 10.2023 15.7326 10.1418 15.5847 10.1015C15.4369 10.0612 15.2957 10.041 15.1613 10.041C14.7312 10.041 14.3549 10.1956 14.0323 10.5047C13.7097 10.8139 13.5484 11.1969 13.5484 11.6539V28.3475C13.5484 28.8045 13.7097 29.1875 14.0323 29.4967C14.3549 29.8058 14.7312 29.9604 15.1613 29.9604C15.2957 29.9604 15.4369 29.9402 15.5847 29.8999C15.7326 29.8596 15.8737 29.7991 16.0081 29.7184L29.1533 21.3717Z" fill="white"/>
</g>
</svg>
