<svg width="20" height="20" viewBox="0 0 20 20" fill="none" xmlns="http://www.w3.org/2000/svg">
<mask id="mask0_53_577" style="mask-type:alpha" maskUnits="userSpaceOnUse" x="0" y="0" width="20" height="20">
<rect width="20" height="20" fill="#D9D9D9"/>
</mask>
<g mask="url(#mask0_53_577)">
<path d="M9.99981 17.1667C9.82259 17.1667 9.67419 17.1067 9.5546 16.9869C9.43488 16.8672 9.37502 16.7188 9.37502 16.5417V10.7083H3.54169C3.3646 10.7083 3.2162 10.6484 3.09648 10.5285C2.97662 10.4087 2.91669 10.2602 2.91669 10.0831C2.91669 9.9059 2.97662 9.7575 3.09648 9.63792C3.2162 9.51819 3.3646 9.45833 3.54169 9.45833H9.37502V3.625C9.37502 3.44792 9.43495 3.29951 9.55481 3.17979C9.67467 3.05993 9.82315 3 10.0002 3C10.1775 3 10.3259 3.05993 10.4454 3.17979C10.5652 3.29951 10.625 3.44792 10.625 3.625V9.45833H16.4584C16.6354 9.45833 16.7838 9.51826 16.9036 9.63813C17.0234 9.75799 17.0834 9.90646 17.0834 10.0835C17.0834 10.2608 17.0234 10.4092 16.9036 10.5288C16.7838 10.6485 16.6354 10.7083 16.4584 10.7083H10.625V16.5417C10.625 16.7188 10.5651 16.8672 10.4452 16.9869C10.3254 17.1067 10.1769 17.1667 9.99981 17.1667Z" fill="white"/>
</g>
</svg>
