<svg width="14" height="14" viewBox="0 0 14 14" fill="none" xmlns="http://www.w3.org/2000/svg">
<mask id="mask0_53_536" style="mask-type:alpha" maskUnits="userSpaceOnUse" x="0" y="0" width="14" height="14">
<rect width="14" height="14" fill="#D9D9D9"/>
</mask>
<g mask="url(#mask0_53_536)">
<path d="M6.99981 10.9167C6.87576 10.9167 6.77188 10.8747 6.68817 10.7908C6.60436 10.707 6.56246 10.6031 6.56246 10.4792V6.39583H2.47913C2.35517 6.39583 2.25129 6.35388 2.16748 6.26998C2.08358 6.18608 2.04163 6.08215 2.04163 5.95819C2.04163 5.83413 2.08358 5.73025 2.16748 5.64654C2.25129 5.56274 2.35517 5.52083 2.47913 5.52083H6.56246V1.4375C6.56246 1.31354 6.60441 1.20966 6.68831 1.12585C6.77222 1.04195 6.87615 1 7.00011 1C7.12416 1 7.22804 1.04195 7.31175 1.12585C7.39556 1.20966 7.43746 1.31354 7.43746 1.4375V5.52083H11.5208C11.6448 5.52083 11.7486 5.56279 11.8324 5.64669C11.9163 5.73059 11.9583 5.83452 11.9583 5.95848C11.9583 6.08254 11.9163 6.18642 11.8324 6.27013C11.7486 6.35393 11.6448 6.39583 11.5208 6.39583H7.43746V10.4792C7.43746 10.6031 7.39551 10.707 7.31161 10.7908C7.2277 10.8747 7.12377 10.9167 6.99981 10.9167Z" fill="black"/>
</g>
</svg>
