<svg width="30" height="30" viewBox="0 0 30 30" fill="none" xmlns="http://www.w3.org/2000/svg">
<path d="M4.79917 30C3.47 30 2.33792 29.5356 1.40292 28.6067C0.467639 27.6775 0 26.5493 0 25.2221V8.33333H2.77792V25.2221C2.77792 25.7888 2.97458 26.2638 3.36792 26.6471C3.76153 27.0304 4.24139 27.2221 4.8075 27.2221C5.37361 27.2221 5.84819 27.0304 6.23125 26.6471C6.61403 26.2638 6.80542 25.7888 6.80542 25.2221V4.80542C6.80542 3.4707 7.2725 2.33611 8.20667 1.40167C9.14083 0.467223 10.2751 0 11.6096 0C12.944 0 14.0742 0.467223 15 1.40167C15.9258 2.33611 16.3888 3.4707 16.3888 4.80542V25.2221C16.3888 25.7888 16.5856 26.2638 16.9792 26.6471C17.3728 27.0304 17.8526 27.2221 18.4188 27.2221C18.9849 27.2221 19.4593 27.0304 19.8421 26.6471C20.2251 26.2638 20.4167 25.7888 20.4167 25.2221V4.80542C20.4167 3.4707 20.8838 2.33611 21.8179 1.40167C22.7521 0.467223 23.8862 0 25.2204 0C26.5549 0 27.6851 0.467223 28.6112 1.40167C29.5371 2.33611 30 3.4707 30 4.80542V21.6667H27.2221V4.80542C27.2221 4.2407 27.0307 3.76153 26.6479 3.36792C26.2649 2.97458 25.7903 2.77792 25.2242 2.77792C24.6581 2.77792 24.1782 2.97458 23.7846 3.36792C23.3913 3.76153 23.1946 4.2407 23.1946 4.80542V25.2221C23.1946 26.5493 22.7294 27.6775 21.7992 28.6067C20.8689 29.5356 19.7392 30 18.41 30C17.0811 30 15.949 29.5356 15.0138 28.6067C14.0787 27.6775 13.6113 26.5493 13.6113 25.2221V4.80542C13.6113 4.2407 13.4197 3.76153 13.0367 3.36792C12.6536 2.97458 12.179 2.77792 11.6129 2.77792C11.0468 2.77792 10.5671 2.97458 10.1738 3.36792C9.78014 3.76153 9.58333 4.2407 9.58333 4.80542V25.2221C9.58333 26.5493 9.1182 27.6775 8.18792 28.6067C7.25764 29.5356 6.12806 30 4.79917 30Z" fill="white" fill-opacity="0.8"/>
</svg>
