<svg width="38" height="24" viewBox="0 0 38 24" fill="none" xmlns="http://www.w3.org/2000/svg">
<path d="M8.71908 23.6673C7.40658 23.6673 6.29199 23.2082 5.37533 22.2898C4.45866 21.3718 4.00033 20.2569 4.00033 18.9452H0.666992V3.3894C0.666992 2.54912 0.966159 1.82982 1.56449 1.23148C2.16283 0.63315 2.88213 0.333984 3.72241 0.333984H27.5003L37.3337 10.1673V18.9452H34.0003C34.0003 20.2569 33.5409 21.3718 32.622 22.2898C31.7031 23.2082 30.5874 23.6673 29.2749 23.6673C27.9621 23.6673 26.8474 23.2082 25.9307 22.2898C25.0141 21.3718 24.5557 20.2569 24.5557 18.9452H13.4449C13.4449 20.26 12.9855 21.3757 12.0666 22.2923C11.1477 23.209 10.0319 23.6673 8.71908 23.6673ZM24.0003 8.66732H31.6116L26.0557 3.1119H24.0003V8.66732ZM13.7224 8.66732H21.2224V3.1119H13.7224V8.66732ZM3.44491 8.66732H10.9449V3.1119H3.44491V8.66732ZM8.71866 21.3061C9.37866 21.3061 9.93783 21.0783 10.3962 20.6227C10.8545 20.1669 11.0837 19.609 11.0837 18.949C11.0837 18.289 10.8557 17.7298 10.3999 17.2715C9.94435 16.8132 9.38658 16.584 8.72658 16.584C8.06658 16.584 7.50741 16.8119 7.04908 17.2677C6.59074 17.7233 6.36158 18.2811 6.36158 18.9411C6.36158 19.6011 6.58935 20.1602 7.04491 20.6186C7.50074 21.0769 8.05866 21.3061 8.71866 21.3061ZM29.2741 21.3061C29.9341 21.3061 30.4932 21.0783 30.9516 20.6227C31.4099 20.1669 31.6391 19.609 31.6391 18.949C31.6391 18.289 31.4113 17.7298 30.9557 17.2715C30.4999 16.8132 29.942 16.584 29.282 16.584C28.622 16.584 28.0628 16.8119 27.6045 17.2677C27.1462 17.7233 26.917 18.2811 26.917 18.9411C26.917 19.6011 27.1449 20.1602 27.6007 20.6186C28.0563 21.0769 28.6141 21.3061 29.2741 21.3061ZM3.44491 16.1673H4.91699C5.38921 15.5193 5.96324 15.0332 6.63908 14.709C7.31519 14.3848 8.00963 14.2227 8.72241 14.2227C9.43546 14.2227 10.1299 14.3848 10.8057 14.709C11.4819 15.0332 12.056 15.5193 12.5282 16.1673H25.4724C25.9446 15.5193 26.5188 15.0332 27.1949 14.709C27.8707 14.3848 28.5652 14.2227 29.2782 14.2227C29.991 14.2227 30.6855 14.3848 31.3616 14.709C32.0374 15.0332 32.6114 15.5193 33.0837 16.1673H34.5557V11.4452H3.44491V16.1673Z" fill="#D9E74C"/>
</svg>
