<svg width="34" height="24" viewBox="0 0 34 24" fill="none" xmlns="http://www.w3.org/2000/svg">
<path d="M0.333008 23.6673V13.2507C0.333008 12.5376 0.47648 11.8755 0.763425 11.2644C1.05065 10.6533 1.46273 10.1394 1.99967 9.72274V4.94523C1.99967 3.64884 2.44412 2.55621 3.33301 1.66732C4.2219 0.778429 5.31454 0.333984 6.61093 0.333984H13.833C14.4533 0.333984 15.032 0.465929 15.5693 0.729818C16.1062 0.993707 16.583 1.35246 16.9997 1.80607C17.4163 1.35246 17.8886 0.993707 18.4163 0.729818C18.9441 0.465929 19.5181 0.333984 20.1384 0.333984H27.3609C28.657 0.333984 29.7543 0.778429 30.6526 1.66732C31.5506 2.55621 31.9997 3.64884 31.9997 4.94523V9.72274C32.5366 10.1394 32.9487 10.6533 33.2359 11.2644C33.5229 11.8755 33.6663 12.5376 33.6663 13.2507V23.6673H30.8884V20.334H3.11092V23.6673H0.333008ZM18.3884 8.80607H29.2218V4.94523C29.2218 4.41746 29.0436 3.97996 28.6872 3.63273C28.3308 3.28551 27.8887 3.1119 27.3609 3.1119H20.0551C19.5829 3.1119 19.187 3.29468 18.8676 3.66024C18.5481 4.02607 18.3884 4.4544 18.3884 4.94523V8.80607ZM4.77759 8.80607H15.6109V4.94523C15.6109 4.4544 15.4512 4.02607 15.1318 3.66024C14.8123 3.29468 14.4165 3.1119 13.9443 3.1119H6.61093C6.10148 3.1119 5.66856 3.2901 5.31218 3.64648C4.95579 4.00287 4.77759 4.43579 4.77759 4.94523V8.80607ZM3.11092 17.5561H30.8884V13.2507C30.8884 12.7784 30.7287 12.3826 30.4093 12.0632C30.0898 11.7437 29.694 11.584 29.2218 11.584H4.77759C4.30537 11.584 3.90954 11.7437 3.59009 12.0632C3.27065 12.3826 3.11092 12.7784 3.11092 13.2507V17.5561Z" fill="#D9E74C" fill-opacity="0.8"/>
</svg>
