<svg width="20" height="11" viewBox="0 0 20 11" fill="none" xmlns="http://www.w3.org/2000/svg">
<path d="M0.5 10.2305V9.19197C1.018 9.12797 1.4215 8.95814 1.7105 8.68247C1.99967 8.4068 2.54617 8.26897 3.35 8.26897C4.19233 8.26897 4.78692 8.43564 5.13375 8.76897C5.48042 9.1023 5.99225 9.26897 6.66925 9.26897C7.35392 9.26897 7.86958 9.1023 8.21625 8.76897C8.56308 8.43564 9.15767 8.26897 10 8.26897C10.8347 8.26897 11.4292 8.43564 11.7837 8.76897C12.1382 9.1023 12.6539 9.26897 13.3307 9.26897C14.0154 9.26897 14.5292 9.1023 14.872 8.76897C15.215 8.43564 15.8077 8.26897 16.65 8.26897C17.4538 8.26897 18.0003 8.4068 18.2895 8.68247C18.5785 8.95814 18.982 9.12797 19.5 9.19197V10.2305C18.8962 10.1536 18.417 9.97414 18.0625 9.69197C17.708 9.40997 17.2372 9.26897 16.65 9.26897C15.9858 9.26897 15.4772 9.43564 15.124 9.76897C14.7708 10.1023 14.1731 10.269 13.3307 10.269C12.4961 10.269 11.9015 10.1023 11.547 9.76897C11.1927 9.43564 10.677 9.26897 10 9.26897C9.31533 9.26897 8.79967 9.43564 8.453 9.76897C8.10617 10.1023 7.51158 10.269 6.66925 10.269C5.82692 10.269 5.23108 10.1023 4.88175 9.76897C4.53242 9.43564 4.02183 9.26897 3.35 9.26897C2.74233 9.26897 2.27467 9.40997 1.947 9.69197C1.6195 9.97414 1.13717 10.1536 0.5 10.2305ZM0.5 6.46122V5.42272C1.018 5.35872 1.4215 5.18889 1.7105 4.91322C1.99967 4.63755 2.54617 4.49972 3.35 4.49972C4.18467 4.49972 4.77733 4.66639 5.128 4.99972C5.4785 5.33305 5.99225 5.49972 6.66925 5.49972C7.35392 5.49972 7.86958 5.33305 8.21625 4.99972C8.56308 4.66639 9.15767 4.49972 10 4.49972C10.8347 4.49972 11.4282 4.66639 11.7807 4.99972C12.1332 5.33305 12.6461 5.49972 13.3193 5.49972C14.0039 5.49972 14.5196 5.33305 14.8663 4.99972C15.2131 4.66639 15.8077 4.49972 16.65 4.49972C17.4462 4.49972 17.9927 4.63755 18.2895 4.91322C18.5862 5.18889 18.9897 5.35872 19.5 5.42272V6.46122C18.8885 6.38439 18.4074 6.20489 18.0568 5.92272C17.7061 5.64072 17.2372 5.49972 16.65 5.49972C15.9858 5.49972 15.4772 5.66639 15.124 5.99972C14.7708 6.33305 14.1731 6.49972 13.3307 6.49972C12.4961 6.49972 11.9015 6.33305 11.547 5.99972C11.1927 5.66639 10.677 5.49972 10 5.49972C9.31533 5.49972 8.80158 5.66639 8.45875 5.99972C8.11575 6.33305 7.52308 6.49972 6.68075 6.49972C5.83842 6.49972 5.23875 6.33305 4.88175 5.99972C4.52475 5.66639 4.01417 5.49972 3.35 5.49972C2.75 5.49972 2.28233 5.64072 1.947 5.92272C1.61183 6.20489 1.1295 6.38439 0.5 6.46122ZM0.5 2.69197V1.65347C1.018 1.58947 1.4215 1.41964 1.7105 1.14397C1.99967 0.868303 2.54617 0.730469 3.35 0.730469C4.18467 0.730469 4.77733 0.897135 5.128 1.23047C5.4785 1.5638 5.99225 1.73047 6.66925 1.73047C7.35392 1.73047 7.86958 1.5638 8.21625 1.23047C8.56308 0.897135 9.15767 0.730469 10 0.730469C10.8347 0.730469 11.4282 0.897135 11.7807 1.23047C12.1332 1.5638 12.6461 1.73047 13.3193 1.73047C14.0039 1.73047 14.5196 1.5638 14.8663 1.23047C15.2131 0.897135 15.8077 0.730469 16.65 0.730469C17.4462 0.730469 17.9927 0.868303 18.2895 1.14397C18.5862 1.41964 18.9897 1.58947 19.5 1.65347V2.69197C18.8885 2.61514 18.4074 2.43564 18.0568 2.15347C17.7061 1.87147 17.2372 1.73047 16.65 1.73047C15.9858 1.73047 15.4772 1.89714 15.124 2.23047C14.7708 2.5638 14.1731 2.73047 13.3307 2.73047C12.4961 2.73047 11.9015 2.5638 11.547 2.23047C11.1927 1.89714 10.677 1.73047 10 1.73047C9.31533 1.73047 8.80158 1.89714 8.45875 2.23047C8.11575 2.5638 7.52308 2.73047 6.68075 2.73047C5.83842 2.73047 5.23875 2.5638 4.88175 2.23047C4.52475 1.89714 4.01417 1.73047 3.35 1.73047C2.75 1.73047 2.276 1.87147 1.928 2.15347C1.57983 2.43564 1.10383 2.61514 0.5 2.69197Z" fill="white"/>
</svg>
