<svg width="190" height="46" viewBox="0 0 190 46" fill="none" xmlns="http://www.w3.org/2000/svg">
<path d="M187.596 24.9496H170.226V22.2819H187.596V24.9496ZM187.848 30.6701H170.027V27.9492H187.848V30.6701ZM176.903 30.4179H173.538V23.2508H176.903V30.4179ZM184.324 30.4179H181.012V23.2508H184.324V30.4179ZM180.573 22.8659H177.195V19.0168H180.573V22.8659ZM189.963 20.2777H167.885V17.6099H189.963V20.2777ZM180.108 7.90768C180.108 9.33227 179.709 10.6374 178.911 11.8231C178.113 13.0088 176.965 14.0042 175.466 14.8094C173.977 15.6146 172.221 16.1455 170.2 16.4021L168.963 13.7874C170.692 13.5751 172.177 13.168 173.418 12.5664C174.668 11.9647 175.604 11.2612 176.224 10.456C176.854 9.64196 177.169 8.79252 177.169 7.90768V7.11133H180.108V7.90768ZM180.666 7.90768C180.666 8.77482 180.981 9.61984 181.611 10.4427C182.24 11.2568 183.171 11.9691 184.404 12.5796C185.636 13.1813 187.121 13.5839 188.859 13.7874L187.662 16.4021C185.614 16.1455 183.845 15.6146 182.356 14.8094C180.866 13.9954 179.722 12.9955 178.924 11.8098C178.135 10.6241 177.741 9.32342 177.741 7.90768V7.11133H180.666V7.90768Z" fill="white"/>
<path d="M152.179 8.47823C153.438 8.47823 154.577 8.73483 155.597 9.24804C156.625 9.75239 157.427 10.4558 158.004 11.3584C158.589 12.2609 158.882 13.2785 158.882 14.4111C158.882 15.5525 158.589 16.5745 158.004 17.477C157.427 18.3707 156.625 19.0742 155.597 19.5874C154.577 20.0917 153.438 20.3439 152.179 20.3439C150.911 20.3439 149.762 20.0917 148.734 19.5874C147.714 19.0742 146.912 18.3707 146.327 17.477C145.741 16.5745 145.449 15.5525 145.449 14.4111C145.449 13.2785 145.741 12.2609 146.327 11.3584C146.912 10.4558 147.714 9.75239 148.734 9.24804C149.762 8.73483 150.911 8.47823 152.179 8.47823ZM152.179 11.3982C151.531 11.407 150.955 11.5309 150.45 11.7698C149.944 11.9999 149.545 12.345 149.253 12.8051C148.96 13.2652 148.814 13.8005 148.814 14.4111C148.814 15.0393 148.96 15.579 149.253 16.0303C149.545 16.4727 149.944 16.8134 150.45 17.0523C150.955 17.2912 151.531 17.4151 152.179 17.4239C152.826 17.4151 153.407 17.2912 153.921 17.0523C154.444 16.8134 154.847 16.4727 155.131 16.0303C155.424 15.579 155.57 15.0393 155.57 14.4111C155.57 13.8005 155.424 13.2652 155.131 12.8051C154.847 12.345 154.444 11.9999 153.921 11.7698C153.407 11.5309 152.826 11.407 152.179 11.3982ZM164.667 31.0947H161.302V6.8457H164.667V31.0947ZM144.438 23.3966C147.329 23.3966 150.055 23.3479 152.617 23.2506C155.189 23.1533 157.627 22.9453 159.932 22.6268L160.172 25.0557C158.514 25.383 156.794 25.6264 155.011 25.7857C153.229 25.9361 151.549 26.0334 149.971 26.0776C148.393 26.1219 146.681 26.144 144.837 26.144L144.438 23.3966Z" fill="white"/>
<path d="M138.879 13.0705H132.575V10.4027H138.879V13.0705ZM138.972 17.9548H132.575V15.1941H138.972V17.9548ZM141.193 21.0208H137.815V6.8457H141.193V21.0208ZM133.306 19.6935H121.802V8.6375H133.306V19.6935ZM125.167 17.0258H129.968V11.3186H125.167V17.0258ZM132.921 21.6579C134.641 21.6579 136.126 21.8437 137.376 22.2153C138.626 22.5781 139.584 23.1134 140.249 23.8213C140.923 24.5292 141.264 25.3742 141.273 26.3564C141.264 27.3385 140.923 28.1791 140.249 28.8782C139.584 29.586 138.626 30.1213 137.376 30.4841C136.126 30.8469 134.641 31.0283 132.921 31.0283C131.209 31.0283 129.729 30.8469 128.479 30.4841C127.237 30.1213 126.28 29.586 125.606 28.8782C124.941 28.1791 124.608 27.3385 124.608 26.3564C124.608 25.3742 124.941 24.5292 125.606 23.8213C126.28 23.1134 127.237 22.5781 128.479 22.2153C129.729 21.8437 131.209 21.6579 132.921 21.6579ZM132.921 24.2328C131.839 24.2328 130.935 24.3124 130.208 24.4717C129.48 24.6221 128.926 24.8566 128.545 25.1751C128.164 25.4848 127.973 25.8786 127.973 26.3564C127.973 26.8076 128.164 27.1881 128.545 27.4978C128.926 27.8075 129.48 28.042 130.208 28.2013C130.943 28.3605 131.848 28.4446 132.921 28.4534C134.002 28.4446 134.911 28.3605 135.647 28.2013C136.392 28.042 136.95 27.8075 137.323 27.4978C137.695 27.1881 137.881 26.8076 137.881 26.3564C137.881 25.8786 137.695 25.4848 137.323 25.1751C136.95 24.8566 136.396 24.6221 135.66 24.4717C134.924 24.3124 134.011 24.2328 132.921 24.2328Z" fill="white"/>
<path d="M104.353 11.1742C104.353 12.5899 104.153 13.9393 103.754 15.2223C103.364 16.4965 102.748 17.6379 101.906 18.6466C101.063 19.6553 100.013 20.4207 98.7537 20.9428L96.9183 18.3281C98 17.8591 98.9 17.2397 99.6181 16.4699C100.345 15.7001 100.873 14.8639 101.201 13.9614C101.529 13.0589 101.697 12.1298 101.706 11.1742V8.33383H104.353V11.1742ZM104.991 11.1742C104.991 12.0855 105.155 12.9527 105.483 13.7756C105.811 14.5896 106.312 15.3329 106.986 16.0054C107.669 16.669 108.524 17.1955 109.553 17.5848L107.758 20.1729C106.525 19.704 105.505 19.0182 104.699 18.1157C103.892 17.2043 103.293 16.1602 102.903 14.9834C102.522 13.7977 102.331 12.528 102.331 11.1742V8.33383H104.991V11.1742ZM118.052 21.6727H114.82V6.90039H118.052V21.6727ZM115.711 15.5408H111.827V12.7934H115.711V15.5408ZM112.798 20.9162H109.659V7.31184H112.798V20.9162ZM109.779 22.0046C111.473 22.0046 112.949 22.1815 114.208 22.5355C115.476 22.8894 116.451 23.407 117.134 24.0884C117.825 24.7697 118.171 25.5749 118.171 26.504C118.171 27.433 117.825 28.2338 117.134 28.9063C116.451 29.5876 115.476 30.1097 114.208 30.4725C112.949 30.8441 111.473 31.0299 109.779 31.0299C108.077 31.0299 106.596 30.8441 105.337 30.4725C104.078 30.1097 103.107 29.5876 102.424 28.9063C101.742 28.2338 101.4 27.433 101.4 26.504C101.4 25.5749 101.742 24.7697 102.424 24.0884C103.107 23.407 104.078 22.8894 105.337 22.5355C106.596 22.1815 108.077 22.0046 109.779 22.0046ZM109.779 24.5263C108.724 24.5175 107.824 24.5883 107.079 24.7387C106.334 24.8891 105.767 25.1148 105.377 25.4156C104.987 25.7165 104.796 26.0792 104.805 26.504C104.796 26.9375 104.987 27.3003 105.377 27.5923C105.767 27.8843 106.33 28.1055 107.066 28.2559C107.811 28.4064 108.715 28.4816 109.779 28.4816C110.843 28.4816 111.743 28.4064 112.479 28.2559C113.224 28.1055 113.787 27.8843 114.168 27.5923C114.558 27.3003 114.758 26.9375 114.766 26.504C114.758 26.0792 114.558 25.7165 114.168 25.4156C113.787 25.1148 113.219 24.8891 112.466 24.7387C111.721 24.5883 110.825 24.5175 109.779 24.5263Z" fill="white"/>
<path d="M184.629 37.7686H189.881V39.1058H186.25V41.0037H189.606V42.3356H186.25V44.2389H189.892V45.5761H184.629V37.7686Z" fill="white"/>
<path d="M178.405 37.7686H183.56V39.1058H180.026V41.0037H183.219V42.3356H180.026V45.5761H178.405V37.7686Z" fill="white"/>
<path d="M177.076 45.5761H175.455V37.7686H177.076V45.5761Z" fill="white"/>
<path d="M169.415 37.7686H171.035V44.2389H174.401V45.5761H169.415V37.7686Z" fill="white"/>
<path d="M159.862 37.7686H162.92C163.507 37.7686 164.012 37.8728 164.433 38.0813C164.854 38.2862 165.175 38.5809 165.395 38.9656C165.614 39.3502 165.724 39.7995 165.724 40.3136C165.724 40.8276 165.613 41.2715 165.389 41.6454C165.17 42.0192 164.845 42.3068 164.417 42.5081C163.992 42.7058 163.48 42.8047 162.882 42.8047H160.813V41.4836H162.628C162.945 41.4836 163.21 41.4405 163.423 41.3542C163.635 41.2644 163.794 41.1349 163.898 40.966C164.003 40.7935 164.055 40.576 164.055 40.3136C164.055 40.0512 164.003 39.8283 163.898 39.645C163.794 39.4616 163.633 39.325 163.417 39.2352C163.205 39.1453 162.94 39.1004 162.623 39.1004H161.483V45.5761H159.862V37.7686ZM166.005 45.5761H164.201L162.304 42.0282H164.06L166.005 45.5761Z" fill="white"/>
<path d="M158.684 41.6708C158.684 42.5012 158.526 43.2183 158.209 43.8222C157.895 44.4261 157.461 44.888 156.907 45.208C156.355 45.5243 155.731 45.6824 155.032 45.6824C154.333 45.6824 153.706 45.5243 153.151 45.208C152.6 44.888 152.166 44.4261 151.849 43.8222C151.536 43.2147 151.379 42.4976 151.379 41.6708C151.379 40.8404 151.536 40.1233 151.849 39.5194C152.166 38.9119 152.6 38.45 153.151 38.1337C153.706 37.8173 154.333 37.6592 155.032 37.6592C155.731 37.6592 156.355 37.8173 156.907 38.1337C157.461 38.45 157.895 38.9119 158.209 39.5194C158.526 40.1233 158.684 40.8404 158.684 41.6708ZM157.042 41.6708C157.042 41.1208 156.959 40.6535 156.793 40.2689C156.631 39.8843 156.399 39.5931 156.096 39.3954C155.794 39.1941 155.439 39.0934 155.032 39.0934C154.628 39.0934 154.275 39.1941 153.973 39.3954C153.674 39.5931 153.44 39.8843 153.27 40.2689C153.105 40.6535 153.022 41.1208 153.022 41.6708C153.022 42.2172 153.105 42.6827 153.27 43.0673C153.44 43.4484 153.674 43.7395 153.973 43.9408C154.275 44.1421 154.628 44.2446 155.032 44.2482C155.439 44.2446 155.794 44.1421 156.096 43.9408C156.399 43.7395 156.631 43.4484 156.793 43.0673C156.959 42.6827 157.042 42.2172 157.042 41.6708Z" fill="white"/>
<path d="M145.306 37.7686H150.461V39.1058H146.927V41.0037H150.12V42.3356H146.927V45.5761H145.306V37.7686Z" fill="white"/>
<path d="M135.322 37.7686H141.73V39.1058H139.331V45.5761H137.726V39.1058H135.322V37.7686Z" fill="white"/>
<path d="M132.901 39.9993C132.883 39.7908 132.818 39.6129 132.707 39.4655C132.595 39.3181 132.44 39.2067 132.242 39.1312C132.047 39.0557 131.817 39.018 131.55 39.018C131.284 39.018 131.055 39.0557 130.864 39.1312C130.673 39.2067 130.527 39.3127 130.426 39.4493C130.326 39.5823 130.275 39.7351 130.275 39.9076C130.268 40.1736 130.376 40.3821 130.599 40.5331C130.823 40.6805 131.131 40.7991 131.523 40.889L132.226 41.0561C132.964 41.2251 133.539 41.4929 133.949 41.8595C134.363 42.2262 134.571 42.7222 134.571 43.3477C134.571 43.8222 134.45 44.2356 134.209 44.5879C133.971 44.9401 133.623 45.2115 133.166 45.4021C132.712 45.589 132.17 45.6824 131.54 45.6824C130.906 45.686 130.356 45.5908 129.892 45.3967C129.431 45.199 129.07 44.9114 128.811 44.5339C128.555 44.1529 128.418 43.6874 128.4 43.1374H129.978C129.996 43.3926 130.072 43.6101 130.205 43.7899C130.338 43.966 130.517 44.099 130.74 44.1889C130.967 44.2751 131.228 44.3183 131.523 44.3183C131.804 44.3183 132.051 44.2769 132.264 44.1943C132.476 44.1116 132.64 43.9965 132.755 43.8492C132.87 43.7018 132.928 43.531 132.928 43.3369C132.928 43.1644 132.878 43.017 132.777 42.8948C132.676 42.7726 132.528 42.6701 132.334 42.5874C132.143 42.5048 131.896 42.4257 131.594 42.3502L130.734 42.1453C130.05 41.9764 129.524 41.7193 129.157 41.3743C128.789 41.0256 128.607 40.5726 128.611 40.0155C128.611 39.5518 128.737 39.1402 128.989 38.7807C129.241 38.4212 129.591 38.1445 130.037 37.9503C130.488 37.7562 130.997 37.6592 131.567 37.6592C132.136 37.6592 132.638 37.758 133.074 37.9557C133.513 38.1498 133.854 38.4248 134.095 38.7807C134.336 39.1366 134.459 39.5428 134.463 39.9993H132.901Z" fill="white"/>
<path d="M122.149 37.7686H127.401V39.1058H123.77V41.0037H127.125V42.3356H123.77V44.2389H127.412V45.5761H122.149V37.7686Z" fill="white"/>
<path d="M115.158 37.7686H118.216C118.803 37.7686 119.307 37.8728 119.729 38.0813C120.15 38.2862 120.471 38.5809 120.69 38.9656C120.91 39.3502 121.02 39.7995 121.02 40.3136C121.02 40.8276 120.908 41.2715 120.685 41.6454C120.465 42.0192 120.141 42.3068 119.712 42.5081C119.287 42.7058 118.776 42.8047 118.178 42.8047H116.109V41.4836H117.924C118.241 41.4836 118.506 41.4405 118.718 41.3542C118.931 41.2644 119.089 41.1349 119.194 40.966C119.298 40.7935 119.35 40.576 119.35 40.3136C119.35 40.0512 119.298 39.8283 119.194 39.645C119.089 39.4616 118.929 39.325 118.713 39.2352C118.5 39.1453 118.236 39.1004 117.919 39.1004H116.779V45.5761H115.158V37.7686ZM121.301 45.5761H119.496L117.6 42.0282H119.356L121.301 45.5761Z" fill="white"/>
<path d="M113.98 41.6708C113.98 42.5012 113.821 43.2183 113.504 43.8222C113.191 44.4261 112.757 44.888 112.202 45.208C111.651 45.5243 111.026 45.6824 110.327 45.6824C109.629 45.6824 109.002 45.5243 108.447 45.208C107.896 44.888 107.462 44.4261 107.145 43.8222C106.832 43.2147 106.675 42.4976 106.675 41.6708C106.675 40.8404 106.832 40.1233 107.145 39.5194C107.462 38.9119 107.896 38.45 108.447 38.1337C109.002 37.8173 109.629 37.6592 110.327 37.6592C111.026 37.6592 111.651 37.8173 112.202 38.1337C112.757 38.45 113.191 38.9119 113.504 39.5194C113.821 40.1233 113.98 40.8404 113.98 41.6708ZM112.337 41.6708C112.337 41.1208 112.254 40.6535 112.089 40.2689C111.927 39.8843 111.694 39.5931 111.392 39.3954C111.089 39.1941 110.734 39.0934 110.327 39.0934C109.924 39.0934 109.571 39.1941 109.268 39.3954C108.969 39.5931 108.735 39.8843 108.566 40.2689C108.4 40.6535 108.317 41.1208 108.317 41.6708C108.317 42.2172 108.4 42.6827 108.566 43.0673C108.735 43.4484 108.969 43.7395 109.268 43.9408C109.571 44.1421 109.924 44.2446 110.327 44.2482C110.734 44.2446 111.089 44.1421 111.392 43.9408C111.694 43.7395 111.927 43.4484 112.089 43.0673C112.254 42.6827 112.337 42.2172 112.337 41.6708Z" fill="white"/>
<path d="M100.602 37.7686H105.756V39.1058H102.223V41.0037H105.416V42.3356H102.223V45.5761H100.602V37.7686Z" fill="white"/>
<path fill-rule="evenodd" clip-rule="evenodd" d="M30.5646 3.95259C22.2233 4.74545 21.6671 12.1975 21.2839 17.3314C21.2566 17.6982 21.2301 18.0532 21.2017 18.3931V18.8496C23.9106 24.1878 26.9155 32.9658 28.4383 37.9302C29.0632 41.6721 27.2308 43.433 25.8249 44.1366C25.9934 44.1875 26.1555 44.2399 26.3088 44.3011C35.2478 46.8494 41.7719 44.5843 43.3324 42.6022C43.6005 42.3104 43.8425 41.9428 44.0605 41.5085C40.581 37.2833 38.7358 34.9868 40.3553 27.3122C41.5768 23.6551 42.4088 21.7864 45.4603 19.5485C45.2294 16.2202 44.9122 13.1299 44.6091 10.7482C43.6193 2.8457 36.1547 3.47876 31.0461 3.91202C30.8831 3.92584 30.7225 3.93946 30.5646 3.95259Z" fill="#A4B648"/>
<path fill-rule="evenodd" clip-rule="evenodd" d="M62.9111 20.5167C64.6134 14.1458 69.2098 1.14935 73.9764 0.130017C75.5369 -0.436279 79.3389 0.554739 82.0626 9.04918C84.758 18.1099 90.0637 37.1658 89.7233 40.9033C90.1488 42.4607 88.106 45.6602 76.53 46C72.4991 46 65.1278 45.4708 61.6978 43.5773C65.9674 41.3097 67.6878 37.788 68.0187 35.8067C69.2001 29.6169 65.5561 23.8319 62.81 20.8363C62.8434 20.7302 62.8771 20.6237 62.9111 20.5167Z" fill="#698137"/>
<path fill-rule="evenodd" clip-rule="evenodd" d="M61.6348 19.6673C55.8468 14.5706 48.7252 17.2605 45.888 19.2426C45.7407 19.3454 45.5982 19.4474 45.4603 19.5485C46.0322 27.7923 46.0745 37.4961 44.0605 41.5085L44.1224 41.5837C44.2819 41.7773 44.4447 41.975 44.6107 42.1775C50.3958 46.7137 54.576 45.7778 57.1514 45.2012C57.2285 45.184 57.3042 45.167 57.3784 45.1506C59.0451 44.7725 60.4759 44.2263 61.6978 43.5773C60.782 43.0717 60.1472 42.4688 59.932 41.7528C59.0873 40.4884 58.4941 34.5399 62.81 20.8363C62.3905 20.3787 61.992 19.9862 61.6348 19.6673Z" fill="#6DA13C"/>
<path fill-rule="evenodd" clip-rule="evenodd" d="M14.3937 13.7212C12.6914 13.7211 9.37178 14.5706 6.30754 23.065L0.349276 39.2044C-0.501904 41.0448 -0.331667 44.8107 7.15872 45.1505C12.6914 45.4336 23.3312 45.1506 25.4591 44.301C25.5762 44.2543 25.6989 44.1997 25.8249 44.1366C25.7532 44.115 25.6804 44.0936 25.6066 44.072C23.4447 43.438 20.4382 42.5563 21.2017 27.3122V18.8496C20.1252 16.7283 19.0955 15.1503 18.2241 14.5705C16.896 13.687 15.2298 13.7101 14.5493 13.7196C14.4896 13.7204 14.4374 13.7212 14.3937 13.7212Z" fill="#446A37"/>
<path d="M25.6066 44.072C23.4447 43.438 20.4382 42.5563 21.2017 27.3122V18.8496C23.9106 24.1878 26.9155 32.9658 28.4383 37.9302C29.0632 41.6721 27.2308 43.433 25.8249 44.1366C25.7532 44.115 25.6804 44.0936 25.6066 44.072Z" fill="#38582D"/>
<path d="M45.4603 19.5485C46.0322 27.7923 46.0745 37.4961 44.0605 41.5085C40.581 37.2833 38.7358 34.9868 40.3553 27.3122C41.5768 23.6551 42.4088 21.7864 45.4603 19.5485Z" fill="#538435"/>
<path fill-rule="evenodd" clip-rule="evenodd" d="M59.932 41.7528C59.0873 40.4884 58.4941 34.5399 62.81 20.8363C65.5561 23.8319 69.2001 29.6169 68.0187 35.8067C67.6878 37.788 65.9674 41.3097 61.6978 43.5773C60.782 43.0717 60.1472 42.4688 59.932 41.7528Z" fill="#446A37"/>
</svg>
