<svg width="14" height="14" viewBox="0 0 14 14" fill="none" xmlns="http://www.w3.org/2000/svg">
<path d="M2.01259 13.1673C1.67481 13.1673 1.39377 13.0552 1.16947 12.8309C0.94516 12.6066 0.833008 12.3255 0.833008 11.9877V2.01357C0.833008 1.67579 0.94516 1.39475 1.16947 1.17044C1.39377 0.946138 1.67481 0.833984 2.01259 0.833984H6.35863V1.50065H2.01259C1.88426 1.50065 1.76669 1.55405 1.65988 1.66086C1.55308 1.76767 1.49967 1.88523 1.49967 2.01357V11.9877C1.49967 12.1161 1.55308 12.2336 1.65988 12.3404C1.76669 12.4472 1.88426 12.5007 2.01259 12.5007H11.9868C12.1151 12.5007 12.2327 12.4472 12.3395 12.3404C12.4463 12.2336 12.4997 12.1161 12.4997 11.9877V7.64169H13.1663V11.9877C13.1663 12.3255 13.0542 12.6066 12.8299 12.8309C12.6056 13.0552 12.3245 13.1673 11.9868 13.1673H2.01259ZM5.09426 9.39169L4.60863 8.90607L12.014 1.50065H8.99967V0.833984H13.1663V5.00065H12.4997V1.98628L5.09426 9.39169Z" fill="#000F2A"/>
</svg>
