<svg width="142" height="48" viewBox="0 0 142 48" fill="none" xmlns="http://www.w3.org/2000/svg">
<path d="M16.6641 23.1914H3.02344V20.8008H16.6641V23.1914ZM20.1445 30.8555H0.644531V28.4531H20.1445V30.8555ZM17.8359 22.5117C17.8359 23.7461 17.7969 24.8477 17.7188 25.8164C17.6484 26.7852 17.4688 27.8867 17.1797 29.1211L14.1797 29.0391C14.3828 28.2188 14.5312 27.4414 14.625 26.707C14.7266 25.9648 14.7891 25.3086 14.8125 24.7383C14.8359 24.168 14.8516 23.4844 14.8594 22.6875V22.5117V20.8008H17.8359V22.5117ZM17.7656 40.9219H2.92969V33.1289H17.7656V40.9219ZM5.88281 38.5195H14.7891V35.4492H5.88281V38.5195ZM39.9609 24.9141H22.207V22.5234H39.9609V24.9141ZM40.8867 38.9883H21.3867V36.5742H40.8867V38.9883ZM32.5547 37.5117H29.5898V33.7031H32.5547V37.5117ZM31.0781 25.8398C32.5469 25.8398 33.8281 26.0039 34.9219 26.332C36.0234 26.6602 36.8672 27.1406 37.4531 27.7734C38.0469 28.3984 38.3438 29.1367 38.3438 29.9883C38.3438 30.8555 38.0469 31.6055 37.4531 32.2383C36.8672 32.8633 36.0273 33.3477 34.9336 33.6914C33.8398 34.0273 32.5547 34.1992 31.0781 34.207C29.5781 34.1992 28.2812 34.0273 27.1875 33.6914C26.0938 33.3477 25.25 32.8633 24.6562 32.2383C24.0703 31.6055 23.7812 30.8555 23.7891 29.9883C23.7812 29.1289 24.0703 28.3867 24.6562 27.7617C25.25 27.1367 26.0938 26.6602 27.1875 26.332C28.2891 26.0039 29.5859 25.8398 31.0781 25.8398ZM31.0781 28.1719C30.1406 28.1797 29.3594 28.25 28.7344 28.3828C28.1172 28.5078 27.6484 28.707 27.3281 28.9805C27.0078 29.2461 26.8516 29.582 26.8594 29.9883C26.8516 30.3945 27.0078 30.7344 27.3281 31.0078C27.6484 31.2734 28.1172 31.4766 28.7344 31.6172C29.3594 31.75 30.1406 31.8164 31.0781 31.8164C31.9922 31.8164 32.7578 31.75 33.375 31.6172C34 31.4766 34.4727 31.2734 34.793 31.0078C35.1133 30.7344 35.2734 30.3945 35.2734 29.9883C35.2734 29.582 35.1133 29.2461 34.793 28.9805C34.4727 28.707 34 28.5078 33.375 28.3828C32.7578 28.25 31.9922 28.1797 31.0781 28.1719ZM32.5547 24.0117H29.5898V20.0391H32.5547V24.0117ZM61.6055 32.7539H42.1055V30.3633H61.6055V32.7539ZM53.5898 36.4336H50.6367V31.8633H53.5898V36.4336ZM59.1211 28.6172H44.5312V20.7656H59.1211V28.6172ZM47.4609 26.2852H56.1797V23.0742H47.4609V26.2852ZM59.4609 40.793H44.3789V38.3789H59.4609V40.793ZM47.3789 39.1758H44.3789V34.5703H47.3789V39.1758ZM70.875 35.9062H67.8633V32.4258H70.875V35.9062ZM79.9219 41.1562H76.8984V19.8047H79.9219V41.1562ZM82.6992 30.9727H78.8906V28.5117H82.6992V30.9727ZM62.6133 35.1328C65.332 35.1328 67.7383 35.1016 69.832 35.0391C71.9258 34.9688 73.9297 34.7969 75.8438 34.5234L76.043 36.7031C74.6445 36.9688 73.1875 37.1641 71.6719 37.2891C70.1641 37.4141 68.75 37.4961 67.4297 37.5352C66.1172 37.5664 64.6445 37.582 63.0117 37.582L62.6133 35.1328ZM75.668 24.5391H63.0117V22.1953H75.668V24.5391ZM69.3984 25.3945C70.4062 25.3945 71.3047 25.5625 72.0938 25.8984C72.8906 26.2266 73.5117 26.6953 73.957 27.3047C74.4102 27.9141 74.6367 28.6133 74.6367 29.4023C74.6367 30.1836 74.4102 30.8789 73.957 31.4883C73.5117 32.0898 72.8906 32.5586 72.0938 32.8945C71.3047 33.2305 70.4062 33.3984 69.3984 33.3984C68.375 33.3984 67.4648 33.2305 66.668 32.8945C65.8711 32.5586 65.25 32.0898 64.8047 31.4883C64.3594 30.8789 64.1406 30.1836 64.1484 29.4023C64.1406 28.6133 64.3594 27.9141 64.8047 27.3047C65.25 26.6953 65.8711 26.2266 66.668 25.8984C67.4648 25.5625 68.375 25.3945 69.3984 25.3945ZM69.3984 27.6562C68.9062 27.6562 68.4805 27.7266 68.1211 27.8672C67.7617 28 67.4805 28.1992 67.2773 28.4648C67.0742 28.7227 66.9766 29.0352 66.9844 29.4023C66.9766 29.7695 67.0742 30.082 67.2773 30.3398C67.4805 30.5898 67.7617 30.7852 68.1211 30.9258C68.4805 31.0586 68.9062 31.125 69.3984 31.125C69.8672 31.125 70.2812 31.0586 70.6406 30.9258C71 30.7852 71.2773 30.5898 71.4727 30.3398C71.6758 30.082 71.7773 29.7695 71.7773 29.4023C71.7773 29.043 71.6758 28.7305 71.4727 28.4648C71.2773 28.1992 71 28 70.6406 27.8672C70.2812 27.7266 69.8672 27.6562 69.3984 27.6562ZM70.875 23.918H67.8633V19.9336H70.875V23.918ZM102.223 41.1562H99.3516V19.8047H102.223V41.1562ZM100.324 30.4805H96.7266V28.0547H100.324V30.4805ZM97.5352 40.1719H94.7109V20.1328H97.5352V40.1719ZM89.7422 25.0898C89.75 26.9492 89.5977 28.6445 89.2852 30.1758C88.9805 31.707 88.4766 33.0703 87.7734 34.2656C87.0703 35.4609 86.1484 36.3984 85.0078 37.0781L83.168 34.7812C84.1992 34.1875 85.0352 33.4023 85.6758 32.4258C86.3242 31.4414 86.7852 30.3359 87.0586 29.1094C87.3398 27.8828 87.4805 26.543 87.4805 25.0898V23.1094H89.7422V25.0898ZM90.3867 25.0898C90.3945 26.4258 90.5391 27.6602 90.8203 28.793C91.1094 29.9258 91.5742 30.9492 92.2148 31.8633C92.8633 32.7695 93.7031 33.4922 94.7344 34.0312L93.0117 36.3047C91.8398 35.6875 90.8867 34.8203 90.1523 33.7031C89.4258 32.5781 88.9023 31.2969 88.582 29.8594C88.2617 28.4141 88.1016 26.8242 88.1016 25.0898V23.1094H90.3867V25.0898ZM93.6562 24.4219H83.8945V22.0312H93.6562V24.4219ZM121.266 35.2617H118.277V19.8398H121.266V35.2617ZM124.172 28.1133H120.375V25.6523H124.172V28.1133ZM106.957 29.3203C109.379 29.3281 111.262 29.2891 112.605 29.2031C113.957 29.1094 115.262 28.9297 116.52 28.6641L116.848 31.0664C115.543 31.332 114.184 31.5117 112.77 31.6055C111.355 31.6914 109.418 31.7344 106.957 31.7344H105.164V29.3203H106.957ZM114.797 23.9297H108.152V30.6328H105.164V21.5391H114.797V23.9297ZM122.027 40.793H107.426V38.3789H122.027V40.793ZM110.414 39.6094H107.426V33.6094H110.414V39.6094Z" fill="#454B52"/>
<path d="M118 9.5359C118 9.86764 118.048 10.2114 118.181 10.5371C118.766 11.9847 120.256 12.8774 122.151 12.1234C122.603 11.9425 135.134 6.89408 135.134 6.89408C135.134 6.89408 130.199 19.4035 130.012 19.868C129.294 21.6593 130.157 23.2818 131.623 23.8247C131.949 23.9453 132.287 24.0056 132.618 23.9996C133.819 23.9936 134.875 23.2879 135.394 21.8765C135.472 21.6654 141.644 4.72271 141.777 4.3186C141.855 4.07734 142 3.51037 142 3.11832C142 2.27993 141.692 1.4898 141.095 0.892671C140.51 0.301578 139.725 0 138.899 0C138.495 0 138.169 0.0723788 137.674 0.229199C137.379 0.325704 121.469 6.24267 120.112 6.74932C118.754 7.25597 118 8.34165 118.006 9.5359" fill="#ED1C24"/>
</svg>
