<svg width="40" height="40" viewBox="0 0 40 40" fill="none" xmlns="http://www.w3.org/2000/svg">
<g clip-path="url(#clip0_19_8065)">
<path d="M6.66669 33.3334C6.66669 31.5653 7.36907 29.8696 8.61931 28.6194C9.86955 27.3691 11.5652 26.6667 13.3334 26.6667H20V33.3334C20 35.1015 19.2976 36.7972 18.0474 38.0475C16.7972 39.2977 15.1015 40.0001 13.3334 40.0001C11.5652 40.0001 9.86955 39.2977 8.61931 38.0475C7.36907 36.7972 6.66669 35.1015 6.66669 33.3334Z" fill="#24CB71"/>
<path d="M20 0V13.3333H26.6667C28.4348 13.3333 30.1305 12.631 31.3807 11.3807C32.631 10.1305 33.3333 8.43478 33.3333 6.66667C33.3333 4.89856 32.631 3.20286 31.3807 1.95262C30.1305 0.702379 28.4348 0 26.6667 0L20 0Z" fill="#FF7237"/>
<path d="M26.6117 26.6666C28.3798 26.6666 30.0755 25.9642 31.3257 24.714C32.576 23.4637 33.2783 21.768 33.2783 19.9999C33.2783 18.2318 32.576 16.5361 31.3257 15.2859C30.0755 14.0356 28.3798 13.3333 26.6117 13.3333C24.8436 13.3333 23.1479 14.0356 21.8976 15.2859C20.6474 16.5361 19.945 18.2318 19.945 19.9999C19.945 21.768 20.6474 23.4637 21.8976 24.714C23.1479 25.9642 24.8436 26.6666 26.6117 26.6666Z" fill="#00B6FF"/>
<path d="M6.66669 6.66667C6.66669 8.43478 7.36907 10.1305 8.61931 11.3807C9.86955 12.631 11.5652 13.3333 13.3334 13.3333H20V0H13.3334C11.5652 0 9.86955 0.702379 8.61931 1.95262C7.36907 3.20286 6.66669 4.89856 6.66669 6.66667Z" fill="#FF3737"/>
<path d="M6.66669 19.9999C6.66669 21.768 7.36907 23.4637 8.61931 24.714C9.86955 25.9642 11.5652 26.6666 13.3334 26.6666H20V13.3333H13.3334C11.5652 13.3333 9.86955 14.0356 8.61931 15.2859C7.36907 16.5361 6.66669 18.2318 6.66669 19.9999Z" fill="#874FFF"/>
</g>
<defs>
<clipPath id="clip0_19_8065">
<rect width="40" height="40" fill="white"/>
</clipPath>
</defs>
</svg>
