<svg width="40" height="40" viewBox="0 0 40 40" fill="none" xmlns="http://www.w3.org/2000/svg">
<g clip-path="url(#clip0_19_8052)">
<path d="M34.3199 0H5.68011C2.54307 0 0 2.66303 0 5.94803V34.052C0 37.337 2.54307 40 5.68011 40H34.3199C37.4569 40 40 37.337 40 34.052V5.94803C40 2.66303 37.4569 0 34.3199 0Z" fill="#131F35"/>
<path d="M6.35702 10.1798C7.77196 9.95058 9.79257 9.74805 12.8159 9.74805C15.605 9.74805 17.5747 10.3556 18.8573 11.3843C20.1094 12.3543 21.0052 14.0332 21.0052 16.0852C21.0052 17.9719 20.4046 19.6881 19.2238 20.786C17.6562 22.2784 15.3709 22.9712 12.5207 22.9712C11.8437 22.9712 11.2482 22.9179 10.8105 22.838V29.8893H6.35193V10.1798H6.35702ZM10.8156 19.2297C11.2279 19.331 11.7521 19.3736 12.5156 19.3736C14.9434 19.3736 16.5466 18.2224 16.5466 16.1438C16.5466 14.273 15.1724 13.2764 12.8515 13.2764C11.8335 13.2764 11.1566 13.3563 10.8156 13.4256V19.2297Z" fill="#00BEF3"/>
<path d="M23.204 25.8173C24.0692 26.3769 25.927 27.0005 27.2859 27.0005C28.6449 27.0005 29.2556 26.5368 29.2556 25.8333C29.2556 25.0871 28.8077 24.7513 27.0874 24.2503C24.0081 23.3763 22.7459 21.6921 22.7713 19.8639C22.7713 17.1031 25.0973 15.0352 28.7517 15.0352C30.5281 15.0352 32.1313 15.4669 33.0067 15.9359L32.228 19.1284C31.5765 18.7767 30.187 18.233 28.8739 18.233C27.7898 18.233 27.1332 18.6221 27.1332 19.3789C27.1332 20.0931 27.7593 20.4555 29.5865 21.0045C32.4062 21.8466 33.6226 23.227 33.643 25.5028C33.643 28.1198 31.6325 30.2463 27.3063 30.2463C25.2857 30.2463 23.5806 29.7827 22.3845 29.1644L23.204 25.8173Z" fill="#00BEF3"/>
</g>
<defs>
<clipPath id="clip0_19_8052">
<rect width="40" height="40" fill="white"/>
</clipPath>
</defs>
</svg>
