<svg width="30" height="34" viewBox="0 0 30 34" fill="none" xmlns="http://www.w3.org/2000/svg">
<path d="M5.08333 33.6673V18.2227C3.52778 17.8155 2.29167 17.0377 1.375 15.8894C0.458333 14.7413 0 13.4173 0 11.9173V0.333984H2.77792V10.5286H5.08333V0.333984H7.86125V10.5286H10.1946V0.333984H12.9721V11.9173C12.9721 13.4359 12.5138 14.7647 11.5971 15.9036C10.6804 17.0425 9.43514 17.8155 7.86125 18.2227V33.6673H5.08333ZM22.1112 33.6673V17.5702C20.5557 17.0516 19.3149 16.0215 18.3888 14.4798C17.4629 12.9382 17 11.135 17 9.07023C17 6.63496 17.6343 4.5701 18.9029 2.87565C20.1712 1.18121 21.7036 0.333984 23.5 0.333984C25.2964 0.333984 26.8288 1.18357 28.0971 2.88273C29.3657 4.58162 30 6.64871 30 9.08399C30 11.1487 29.5371 12.9497 28.6112 14.4869C27.6851 16.0238 26.4443 17.0608 24.8888 17.5977V33.6673H22.1112Z" fill="white" fill-opacity="0.8"/>
</svg>
