<svg width="22" height="16" viewBox="0 0 22 16" fill="none" xmlns="http://www.w3.org/2000/svg">
<path d="M5.5 15.5C4.118 15.5 2.93917 15.0198 1.9635 14.0595C0.987833 13.0993 0.5 11.9283 0.5 10.5463C0.5 9.32308 0.891667 8.23525 1.675 7.28275C2.45833 6.33008 3.45767 5.76658 4.673 5.59225C4.9935 4.09742 5.74517 2.875 6.928 1.925C8.11067 0.975 9.468 0.5 11 0.5C12.809 0.5 14.3446 1.13108 15.6068 2.39325C16.8689 3.65542 17.5 5.191 17.5 7V7.5H17.8078C18.8616 7.582 19.7404 8.00575 20.4443 8.77125C21.1481 9.53658 21.5 10.4462 21.5 11.5C21.5 12.6153 21.1122 13.5608 20.3365 14.3365C19.5608 15.1122 18.6153 15.5 17.5 15.5H5.5ZM5.5 14H17.5C18.2 14 18.7917 13.7583 19.275 13.275C19.7583 12.7917 20 12.2 20 11.5C20 10.8 19.7583 10.2083 19.275 9.725C18.7917 9.24167 18.2 9 17.5 9H16V7C16 5.61667 15.5125 4.4375 14.5375 3.4625C13.5625 2.4875 12.3833 2 11 2C9.61667 2 8.4375 2.4875 7.4625 3.4625C6.4875 4.4375 6 5.61667 6 7H5.5C4.53333 7 3.70833 7.34167 3.025 8.025C2.34167 8.70833 2 9.53333 2 10.5C2 11.4667 2.34167 12.2917 3.025 12.975C3.70833 13.6583 4.53333 14 5.5 14Z" fill="white"/>
</svg>
