<svg width="169" height="60" viewBox="0 0 169 60" fill="none" xmlns="http://www.w3.org/2000/svg">
<path d="M27.8494 38.5375C28.144 38.635 28.4475 38.7183 28.7563 38.7909C28.8716 38.8175 29.0136 38.8388 29.1591 38.8583C29.8406 38.9487 30.8327 38.9629 31.9579 38.8636C33.5658 38.7254 35.4258 38.3584 36.9645 37.6742C37.7028 37.4101 39.0729 36.8181 39.7757 36.0328C39.8201 35.5259 39.7349 34.9959 39.6018 34.5031C39.3977 33.7568 39.0782 33.1063 38.9061 32.7926C38.4251 33.3828 37.3567 34.2656 36.3291 34.7938C34.7886 35.673 33.4771 35.9282 31.9579 36.164C30.7706 36.3466 29.6365 36.3164 28.6107 36.0647C28.5291 36.0452 28.4421 36.0328 28.3605 36.008C26.7952 35.4691 25.1393 34.0139 24.4152 32.6383C24.2395 32.2395 24.1064 31.8212 24.0177 31.3851C24.2413 33.5494 25.1038 36.46 27.8494 38.5357V38.5375Z" fill="#FCB131"/>
<path d="M37.63 57.2363C37.63 56.7453 34.8525 56.35 31.4255 56.35C27.9985 56.35 25.2227 56.7453 25.2227 57.2363C25.2227 57.7273 28.0002 58.1191 31.4255 58.1191C34.8508 58.1191 37.63 57.7238 37.63 57.2363Z" fill="#C2CADB"/>
<path d="M45.9447 56.6886C45.9447 56.1994 43.169 55.8041 39.742 55.8041C36.3149 55.8041 33.5392 56.1994 33.5392 56.6886C33.5392 57.1778 36.3149 57.5731 39.742 57.5731C43.169 57.5731 45.9447 57.1814 45.9447 56.6886Z" fill="#C2CADB"/>
<path d="M38.3577 47.9144C36.1712 47.4287 33.6244 49.125 32.714 51.7325C31.6828 54.3399 32.6518 56.8818 34.8366 57.3675C36.9592 57.9134 39.5095 56.2171 40.4767 53.6699C41.4493 51.0075 40.4767 48.4603 38.3559 47.9161L38.3577 47.9144ZM38.7801 53.9127C37.6265 55.6711 35.6884 56.5184 34.471 55.7899C33.257 55.0649 33.257 53.1275 34.4106 51.3673C35.6228 49.671 37.5058 48.884 38.6576 49.5504C39.8715 50.2772 39.9301 52.2749 38.7783 53.9127H38.7801Z" fill="#0070AF"/>
<path fill-rule="evenodd" clip-rule="evenodd" d="M21.6945 14.4606C21.8081 14.3277 21.9288 14.2284 21.9927 14.0388C22.0566 13.8473 21.943 13.7179 21.762 13.7002C21.4443 13.6523 21.116 13.7835 20.4309 14.1061C19.9198 14.3436 16.8122 15.6837 15.7456 16.5718C15.6178 16.6799 15.3498 16.6958 15.2912 16.5629C15.0108 16.0932 15.3995 14.4394 15.4261 13.9838C15.435 13.8473 15.3037 13.7569 15.1777 13.92C14.7162 14.4323 12.7179 17.8072 12.1073 19.6596C11.7258 19.9698 11.0354 20.8791 10.9289 21.0298C10.8242 21.1804 10.7337 21.324 10.6361 21.4711C10.5438 21.6165 10.4462 21.8363 10.7887 22.0667C10.8934 22.1359 11.3548 22.4638 11.3655 22.5737C11.3779 22.7279 11.291 23.0948 11.2626 23.3643C11.1898 23.9474 10.968 26.7995 11.1188 27.8666C11.1401 28.0084 11.1241 28.1413 11.2324 28.1413C11.3406 28.1413 11.4667 27.7266 11.5944 27.4323C12.0807 26.367 12.6753 24.7114 13.1456 24.029C13.229 23.9191 13.3124 23.912 13.3727 23.9722C14.0649 24.6529 15.254 25.782 16.0686 26.4999C16.8246 27.1664 17.4547 27.7407 17.9161 28.1041C18.3775 28.4675 19.107 29.0081 19.5311 29.1588C19.9553 29.3059 20.1612 28.5951 19.8399 28.1573C19.5169 27.7195 18.2178 25.9061 17.5718 24.8479C16.8779 23.7046 16.1467 21.9994 15.7456 20.9482C15.6941 20.8047 15.6764 20.6682 15.671 20.5228C15.8041 19.4717 19.2986 16.0861 21.6928 14.4624L21.6945 14.4606Z" fill="#B7BE1C"/>
<path d="M46.1985 19.9042C46.0068 19.4309 45.7868 18.9718 45.517 18.5393C44.2072 16.4016 42.1219 14.9729 39.4829 14.4128C36.3717 13.7729 32.9784 14.4677 29.972 16.1144C27.2903 17.7239 24.9139 19.9946 23.2173 22.7155C22.944 23.1959 22.6937 23.6851 22.4772 24.1885C21.7336 25.9433 21.3662 27.7266 21.3662 29.4264C21.3662 31.5925 22.2092 34.0582 23.1463 35.26C24.2413 36.6674 25.8758 37.8852 27.8529 38.5357C25.1074 36.46 24.2466 33.5494 24.0212 31.3851C23.9325 30.942 23.8846 30.4829 23.8846 30.0061C23.8846 29.7881 23.9041 29.5647 23.9218 29.3414C24.0975 27.2533 25.0666 24.9578 26.765 22.8325C29.491 19.3618 33.4736 17.1993 36.9964 16.9405C37.1295 16.9316 37.2591 16.9316 37.3886 16.9281C39.0977 16.7862 43.7902 16.7632 46.218 19.9627C46.2109 19.945 46.2038 19.9237 46.1967 19.9042H46.1985Z" fill="#F5822B"/>
<path d="M46.8445 22.4833C46.7434 21.6059 46.5339 20.7604 46.2198 19.9645C43.7902 16.7667 39.0995 16.788 37.3904 16.9298C38.2317 16.9032 39.048 16.9795 39.8023 17.1851C40.2566 17.3074 40.6932 17.4722 41.1014 17.6849C42.6313 18.4418 43.6784 19.7145 44.1185 21.3559C44.2711 21.9249 44.3457 22.5311 44.3457 23.1533C44.3457 23.4263 44.3315 23.7064 44.3013 23.9847C44.3013 24.0042 44.2977 24.0183 44.296 24.0361C44.0741 26.0727 43.1246 28.2743 41.5362 30.2986C41.3428 30.552 39.9691 32.1668 39.1315 32.6862C39.5361 33.1223 39.8272 33.6788 40.0685 34.2638C40.2531 34.7105 40.4128 35.1714 40.5601 35.6163C42.2408 34.2886 44.784 31.511 45.7513 29.0099C46.415 27.287 46.8729 25.6136 46.9155 23.9829C46.9155 23.8925 46.9191 23.7985 46.9191 23.7046C46.9191 23.2916 46.8907 22.8821 46.8481 22.4815L46.8445 22.4833Z" fill="#FCB131"/>
<path d="M24.165 40.5883V40.6043C24.165 40.6043 24.165 40.5919 24.1668 40.5883C24.1827 40.3171 24.2129 40.014 24.2591 39.6914C24.3833 38.8867 24.6264 37.9667 25.0648 37.1708C25.0737 37.1584 25.0808 37.1425 25.0914 37.13C24.5341 36.7259 24.0337 36.2792 23.5988 35.7971C23.5332 35.9229 23.4675 36.0523 23.4125 36.1782C23.3255 36.3678 23.2403 36.5876 23.1587 36.8234C22.8464 37.7114 22.5801 38.876 22.5269 40.1399C22.5216 40.2622 22.5162 40.3827 22.5145 40.5086C22.5145 40.5866 22.5162 40.6628 22.5216 40.739C22.5446 42.0223 23.0309 43.233 23.6752 44.254C24.0195 44.8017 24.4419 45.2661 24.921 45.6667C24.7791 45.3672 24.6584 45.057 24.5554 44.7397C24.5412 44.7131 24.5341 44.6865 24.5199 44.6635C24.5324 44.6847 24.5412 44.7078 24.5501 44.7308C24.133 43.389 24.0798 41.9355 24.1561 40.7656V40.7408C24.1597 40.6965 24.1632 40.6468 24.1668 40.6043L24.1668 40.5883H24.165Z" fill="#0070AF"/>
<path d="M40.6382 33.6044C39.5964 30.9225 36.7817 29.9121 35.5926 29.6675C34.5774 29.4513 33.6155 29.4105 32.7246 29.4903C32.1514 29.5399 31.6083 29.6409 31.0901 29.7792H31.0883C28.3445 30.5166 26.3142 32.2041 25.4801 33.1666C25.3896 33.2641 25.2494 33.4183 25.0808 33.6186C25.5014 34.1362 26.0214 34.6325 26.5822 35.0508C26.7597 34.8417 26.9088 34.6733 27.0099 34.5598C28.4439 33.0779 29.8797 32.1739 31.0918 31.628C32.2099 31.1263 33.2215 30.9544 34.1107 30.9633C34.1763 30.9633 34.242 30.9704 34.3112 30.9721C35.3282 30.9367 38.4624 31.082 40.6719 33.6966C40.6577 33.6664 40.6506 33.6345 40.6382 33.6062V33.6044Z" fill="#0070AF"/>
<path d="M40.6719 33.6966C38.4606 31.082 35.3282 30.9367 34.3112 30.9721C36.3806 31.0679 37.7258 32.1722 38.0311 32.4646C38.9327 33.3456 39.3817 34.5527 39.3977 35.907C39.4101 36.889 38.9043 38.9274 37.2981 41.2247C35.0495 44.1211 31.5391 45.7979 28.6427 45.5852C28.7279 43.4244 28.9355 42.0046 28.9444 41.9727C29.058 41.2016 28.5291 40.4784 27.7571 40.3632C26.9851 40.2444 26.3905 40.7922 26.1438 41.5455C26.1083 41.6519 25.7374 42.6126 25.3363 44.1228C24.5572 43.295 24.1384 42.1765 24.149 40.9216C24.1526 40.8755 24.1543 40.8205 24.1561 40.7674C24.0798 41.9373 24.133 43.389 24.5501 44.7326C24.5572 44.745 24.5679 44.761 24.5732 44.7734C24.5679 44.761 24.5572 44.7486 24.5537 44.7415C24.6566 45.0588 24.7773 45.369 24.9193 45.6685C24.9317 45.6792 24.9459 45.6916 24.9583 45.7004C24.3176 48.7386 23.8615 53.046 25.0098 57.254C25.2174 58.0056 27.2655 58.1208 28.018 57.9188C28.7705 57.7096 29.9241 57.2647 29.7182 56.5096C28.8273 53.2463 28.6001 49.8589 28.6107 47.1699C33.0565 47.7141 38.2689 44.7007 40.1466 40.193C40.7571 38.8459 40.9115 38.1457 41.0216 36.2633C41.0801 35.2759 40.9399 34.4251 40.6719 33.6966Z" fill="#009DDD"/>
<path d="M10.6112 53.9571L10.2545 53.6309L11.33 52.4575L11.3229 52.4504L9.68303 53.108L9.32631 52.7818L11.0336 52.1207L11.6424 50.1673L12.0417 50.5325L11.4258 52.3352L11.4329 52.3423L12.6131 51.0554L12.9699 51.3815L10.6112 53.9571Z" fill="#0068A9"/>
<path d="M5.45381 46.5938C5.03319 46.842 4.58063 46.9235 4.2452 46.358C3.92752 45.821 4.10677 45.4859 4.57353 45.2094L6.09449 44.3125C6.51511 44.0643 6.96767 43.9828 7.30487 44.5536C7.619 45.0871 7.44153 45.4221 6.97477 45.6969L5.45381 46.5938ZM6.75292 45.2661C7.01204 45.1137 7.07948 44.9169 6.97832 44.745C6.87538 44.5695 6.66773 44.5341 6.4104 44.6865L4.83087 45.6189C4.53449 45.7926 4.4564 45.9752 4.56998 46.1666C4.68001 46.3545 4.87701 46.3722 5.17339 46.1985L6.75292 45.2661Z" fill="#0068A9"/>
<path d="M1.02758 38.6314L0.85188 37.9029C0.686828 37.2169 0.853655 37.1017 1.59727 36.9244C2.05339 36.8145 2.26636 36.8287 2.47578 37.1868H2.48465C2.44028 36.8571 2.58049 36.7099 2.89994 36.632L3.63824 36.4547C3.76069 36.4246 3.9293 36.3856 4.06418 36.3218L4.17066 36.7631C4.0979 36.8305 4.01448 36.8606 3.87783 36.8925L3.11114 37.0769C2.79168 37.1531 2.72069 37.2311 2.79523 37.5413L2.83428 37.7008L4.31264 37.3463L4.42623 37.816L1.02758 38.6296V38.6314ZM2.43851 37.7965L2.41011 37.6742C2.32137 37.302 2.23796 37.2683 1.72861 37.3906C1.22458 37.5112 1.18553 37.5501 1.25475 37.8426L1.30977 38.0677L2.43851 37.7965Z" fill="#0068A9"/>
<path d="M0 29.6002L0.0692152 28.2867L0.475633 28.308L0.431264 29.1393L1.52451 29.196L1.56533 28.4143L1.97175 28.4356L1.93093 29.2173L3.10936 29.2793L3.15373 28.4498L3.56015 28.471L3.49093 29.7845L0 29.6019V29.6002Z" fill="#0068A9"/>
<path d="M1.74813 20.381L1.9398 19.8546L5.468 20.3775L5.30295 20.8313L4.41203 20.677L4.15469 21.3861L4.93735 21.8398L4.7723 22.2936L1.7499 20.381H1.74813ZM3.79441 21.1804L4.00383 20.6026L2.31782 20.3101L2.31427 20.319L3.79441 21.1787V21.1804Z" fill="#0068A9"/>
<path d="M10.5615 7.39871L11.1756 6.88821C11.6814 6.46811 11.8926 6.52483 12.409 7.14523C12.9255 7.76563 12.9432 7.98366 12.4374 8.40376L12.1961 8.60406L13.1686 9.77041L12.7959 10.0788L10.5615 7.39517V7.39871ZM11.937 8.29386L12.1304 8.13256C12.3842 7.92162 12.3753 7.85958 12.0381 7.45366C11.7009 7.04951 11.6406 7.03002 11.3868 7.23918L11.1933 7.40048L11.937 8.29209V8.29386Z" fill="#0068A9"/>
<path d="M18.4361 3.36788C18.2462 2.91765 18.2249 2.46033 18.8319 2.20331C19.4069 1.96046 19.7157 2.18203 19.9269 2.68013L20.6137 4.30557C20.8036 4.75581 20.8249 5.21313 20.2144 5.47193C19.6429 5.713 19.3341 5.49142 19.1229 4.99333L18.4343 3.36788H18.4361ZM19.5808 4.83203C19.6979 5.10855 19.8843 5.2025 20.0671 5.1245C20.2552 5.04474 20.3173 4.84621 20.2002 4.56969L19.4867 2.8822C19.3536 2.56668 19.1833 2.46387 18.9792 2.55073C18.7786 2.63581 18.7343 2.82725 18.8674 3.14454L19.5808 4.83203Z" fill="#0068A9"/>
<path d="M26.8591 0.0549497L27.34 0L27.6879 3.06478L28.4954 2.9726L28.5415 3.37675L27.2531 3.5221L26.8591 0.0531771V0.0549497Z" fill="#0068A9"/>
<path d="M34.8508 0.0265886L35.3282 0.102809L35.5145 1.62013H35.5234L36.2315 0.246387L36.6521 0.313745L35.6654 2.2423L35.4417 3.65504L34.9643 3.57882L35.188 2.16608L34.8508 0.0283611V0.0265886Z" fill="#0068A9"/>
<path d="M43.5346 2.47628L45.0183 3.18885L44.8426 3.554L44.319 3.3023L42.9791 6.08169L42.5425 5.87253L43.8825 3.09314L43.3589 2.84143L43.5346 2.47451V2.47628Z" fill="#0068A9"/>
<path d="M51.0702 7.27286L52.0516 8.15028L51.7801 8.45339L51.1589 7.89858L50.4295 8.71219L51.0134 9.23509L50.7419 9.5382L50.158 9.0153L49.37 9.89449L49.9911 10.4493L49.7196 10.7524L48.7382 9.87499L51.0684 7.27286H51.0702Z" fill="#0068A9"/>
<path d="M55.9685 14.1611C56.382 13.9023 56.8328 13.8101 57.1824 14.3667C57.4362 14.7726 57.3493 15.0899 57.0174 15.2973L56.7228 15.4816L56.4814 15.097L56.6873 14.9694C56.8754 14.8506 56.9553 14.7123 56.847 14.5404C56.7139 14.3277 56.5364 14.3809 56.1797 14.6042L54.7262 15.5118C54.3766 15.7298 54.3854 15.8787 54.4671 16.0099C54.5629 16.1623 54.7297 16.1942 54.9764 16.04L55.1823 15.9124L55.4237 16.297L55.0953 16.5026C54.783 16.6976 54.4653 16.7189 54.1689 16.2438C53.8459 15.728 54.0145 15.3877 54.4759 15.1005L55.9738 14.1646L55.9685 14.1611Z" fill="#0068A9"/>
<path d="M60.4781 21.6892L60.6059 22.1554L59.1595 22.5506L59.3299 23.171L60.7763 22.7758L60.9041 23.2419L57.5338 24.1637L57.406 23.6975L58.9377 23.2792L58.7673 22.6588L57.2357 23.0771L57.1079 22.6109L60.4781 21.6892Z" fill="#0068A9"/>
<path d="M70.6401 31.1011V32.4875H61.6299V31.1011H65.2644V29.3596H67.0056V31.1011H70.6401ZM64.098 36.0888C64.098 37.0525 64.9263 37.6273 66.1266 37.6273C67.3437 37.6273 68.172 37.0525 68.172 36.0888C68.172 35.125 67.3437 34.5502 66.1266 34.5502C64.9263 34.5502 64.098 35.125 64.098 36.0888ZM69.8287 36.0888C69.8287 37.8302 68.3242 38.9799 66.1266 38.9799C63.9459 38.9799 62.4244 37.8302 62.4244 36.0888C62.4244 34.3642 63.9459 33.1976 66.1266 33.1976C68.3242 33.1976 69.8287 34.3642 69.8287 36.0888ZM65.6194 39.9267V42.9193H74.1393V44.3396H63.8613V39.9267H65.6194ZM73.5308 34.229H75.6945V35.6661H73.5308V40.8059H71.7896V29.3596H73.5308V34.229Z" fill="#006CB2"/>
<path d="M90.9919 36.8327H84.9401V39.335H89.3352V44.627H87.5941V40.7383H78.567V39.335H83.182V36.8327H77.1639V35.4294H87.1884C87.5265 33.7894 87.5603 32.5551 87.5603 31.4561H78.8882V30.0528H89.2676V31.2194C89.2676 32.3691 89.2676 33.6879 88.9295 35.4294H90.9919V36.8327Z" fill="#006CB2"/>
<path d="M96.0958 42.0063V43.1899H105.224V44.4917H94.3715V40.8059H103.077V39.7577H94.3377V38.4727H104.785V42.0063H96.0958ZM97.8369 31.0673V33.5358H101.353V31.0673H97.8369ZM100.474 36.0888H106.526V37.4752H92.681V36.0888H98.716V34.8545H94.0165V33.5358H96.0958V31.0673H93.932V29.7316H105.241V31.0673H103.094V33.5358H105.157V34.8545H100.474V36.0888Z" fill="#006CB2"/>
<path d="M110.886 36.3762V39.5886C113.303 39.5717 115.416 39.4533 117.834 39.0645L118.02 40.4847C115.399 40.9412 113.117 41.0257 110.43 41.0257H109.128V34.9729H114.453V32.1324H109.094V30.7122H116.211V36.3762H110.886ZM119.102 29.3258H120.86V44.6608H119.102V29.3258Z" fill="#006CB2"/>
<path d="M132.134 38.7432V34.7193H130.325V33.316H132.134V29.6809H133.757V38.7432H132.134ZM130.849 36.2917L131.018 37.6781C129.277 37.9993 127.823 38.05 125.456 38.05H124.459V30.4079H130.207V31.8112H126.133V33.5019H129.649V34.8545H126.133V36.6636C128.06 36.6467 129.344 36.5622 130.849 36.2917ZM126.352 40.9243V39.521H136.732V44.6439H134.991V40.9243H126.352ZM135.075 29.3596H136.732V38.8616H135.075V29.3596Z" fill="#006CB2"/>
<path d="M141.582 32.5889V39.5548C143.34 39.5379 144.726 39.4533 146.298 39.1321L146.451 40.5692C144.608 40.9243 143.036 40.9919 140.889 40.9919H139.875V31.1687H145.521V32.5889H141.582ZM150.727 29.3427H152.384V44.6101H150.727V36.7989H148.919V43.8661H147.279V29.664H148.919V35.3787H150.727V29.3427Z" fill="#006CB2"/>
<path d="M163.946 30.8475V32.2339H154.935V30.8475H158.57V29.2751H160.311V30.8475H163.946ZM157.403 35.683C157.403 36.5791 158.215 37.1201 159.432 37.1201C160.649 37.1201 161.477 36.5791 161.477 35.683C161.477 34.77 160.649 34.229 159.432 34.229C158.215 34.229 157.403 34.77 157.403 35.683ZM163.134 35.683C163.134 37.3399 161.63 38.4558 159.432 38.4558C157.234 38.4558 155.73 37.3399 155.73 35.683C155.73 34.0092 157.234 32.8933 159.432 32.8933C161.63 32.8933 163.134 34.0092 163.134 35.683ZM156.795 41.0595V39.6562H166.836V44.627H165.095V41.0595H156.795ZM169 33.4512V34.8883H166.836V38.9123H165.095V29.3596H166.836V33.4512H169Z" fill="#006CB2"/>
<path d="M66.3822 53.0785H68.1044V50.4368H69.1926V56.217H68.1044V53.9767H66.3822V53.0785ZM66.9739 55.0123L66.4668 55.8577C65.3785 55.5513 64.5756 54.8855 64.1424 54.0507C63.7198 55.0018 62.9168 55.752 61.7969 56.1007L61.2686 55.2554C62.7372 54.801 63.5613 53.6703 63.5613 52.4762V52.3917H61.5539V51.5252H63.5613V50.4051H64.6601V51.5252H66.6569V52.3917H64.6495V52.4762C64.6495 53.5646 65.5159 54.6002 66.9739 55.0123ZM66.0125 59.1441C67.3754 59.1441 68.1467 58.8059 68.1467 58.2036C68.1467 57.6013 67.3754 57.2737 66.0125 57.2737C64.6601 57.2737 63.8888 57.6013 63.8888 58.2036C63.8888 58.8059 64.6601 59.1441 66.0125 59.1441ZM66.0125 56.4283C68.0093 56.4283 69.2349 57.0835 69.2349 58.2036C69.2349 59.3237 68.0093 59.9894 66.0125 59.9894C64.0156 59.9894 62.8006 59.3237 62.8006 58.2036C62.8006 57.0835 64.0156 56.4283 66.0125 56.4283Z" fill="#006CB2"/>
<path d="M71.8754 55.118L71.4845 54.2621C73.3017 54.019 74.6435 52.9729 74.7069 51.8633H71.8015V50.9863H78.8274V51.8633H75.9431C76.0065 52.9729 77.3483 54.019 79.1655 54.2621L78.7746 55.118C77.2004 54.8855 75.9008 54.1036 75.3197 53.0468C74.7386 54.1036 73.4496 54.8855 71.8754 55.118ZM79.641 55.8154L79.6304 56.6925H75.8374V60H74.7492V56.6925H71.009V55.8154H79.641Z" fill="#006CB2"/>
<path d="M81.2144 51.0708H84.9545C84.9545 53.4484 83.898 55.2131 81.2778 56.2909L80.7601 55.4984C81.9856 55.0123 82.8097 54.3783 83.2958 53.6069L80.9397 53.8605L80.7812 52.9729L83.6761 52.8038C83.7606 52.5291 83.824 52.2543 83.8557 51.9479H81.2144V51.0708ZM83.5282 57.3371V59.0067H87.7332V57.3371H83.5282ZM82.4505 59.8732V56.4706H88.8003V59.8732H82.4505ZM87.7649 50.4368H88.8003V56.0479H87.7649V53.6597H86.7084V55.9845H85.6835V50.627H86.7084V52.7721H87.7649V50.4368Z" fill="#006CB2"/>
<path d="M92.603 52.2543V56.8087C93.0151 56.7982 93.4588 56.7876 93.8814 56.7559V52.2543H92.603ZM94.938 52.2543V56.6925C95.3606 56.6608 95.7938 56.6185 96.1952 56.5657L96.2692 57.3688C94.3357 57.6858 92.1487 57.7281 90.4899 57.7281L90.3843 56.8299C90.7435 56.8299 91.145 56.8299 91.5465 56.8193V52.2543H90.6484V51.3772H95.9205V52.2543H94.938ZM97.2729 50.4473H98.3717V60H97.2729V54.875H95.6247V53.9873H97.2729V50.4473Z" fill="#006CB2"/>
<path d="M108.44 55.1074L107.964 56.0056C106.411 55.6886 105.069 54.6953 104.446 53.385C103.823 54.6953 102.481 55.6886 100.928 56.0056L100.463 55.1074C102.343 54.7587 103.875 53.2899 103.875 51.7788V51.0602H105.027V51.7788C105.027 53.3005 106.559 54.7693 108.44 55.1074ZM100.167 57.8654H108.809V58.7636H100.167V57.8654Z" fill="#006CB2"/>
</svg>
