<svg width="237" height="46" viewBox="0 0 237 46" fill="none" xmlns="http://www.w3.org/2000/svg">
<path d="M210.506 20.8505L184.683 9.8795L213.423 18.5599L210.506 20.8505Z" fill="#69C6DD"/>
<path d="M169.397 15.8912L159.717 4.02095L185.069 9.92773L169.397 15.8912Z" fill="#A19C98"/>
<path d="M227.502 7.44661L227.502 0L184.683 9.8795L227.502 7.44661Z" fill="#FEB115"/>
<path d="M220.504 20.354L184.683 9.8795L220.504 17.8718V20.354Z" fill="black"/>
<path d="M227.002 19.8575L184.683 9.8795L237 6.45376L227.002 19.8575Z" fill="#FC0807"/>
<path d="M10.8138 32.0086C10.7546 31.4204 10.543 30.912 10.1792 30.4834C9.8238 30.0548 9.34573 29.7313 8.74496 29.5128C8.15266 29.2944 7.48843 29.1851 6.75228 29.1851C5.9569 29.1851 5.25459 29.3112 4.64536 29.5633C4.03614 29.8154 3.56229 30.1725 3.22383 30.6347C2.88537 31.0884 2.71614 31.6052 2.71614 32.1851C2.7246 33.0338 3.07576 33.685 3.7696 34.1388C4.46344 34.5842 5.2969 34.9245 6.26997 35.1598L8.09766 35.664C9.51919 36.0253 10.7419 36.58 11.7657 37.3279C12.7896 38.0757 13.3015 39.2018 13.3015 40.706C13.3015 41.7059 13.0392 42.6093 12.5146 43.416C11.9899 44.2143 11.2242 44.8446 10.2173 45.3067C9.21034 45.7689 8.01304 46 6.62535 46C5.32228 46 4.18844 45.7857 3.22383 45.3572C2.25922 44.9286 1.49769 44.3362 0.939227 43.5799C0.389229 42.8236 0.0761535 41.9412 0 40.9328H2.33537C2.3946 41.5883 2.62307 42.1429 3.02076 42.5967C3.42691 43.0505 3.94306 43.3908 4.56921 43.6177C5.19536 43.8362 5.88074 43.9412 6.62535 43.9328C7.4715 43.9328 8.23304 43.7983 8.90996 43.5294C9.58688 43.2605 10.1157 42.8782 10.4965 42.3824C10.8773 41.8782 11.0676 41.3026 11.0676 40.6555C11.0676 40.0925 10.9111 39.6219 10.598 39.2438C10.285 38.8572 9.86611 38.5505 9.3415 38.3236C8.82534 38.0883 8.19073 37.8657 7.43766 37.6556L5.17844 37.0505C3.67229 36.6136 2.51307 36.0085 1.70076 35.2354C0.896919 34.4623 0.499229 33.4792 0.50769 32.2859C0.50769 31.2775 0.782689 30.3826 1.33269 29.6011C1.88268 28.8196 2.63999 28.2187 3.6046 27.7986C4.56921 27.3784 5.64382 27.1683 6.82843 27.1683C7.99612 27.1683 9.04957 27.3784 9.9888 27.7986C10.928 28.2187 11.6642 28.7986 12.1973 29.538C12.7388 30.2691 13.0222 31.0926 13.0476 32.0086H10.8138Z" fill="white"/>
<path d="M14.4966 27.4204H25.6404V29.4372H16.7812V35.538H25.0565V37.5295H16.7812V43.6555H25.7673V45.6723H14.4966V27.4204Z" fill="white"/>
<path d="M27.1655 27.4204H29.4501V35.538H39.1723V27.4204H41.4823V45.6723H39.1723V37.5295H29.4501V45.6723H27.1655V27.4204Z" fill="white"/>
<path d="M41.8144 27.4204H44.1244L47.9574 42.1933H48.1351L52.0189 27.4204H54.5828L58.492 42.1933H58.6443L62.4773 27.4204H64.7873L59.7612 45.6723H57.4004L53.3897 31.2271H53.2374L49.2013 45.6723H46.8405L41.8144 27.4204Z" fill="white"/>
<path d="M62.0986 45.6723L68.8255 27.4204H71.237L77.9639 45.6723H75.5524L70.0947 30.37H69.9424L64.4848 45.6723H62.0986ZM74.7401 38.5379V40.5295H65.3224V38.5379H74.7401Z" fill="white"/>
<path d="M81.1136 27.4204L87.3074 42.4454H87.5359L93.7297 27.4204H96.4713V45.6723H94.3136V31.8826H94.1359L88.4244 45.6723H86.3936L80.6821 31.8826H80.5298V45.6723H78.3721V27.4204H81.1136Z" fill="white"/>
<path d="M112.77 27.4204V39.4959C112.77 40.7396 112.474 41.853 111.882 42.8362C111.289 43.8194 110.452 44.5925 109.369 45.1555C108.286 45.7185 107.033 46 105.612 46C104.19 46 102.938 45.7185 101.855 45.1555C100.772 44.5925 99.934 43.8194 99.3417 42.8362C98.7494 41.853 98.4533 40.7396 98.4533 39.4959V27.4204H100.738V39.3194C100.738 40.2018 100.933 40.9875 101.322 41.6765C101.711 42.3572 102.274 42.895 103.01 43.29C103.754 43.6849 104.622 43.8824 105.612 43.8824C106.602 43.8824 107.465 43.6849 108.201 43.29C108.946 42.895 109.508 42.3572 109.889 41.6765C110.278 40.9875 110.477 40.2018 110.486 39.3194V27.4204H112.77Z" fill="white"/>
<path d="M124.779 32.0086C124.72 31.4204 124.508 30.912 124.144 30.4834C123.789 30.0548 123.311 29.7313 122.71 29.5128C122.118 29.2944 121.454 29.1851 120.718 29.1851C119.922 29.1851 119.22 29.3112 118.611 29.5633C118.001 29.8154 117.528 30.1725 117.189 30.6347C116.851 31.0884 116.681 31.6052 116.681 32.1851C116.69 33.0338 117.041 33.685 117.735 34.1388C118.429 34.5842 119.262 34.9245 120.235 35.1598L122.063 35.664C123.484 36.0253 124.707 36.58 125.731 37.3279C126.755 38.0757 127.267 39.2018 127.267 40.706C127.267 41.7059 127.004 42.6093 126.48 43.416C125.955 44.2143 125.189 44.8446 124.183 45.3067C123.176 45.7689 121.978 46 120.591 46C119.288 46 118.154 45.7857 117.189 45.3572C116.224 44.9286 115.463 44.3362 114.904 43.5799C114.354 42.8236 114.041 41.9412 113.965 40.9328H116.301C116.36 41.5883 116.588 42.1429 116.986 42.5967C117.392 43.0505 117.908 43.3908 118.534 43.6177C119.161 43.8362 119.846 43.9412 120.591 43.9328C121.437 43.9328 122.198 43.7983 122.875 43.5294C123.552 43.2605 124.081 42.8782 124.462 42.3824C124.842 41.8782 125.033 41.3026 125.033 40.6555C125.033 40.0925 124.876 39.6219 124.563 39.2438C124.25 38.8572 123.831 38.5505 123.307 38.3236C122.791 38.0883 122.156 37.8657 121.403 37.6556L119.144 37.0505C117.638 36.6136 116.478 36.0085 115.666 35.2354C114.862 34.4623 114.464 33.4792 114.473 32.2859C114.473 31.2775 114.748 30.3826 115.298 29.6011C115.848 28.8196 116.605 28.2187 117.57 27.7986C118.534 27.3784 119.609 27.1683 120.794 27.1683C121.961 27.1683 123.015 27.3784 123.954 27.7986C124.893 28.2187 125.629 28.7986 126.162 29.538C126.704 30.2691 126.987 31.0926 127.013 32.0086H124.779Z" fill="white"/>
<path d="M128.462 27.4204H139.606V29.4372H130.746V35.538H139.022V37.5295H130.746V43.6555H139.733V45.6723H128.462V27.4204Z" fill="white"/>
<path d="M155.448 27.4204V39.4959C155.448 40.7396 155.151 41.853 154.559 42.8362C153.967 43.8194 153.129 44.5925 152.046 45.1555C150.963 45.7185 149.711 46 148.289 46C146.868 46 145.615 45.7185 144.532 45.1555C143.449 44.5925 142.611 43.8194 142.019 42.8362C141.427 41.853 141.131 40.7396 141.131 39.4959V27.4204H143.415V39.3194C143.415 40.2018 143.61 40.9875 143.999 41.6765C144.388 42.3572 144.951 42.895 145.687 43.29C146.432 43.6849 147.299 43.8824 148.289 43.8824C149.279 43.8824 150.142 43.6849 150.878 43.29C151.623 42.895 152.186 42.3572 152.566 41.6765C152.956 40.9875 153.155 40.2018 153.163 39.3194V27.4204H155.448Z" fill="white"/>
<path d="M160.171 27.4204L166.365 42.4454H166.593L172.787 27.4204H175.529V45.6723H173.371V31.8826H173.193L167.482 45.6723H165.451L159.74 31.8826H159.587V45.6723H157.43V27.4204H160.171Z" fill="white"/>
<path d="M187.82 41.4603C187.82 42.333 187.66 43.097 187.34 43.7525C187.019 44.404 186.574 44.9063 186.004 45.2592C185.438 45.6122 184.793 45.7886 184.071 45.7886C183.344 45.7886 182.698 45.6122 182.132 45.2592C181.566 44.9063 181.122 44.404 180.802 43.7525C180.482 43.097 180.322 42.333 180.322 41.4603C180.322 40.5877 180.482 39.8256 180.802 39.174C181.122 38.5185 181.566 38.0143 182.132 37.6614C182.698 37.3085 183.344 37.132 184.071 37.132C184.793 37.132 185.438 37.3085 186.004 37.6614C186.574 38.0143 187.019 38.5185 187.34 39.174C187.66 39.8256 187.82 40.5877 187.82 41.4603ZM186.801 41.4603C186.801 40.7544 186.682 40.1494 186.443 39.6452C186.205 39.141 185.879 38.759 185.465 38.4991C185.055 38.2393 184.59 38.1094 184.071 38.1094C183.551 38.1094 183.085 38.2393 182.671 38.4991C182.261 38.759 181.937 39.141 181.698 39.6452C181.46 40.1494 181.341 40.7544 181.341 41.4603C181.341 42.1623 181.46 42.7654 181.698 43.2696C181.937 43.7699 182.261 44.1519 182.671 44.4157C183.085 44.6755 183.551 44.8074 184.071 44.8113C184.59 44.8074 185.055 44.6755 185.465 44.4157C185.879 44.1519 186.205 43.7699 186.443 43.2696C186.682 42.7654 186.801 42.1623 186.801 41.4603Z" fill="white"/>
<path d="M189.366 37.2483H194.475V38.1792H190.421V40.9949H194.088V41.9141H190.421V45.6723H189.366V37.2483Z" fill="white"/>
<path d="M198.329 45.6723L201.434 37.2483H202.547L205.652 45.6723H204.539L202.02 38.6097H201.949L199.43 45.6723H198.329ZM204.164 42.3795V43.2987H199.817V42.3795H204.164Z" fill="white"/>
<path d="M206.8 37.2483H209.682C210.326 37.2483 210.863 37.3569 211.293 37.5741C211.726 37.7913 212.048 38.0958 212.259 38.4875C212.47 38.8792 212.576 39.3311 212.576 39.843C212.576 40.3511 212.472 40.7971 212.265 41.1811C212.058 41.5611 211.738 41.8598 211.304 42.077C210.871 42.2942 210.334 42.4028 209.694 42.4028H207.374V41.4487H209.647C210.088 41.4487 210.447 41.3847 210.725 41.2567C211.006 41.1287 211.209 40.9464 211.334 40.7098C211.463 40.4733 211.529 40.1843 211.533 39.843C211.529 39.4978 211.463 39.2011 211.334 38.9529C211.209 38.7008 211.004 38.5088 210.719 38.377C210.438 38.2451 210.076 38.1792 209.635 38.1792H207.854V45.6723H206.8V37.2483ZM212.904 45.6723H211.674L209.623 41.8908H210.818L212.904 45.6723Z" fill="white"/>
<path d="M213.63 37.2483H220.027V38.1792H217.367V45.6723H216.301V38.1792H213.63V37.2483Z" fill="white"/>
</svg>
