<svg id="logo" xmlns="http://www.w3.org/2000/svg" xmlns:xlink="http://www.w3.org/1999/xlink" width="129.226" height="33.761" viewBox="0 0 129.226 33.761">
  <defs>
    <clipPath id="clip-path">
      <rect id="사각형_27" data-name="사각형 27" width="129.226" height="33.761" fill="#164192"/>
    </clipPath>
  </defs>
  <g id="그룹_1" data-name="그룹 1" clip-path="url(#clip-path)">
    <path id="패스_1" data-name="패스 1" d="M376.453,176v3.623h-4.73c1.806,1.234,3.519,3.111,3.309,5.473-.567,6.364-11.556,7.425-16.329,6.793-5.675-.752-13.54-4.907-7.914-11.211l1.41-1.055h-5.133v-3.472c0-.031-.127-.077-.1-.151ZM360.43,180.56c-7.708.548-8.363,6.593-.521,7.506,2.517.293,7.942.017,9.314-2.538A2.257,2.257,0,0,0,369,182.8c-1.695-2.209-6.019-2.419-8.573-2.237" transform="translate(-312.042 -158.288)" fill="#164192"/>
    <path id="패스_2" data-name="패스 2" d="M1011.285,31.062h4.63V25.224h5.233v15.6h-5.233V34.685h-4.63c-1.764,5.635-8.969,7.252-14.016,5.31-4.268-1.642-7.112-6.1-4.584-10.474,3.743-6.48,16.239-5.945,18.6,1.54M1001.2,28.574c-6.644.7-4.632,10.306,1.888,8.429,5.293-1.524,3.465-8.994-1.888-8.429" transform="translate(-891.922 -22.507)" fill="#164192"/>
    <path id="패스_3" data-name="패스 3" d="M372.7,0V3.02h11.473V6.543h-3.724l1.08,1.688c1.072,2.531-.279,4.724-2.357,6.144-3.287,2.247-8.493,2.694-12.348,2.12-4.967-.739-11.58-4.326-7.107-9.952H356V3.02H367.32l.151-.151V.152c0-.031-.127-.077-.1-.151Zm-3.543,6.571c-1.98.124-6.364,1.031-5.647,3.877.756,3,6.947,3.073,9.3,2.59,1.762-.362,4.707-1.731,3.692-4-1-2.234-5.223-2.6-7.341-2.463" transform="translate(-320.169 -0.001)" fill="#164192"/>
    <path id="패스_4" data-name="패스 4" d="M1039.23,198v2.617h14.694V198h5.233v11.775h-24.2c-.4,0-.956-.795-.956-1.157V198Zm14.694,6.24H1039.23V206.1l.151.151h14.392l.151-.151Z" transform="translate(-929.932 -178.073)" fill="#164192"/>
    <path id="패스_5" data-name="패스 5" d="M21.437,30v3.623H13.889c.26,4.856,2.484,9.18,7.246,10.871l-2.316,2.772c-.412.22-2.634-1.13-3.092-1.442a14.7,14.7,0,0,1-3.792-3.756c-.368-.561-.577-1.2-.964-1.7A8.679,8.679,0,0,1,8.1,43.987a17.03,17.03,0,0,1-5.82,3.332L0,44.494a13.493,13.493,0,0,0,6.559-5.167,14.537,14.537,0,0,0,1.694-5.7H.6V30Z" transform="translate(0 -26.981)" fill="#164192"/>
    <path id="패스_6" data-name="패스 6" d="M692.89,34.523H681.618V31h14.946a2.061,2.061,0,0,1,1.509,1.108c.7,1.762-.717,6.535-1.356,8.405a32.518,32.518,0,0,1-11.644,16.136l-4.056-2.45c6.246-4.688,10.958-11.805,11.874-19.676" transform="translate(-612.476 -27.88)" fill="#164192"/>
    <rect id="사각형_26" data-name="사각형 26" width="4.761" height="29.246" transform="translate(89.778 2.721)" fill="#164192"/>
    <path id="패스_7" data-name="패스 7" d="M43.331,219v6.441H63.359v3.623c-.074.027-.12-.1-.151-.1H38.852c-.245,0-.855-.811-.855-1.057V219Z" transform="translate(-34.173 -196.959)" fill="#164192"/>
    <path id="패스_8" data-name="패스 8" d="M243.23,25V45.531c-.074.027-.12-.1-.151-.1H238V25Z" transform="translate(-214.044 -22.484)" fill="#164192"/>
  </g>
</svg>
