<svg width="18" height="18" viewBox="0 0 18 18" fill="none" xmlns="http://www.w3.org/2000/svg">
<path d="M1.26141 18H0.999907V17H1.26141C1.95891 17 2.63807 16.8997 3.29891 16.699C3.95991 16.4983 4.61857 16.2063 5.27491 15.823C5.84407 16.191 6.42391 16.4727 7.01441 16.6682C7.60474 16.8637 8.25374 16.9615 8.96141 16.9615C9.66907 16.9615 10.3182 16.8637 10.9087 16.6682C11.499 16.4727 12.0787 16.191 12.6479 15.823C13.3006 16.2063 13.9592 16.4983 14.6239 16.699C15.2887 16.8997 15.9698 17 16.6672 17H16.9999V18H16.6672C15.9787 18 15.3014 17.925 14.6354 17.775C13.9694 17.625 13.3127 17.3936 12.6654 17.0807C12.0627 17.3846 11.4512 17.6128 10.8307 17.7655C10.2102 17.918 9.58707 17.9943 8.96141 17.9943C8.33574 17.9943 7.71366 17.918 7.09516 17.7655C6.47649 17.6128 5.86591 17.3846 5.26341 17.0807C4.61591 17.3936 3.95916 17.625 3.29316 17.775C2.62716 17.925 1.94991 18 1.26141 18ZM8.98066 14.577C8.27549 14.577 7.62807 14.3654 7.03841 13.9423C6.44857 13.5192 5.84599 12.9616 5.23066 12.2692C4.66532 12.8988 4.16116 13.375 3.71816 13.698C3.27516 14.0212 2.78832 14.2878 2.25766 14.498L0.767157 9.19225C0.70949 8.98592 0.73024 8.78783 0.829407 8.598C0.928574 8.40817 1.08349 8.27933 1.29416 8.2115L2.51916 7.8115V3.6155C2.51916 3.17117 2.67732 2.79083 2.99366 2.4745C3.30999 2.15817 3.69024 2 4.13441 2H7.17291V0H10.7884V2H13.8269C14.2711 2 14.6513 2.15817 14.9677 2.4745C15.284 2.79083 15.4422 3.17117 15.4422 3.6155V7.8115L16.6672 8.2115C16.8778 8.27933 17.0327 8.40817 17.1319 8.598C17.2311 8.78783 17.2518 8.98592 17.1942 9.19225L15.7037 14.498C15.173 14.2878 14.6862 14.0212 14.2432 13.698C13.8002 13.375 13.296 12.8988 12.7307 12.2692C12.1153 12.9616 11.5127 13.5192 10.9229 13.9423C10.3332 14.3654 9.68582 14.577 8.98066 14.577ZM9.01141 13.577C9.65624 13.577 10.2139 13.3613 10.6844 12.9298C11.1551 12.4984 11.6019 12.0398 12.0249 11.5538L12.7327 10.748L13.4114 11.5095C13.6717 11.8083 13.933 12.0946 14.1952 12.3683C14.4573 12.6419 14.757 12.8749 15.0942 13.0673L16.1479 9.09225L8.96141 6.902L1.81916 9.09225L2.87291 13.0673C3.21007 12.8749 3.50974 12.6419 3.77191 12.3683C4.03424 12.0946 4.29549 11.8083 4.55566 11.5095L5.23441 10.748L5.94216 11.5538C6.36532 12.0436 6.82049 12.5033 7.30766 12.9327C7.79482 13.3622 8.36274 13.577 9.01141 13.577ZM3.48066 7.51725L8.96141 5.84625L14.4422 7.51725V3H3.48066V7.51725Z" fill="white"/>
</svg>
