<svg width="121" height="30" viewBox="0 0 121 30" fill="none" xmlns="http://www.w3.org/2000/svg">
<path d="M99.4336 8.57893C99.4336 8.8819 99.4761 9.19019 99.5982 9.47722C100.129 10.7848 101.462 11.5874 103.161 10.907C103.57 10.7423 114.825 6.20298 114.825 6.20298C114.825 6.20298 110.392 17.4555 110.227 17.8754C109.58 19.486 110.355 20.9477 111.677 21.442C111.969 21.5483 112.272 21.6015 112.574 21.5962C113.647 21.5908 114.597 20.953 115.059 19.688C115.133 19.4966 120.676 4.25757 120.798 3.8855C120.867 3.67289 121 3.16262 121 2.80649C121 2.05171 120.719 1.33946 120.183 0.802614C119.652 0.271081 118.956 0 118.207 0C117.852 0 117.554 0.0637838 117.108 0.207298C116.843 0.292343 102.55 5.6183 101.329 6.07541C100.103 6.53253 99.4336 7.50523 99.4336 8.57893Z" fill="#941D19"/>
<path d="M70.8535 29.7335V16.2061H79.3644V18.4279H73.4551V21.6064H78.8335V23.8282H73.4551V27.5117H79.5768V29.7335H70.8535Z" fill="#454B52"/>
<path d="M89.0699 29.7338L88.4912 28.8514C88.3 28.9843 88.1461 29.1331 87.9549 29.2713C87.1851 29.7922 86.2506 29.957 85.3321 29.957C83.0172 29.957 80.8882 28.5644 80.8882 26.0503C80.8882 24.1314 82.0775 23.3075 83.3199 22.1063C82.6296 21.208 81.9607 20.4798 81.9607 19.2679C81.9607 17.4075 83.5694 16.4136 85.2737 16.4136C86.978 16.4136 88.3903 17.4873 88.3903 19.2892C88.3903 20.804 87.4505 21.6651 86.3993 22.5634L88.6345 25.5878C89.0593 24.7639 89.0593 23.8657 89.0009 22.9621L90.9494 22.9833C90.9706 23.2863 90.9866 23.5946 90.9866 23.9029C90.9866 25.2104 90.6839 26.3745 89.8981 27.411L91.6184 29.7285H89.0593L89.0699 29.7338ZM84.6844 23.9294C84.0366 24.5832 83.1553 25.152 83.1553 26.1885C83.1553 27.4322 84.2596 27.9531 85.3746 27.9531C86.0436 27.9531 86.7709 27.7777 87.2488 27.2834L84.6844 23.9294ZM85.3002 18.258C84.7056 18.258 84.2065 18.6407 84.2065 19.2732C84.2065 19.9642 84.7056 20.5755 85.1303 21.0964C85.6825 20.6339 86.3515 20.0014 86.3515 19.2201C86.3515 18.6035 85.8737 18.258 85.3002 18.258Z" fill="#454B52"/>
<path d="M102.029 28.2777C101.153 29.4843 99.7146 29.9999 98.2598 29.9999C96.4971 29.9999 94.8884 29.3514 93.7469 27.9854C92.5416 26.5662 92.1753 24.8493 92.1753 23.0474C92.1753 22.1066 92.2549 21.1658 92.5257 20.2675C93.269 17.6418 95.3981 15.9355 98.1483 15.9355C101.074 15.9355 102.741 17.7374 102.895 20.5918H100.654C100.426 19.1938 99.6402 18.1786 98.1271 18.1786C95.5467 18.1786 94.8777 20.9904 94.8777 23.0634C94.8777 25.1364 95.6795 27.7356 98.1855 27.7356C99.9641 27.7356 100.654 26.2792 100.729 24.7111H103.065C103.012 26.0134 102.821 27.1987 102.035 28.2724" fill="#454B52"/>
<path d="M7.59236 29.7287L2.61751 22.5636L7.57113 16.2012H10.555L5.50048 22.4679L10.8948 29.7233H7.58706L7.59236 29.7287ZM0 16.2065H2.60158V29.7287H0V16.2065Z" fill="#454B52"/>
<path d="M22.0179 26.853C21.3117 29.112 19.1508 29.9997 16.9262 29.9997C14.7016 29.9997 12.6787 29.1599 11.9142 26.9912C11.6275 26.1833 11.5903 25.3063 11.5903 24.4611V16.2011H14.1972V23.9562C14.1972 24.78 14.1547 25.8378 14.5795 26.5819C15.052 27.4483 16.0343 27.73 16.9528 27.73C17.8076 27.73 18.7898 27.443 19.2623 26.6564C19.7083 25.9122 19.6818 24.9395 19.6818 24.0891V16.1958H22.2887V24.6418C22.2887 25.3913 22.2515 26.1355 22.0179 26.8477" fill="#454B52"/>
<path d="M35.1958 29.7282V19.1773L32.3075 29.7282H29.6316L26.7804 19.1773V29.7282H24.4443V16.2061H28.06L30.9855 26.9536L33.9534 16.2061H37.5319V29.7282H35.1958Z" fill="#454B52"/>
<path d="M47.7043 29.7282V23.7538H42.3472V29.7282H39.7456V16.2061H42.3472V21.6064H47.7043V16.2061H50.3059V29.7282H47.7043Z" fill="#454B52"/>
<path d="M58.1261 18.1627C55.5086 18.1627 54.7387 20.8044 54.7387 22.973C54.7387 25.1417 55.5033 27.7781 58.142 27.7781C60.7808 27.7781 61.5506 25.1364 61.5506 22.973C61.5506 20.8097 60.7489 18.1627 58.1261 18.1627ZM61.1896 29.1973C60.2711 29.7554 59.1773 29.9999 58.1261 29.9999C57.2447 29.9999 56.2306 29.7766 55.4342 29.3674C52.9388 28.0864 52.0469 25.6307 52.0469 22.9677C52.0469 20.3047 52.8645 18.0032 55.2272 16.6637C56.1032 16.1641 57.1385 15.9355 58.1473 15.9355C59.7401 15.9355 61.2904 16.5149 62.3948 17.663C63.7593 19.061 64.2531 21.0755 64.2531 22.973C64.2531 25.4978 63.4514 27.8312 61.1949 29.1973" fill="#454B52"/>
</svg>
