<svg width="121" height="30" viewBox="0 0 121 30" fill="none" xmlns="http://www.w3.org/2000/svg">
<path d="M99.4297 8.57902C99.4297 8.882 99.4722 9.19029 99.5943 9.47732C100.125 10.7849 101.458 11.5875 103.157 10.9072C103.565 10.7424 114.821 6.20305 114.821 6.20305C114.821 6.20305 110.388 17.4557 110.223 17.8756C109.575 19.4862 110.351 20.9479 111.673 21.4422C111.965 21.5485 112.267 21.6017 112.57 21.5964C113.642 21.5911 114.593 20.9532 115.054 19.6882C115.129 19.4968 120.671 4.25762 120.794 3.88554C120.863 3.67293 120.995 3.16265 120.995 2.80652C120.995 2.05174 120.714 1.33948 120.178 0.802622C119.647 0.271084 118.951 0 118.203 0C117.847 0 117.55 0.0637845 117.104 0.2073C116.838 0.292346 102.546 5.61836 101.325 6.07548C100.099 6.5326 99.4297 7.50532 99.4297 8.57902Z" fill="#ED1C24"/>
<path d="M70.8506 29.7342V16.2065H79.3611V18.4284H73.4521V21.607H78.8302V23.8288H73.4521V27.5124H79.5735V29.7342H70.8506Z" fill="white"/>
<path d="M89.0661 29.7339L88.4874 28.8516C88.2963 28.9844 88.1423 29.1333 87.9512 29.2715C87.1814 29.7924 86.247 29.9572 85.3285 29.9572C83.0137 29.9572 80.8848 28.5645 80.8848 26.0504C80.8848 24.1315 82.074 23.3076 83.3163 22.1063C82.6261 21.208 81.9572 20.4798 81.9572 19.2679C81.9572 17.4076 83.5659 16.4136 85.2701 16.4136C86.9743 16.4136 88.3865 17.4873 88.3865 19.2892C88.3865 20.8041 87.4468 21.6652 86.3956 22.5635L88.6308 25.5879C89.0555 24.764 89.0555 23.8657 88.9971 22.9621L90.9455 22.9834C90.9668 23.2864 90.9827 23.5947 90.9827 23.9029C90.9827 25.2105 90.6801 26.3746 89.8943 27.4111L91.6145 29.7286H89.0555L89.0661 29.7339ZM84.6808 23.9295C84.0331 24.5833 83.1518 25.1521 83.1518 26.1886C83.1518 27.4324 84.2561 27.9533 85.371 27.9533C86.0399 27.9533 86.7673 27.7779 87.2451 27.2835L84.6808 23.9295ZM85.2966 18.258C84.702 18.258 84.203 18.6407 84.203 19.2732C84.203 19.9642 84.702 20.5755 85.1267 21.0964C85.6789 20.634 86.3478 20.0015 86.3478 19.2201C86.3478 18.6035 85.87 18.258 85.2966 18.258Z" fill="white"/>
<path d="M102.026 28.2779C101.15 29.4844 99.7108 30 98.2561 30C96.4935 30 94.8848 29.3516 93.7434 27.9855C92.5382 26.5663 92.1719 24.8494 92.1719 23.0475C92.1719 22.1067 92.2515 21.1659 92.5223 20.2676C93.2656 17.6418 95.3945 15.9355 98.1446 15.9355C101.07 15.9355 102.737 17.7375 102.891 20.5918H100.651C100.422 19.1939 99.6365 18.1786 98.1234 18.1786C95.5432 18.1786 94.8742 20.9905 94.8742 23.0635C94.8742 25.1365 95.6759 27.7357 98.1818 27.7357C99.9603 27.7357 100.651 26.2793 100.725 24.7112H103.061C103.008 26.0135 102.817 27.1988 102.031 28.2725" fill="white"/>
<path d="M7.59203 29.7288L2.61739 22.5637L7.5708 16.2012H10.5545L5.50024 22.468L10.8943 29.7235H7.58672L7.59203 29.7288ZM0 16.2065H2.60147V29.7288H0V16.2065Z" fill="white"/>
<path d="M22.0169 26.8531C21.3108 29.1122 19.15 29.9998 16.9255 29.9998C14.701 29.9998 12.6782 29.16 11.9137 26.9913C11.627 26.1834 11.5898 25.3064 11.5898 24.4612V16.2011H14.1966V23.9563C14.1966 24.7801 14.1541 25.8379 14.5789 26.5821C15.0514 27.4485 16.0336 27.7302 16.952 27.7302C17.8068 27.7302 18.789 27.4431 19.2615 26.6565C19.7075 25.9123 19.6809 24.9396 19.6809 24.0891V16.1958H22.2877V24.6419C22.2877 25.3914 22.2505 26.1356 22.0169 26.8478" fill="white"/>
<path d="M35.1943 29.7289V19.1778L32.3062 29.7289H29.6304L26.7794 19.1778V29.7289H24.4434V16.2065H28.0589L30.9842 26.9542L33.952 16.2065H37.5303V29.7289H35.1943Z" fill="white"/>
<path d="M47.7025 29.7289V23.7544H42.3456V29.7289H39.7441V16.2065H42.3456V21.607H47.7025V16.2065H50.304V29.7289H47.7025Z" fill="white"/>
<path d="M58.1239 18.1627C55.5065 18.1627 54.7366 20.8044 54.7366 22.9731C54.7366 25.1418 55.5012 27.7782 58.1398 27.7782C60.7784 27.7782 61.5482 25.1365 61.5482 22.9731C61.5482 20.8098 60.7466 18.1627 58.1239 18.1627ZM61.1872 29.1974C60.2687 29.7555 59.1751 30 58.1239 30C57.2425 30 56.2285 29.7768 55.4321 29.3675C52.9369 28.0865 52.0449 25.6308 52.0449 22.9678C52.0449 20.3048 52.8625 18.0032 55.2251 16.6638C56.1011 16.1641 57.1364 15.9355 58.1451 15.9355C59.7378 15.9355 61.2881 16.5149 62.3924 17.663C63.7568 19.061 64.2506 21.0755 64.2506 22.9731C64.2506 25.4979 63.4489 27.8314 61.1925 29.1974" fill="white"/>
</svg>
