<svg width="40" height="40" viewBox="0 0 40 40" fill="none" xmlns="http://www.w3.org/2000/svg">
<g clip-path="url(#clip0_19_8058)">
<path d="M34.1715 0H5.82845C2.60949 0 0 2.5991 0 5.80525V34.1948C0 37.4009 2.60949 40 5.82845 40H34.1715C37.3905 40 40 37.4009 40 34.1948V5.80525C40 2.5991 37.3905 0 34.1715 0Z" fill="#300505"/>
<path d="M13.3511 24.7705L11.8753 29.7161H7.25623L13.4683 11.1436H19.3553L25.8604 29.7161H21.0016L19.3606 24.7705H13.3564H13.3511ZM18.6361 21.5336L17.2988 17.5644C16.9312 16.4765 16.5743 15.2454 16.26 14.2054H16.2067C15.9083 15.2507 15.626 16.4925 15.2956 17.5697L14.0383 21.5336H18.6361Z" fill="#ED8C2F"/>
<path d="M32.7438 12.4277C32.7438 13.6005 31.87 14.5662 30.3676 14.5662C28.8652 14.5662 28.0554 13.5952 28.0554 12.4277C28.0554 11.2603 28.9398 10.2839 30.3996 10.2839C31.8594 10.2839 32.7171 11.2285 32.7384 12.4277H32.7438ZM28.1939 29.7161V16.2325H32.5839V29.7161H28.1939Z" fill="#ED8C2F"/>
</g>
<defs>
<clipPath id="clip0_19_8058">
<rect width="40" height="40" fill="white"/>
</clipPath>
</defs>
</svg>
