<svg xmlns="http://www.w3.org/2000/svg" width="59.874" height="31.448" viewBox="0 0 59.874 31.448">
  <g id="그룹_20" data-name="그룹 20" transform="translate(-10 -775.032)">
    <path id="패스_12" data-name="패스 12" d="M43.041,219v6.091h18.94v3.426c-.07.025-.114-.1-.143-.1H38.806c-.232,0-.809-.767-.809-1V219Z" transform="translate(-24.381 576.397)" fill="#164192"/>
    <g id="그룹_19" data-name="그룹 19" transform="translate(10 775.032)">
      <path id="패스_9" data-name="패스 9" d="M374.852,176v3.426h-4.473c1.708,1.167,3.328,2.942,3.129,5.176-.536,6.018-10.929,7.022-15.442,6.424-5.367-.711-12.8-4.64-7.484-10.6l1.334-1H347.06v-3.284c0-.029-.12-.073-.1-.143ZM359.7,180.312c-7.289.518-7.909,6.235-.492,7.1,2.381.277,7.511.016,8.808-2.4a2.135,2.135,0,0,0-.208-2.583c-1.6-2.089-5.692-2.287-8.107-2.116" transform="translate(-314.978 -159.729)" fill="#164192"/>
      <path id="패스_10" data-name="패스 10" d="M371.8,0V2.856h10.85V6.188h-3.522l1.021,1.6c1.014,2.394-.264,4.467-2.229,5.81-3.109,2.125-8.032,2.547-11.678,2-4.7-.7-10.951-4.091-6.721-9.411H356V2.856h10.707l.143-.143V.144c0-.029-.121-.073-.1-.143Zm-3.351,6.215c-1.872.117-6.018.975-5.34,3.666.715,2.84,6.569,2.906,8.791,2.449,1.666-.343,4.452-1.637,3.491-3.787-.944-2.113-4.939-2.455-6.942-2.329" transform="translate(-323.155 -0.001)" fill="#164192"/>
      <path id="패스_11" data-name="패스 11" d="M20.272,30v3.426H13.134c.246,4.592,2.349,8.681,6.853,10.28L17.8,46.328c-.39.208-2.491-1.069-2.924-1.364a13.9,13.9,0,0,1-3.586-3.552c-.348-.531-.546-1.137-.912-1.609a8.207,8.207,0,0,1-2.716,3.424,16.1,16.1,0,0,1-5.5,3.151L0,43.707A12.76,12.76,0,0,0,6.2,38.82a13.747,13.747,0,0,0,1.6-5.394H.571V30Z" transform="translate(0 -27.145)" fill="#164192"/>
      <path id="패스_13" data-name="패스 13" d="M242.946,25V44.416c-.07.025-.114-.1-.143-.1H238V25Z" transform="translate(-215.766 -22.621)" fill="#164192"/>
    </g>
  </g>
</svg>
